<!-- Generator: Adobe Illustrator 23.0.1, SVG Export Plug-In  -->
<svg version="1.1" xmlns="http://www.w3.org/2000/svg" xmlns:xlink="http://www.w3.org/1999/xlink" x="0px" y="0px" width="79.11px"
	 height="78.57px" viewBox="0 0 79.11 78.57" style="enable-background:new 0 0 79.11 78.57;" xml:space="preserve">
<style type="text/css">
	.st0{fill:#2396ff;}
</style>
<defs>
</defs>
<g>
	<path class="st0" d="M64.13,67.18c0.61,0.94,0.39,2.17-0.46,2.86c0,0,0,0,0,0c-0.96,0.77-1.97,1.49-3.03,2.18
		C41.68,84.54,16.05,78.4,4.87,58.29c-9.43-16.97-4.81-38.68,10.7-50.35c18.39-13.83,44.3-9.01,56.62,9.95
		c0.67,1.03,1.28,2.09,1.84,3.15c0.01,0.03,0.03,0.06,0.05,0.09c0.48,0.97,0.17,2.17-0.76,2.78L36.6,47.76c-1,0.65-2.34,0.37-3-0.64
		l-1.43-2.2c-1.97-3.03-1.11-7.09,1.93-9.06L56.68,21.2c0.82-0.54,1.27-1.55,0.98-2.49c-0.13-0.43-0.37-0.78-0.67-1.03
		c-9.44-7.74-23.29-8.68-33.89-1.19c-11.58,8.19-15.17,24.13-8.2,36.48C22.88,67.13,41,71.44,54.44,62.74
		c0.01-0.01,0.02-0.02,0.03-0.02c2.72-1.54,6.33-0.66,8.03,1.96L64.13,67.18C64.13,67.18,64.13,67.18,64.13,67.18
		C64.13,67.18,64.13,67.18,64.13,67.18z"/>
	<path class="st0" d="M75.66,38.77c-0.65-1-1.99-1.29-3-0.64l-7.35,4.77c-1.01,0.65-1.29,2-0.64,3l4.77,7.35
		c0.65,1,1.99,1.29,3,0.64l3.68-2.39c3.03-1.97,3.9-6.03,1.93-9.06L75.66,38.77z"/>
</g>
</svg>
