<svg id="popup1" xmlns="http://www.w3.org/2000/svg" width="101" height="83" viewBox="0 0 101 83">
  <defs>
    <style>
      .cls-1 {
        fill: #f78973;
      }

      .cls-1, .cls-2 {
        fill-rule: evenodd;
      }

      .cls-2 {
        fill: #fff;
      }
    </style>
  </defs>
  <path id="形状_1" data-name="形状 1" class="cls-1" d="M705.762,233.521c-6.129,20.062-33.153,32.625-60.358,28.06-0.49-.082-0.969-0.18-1.452-0.272-9.081,4.529-19.718,9.688-19.718,9.688l3.4-15.218c-16.337-8.429-25.044-23.577-20.4-38.788,6.129-20.062,33.152-32.625,60.358-28.06S711.891,213.459,705.762,233.521Z" transform="translate(-606 -188)"/>
  <path id="全年不打烊_准时送达_" data-name="全年不打烊， 准时送达! " class="cls-2" d="M627.864,210.472a8.937,8.937,0,0,0,3.479,3.62c-0.87.061-2.024,0.091-3.524,0.091s-2.639-.03-3.524-0.091A29.667,29.667,0,0,0,627.864,210.472Zm-3.9,3.891v0.991c0.795-.075,1.874-0.12,3.284-0.135v2.118c-1.725-.015-3.014-0.06-4.019-0.12v1.322c0.99-.075,2.279-0.12,4.019-0.135v2.659c-2.369,0-3.974-.045-5.339-0.15v1.4c1.425-.1,3.18-0.15,5.819-0.15s4.409,0.045,5.834.15v-1.4c-1.29.09-2.85,0.135-5.084,0.15V218.4c1.709,0.015,2.984.06,3.959,0.135v-1.322c-0.975.06-2.25,0.1-3.959,0.12v-2.118c1.364,0.015,2.414.06,3.194,0.135v-1.081a15.87,15.87,0,0,0,2.1.991,4.061,4.061,0,0,1,.884-1.532A7.838,7.838,0,0,1,628.6,209.9a1.19,1.19,0,0,1,.24-0.12c0.3-.105.3-0.271-0.075-0.331a7.786,7.786,0,0,1-1.635-.465,11.732,11.732,0,0,1-6.208,5.738,3.713,3.713,0,0,1,1.139,1.007A19.5,19.5,0,0,0,623.965,214.363Zm18.926,1.4v2.629h-2.909V215.76h2.909Zm-2.579-4.432a3.865,3.865,0,0,1,.959-1.292c0.3-.15.255-0.225-0.15-0.315a10.121,10.121,0,0,1-1.319-.436,13.781,13.781,0,0,1-3.149,5.108,4.451,4.451,0,0,1,1.3.556,19.731,19.731,0,0,0,1.74-2.524h3.194v2.329c-1.71,0-3.014-.031-4.229-0.121a8.087,8.087,0,0,1,.105,1.382v2.359c-1.005-.015-1.89-0.045-2.564-0.12v1.352c0.884-.075,2.249-0.135,6.688-0.135,0,1.367-.03,2.479-0.12,3.711h1.515c-0.09-1.217-.12-2.344-0.12-3.711,3.809,0.015,4.709.06,5.414,0.135v-1.352a52.876,52.876,0,0,1-5.414.135V215.76c1.424,0.015,2.684.06,3.809,0.12v-1.247c-1.065.075-2.265,0.1-3.809,0.121v-2.329c2.054,0,3.389.03,4.514,0.12v-1.337c-1.095.09-2.46,0.12-4.589,0.12h-3.779Zm24.19,7.091a50.259,50.259,0,0,0-3.884-4.041l-1.155.856a18.674,18.674,0,0,1,3.719,4.207Zm-6.314-6.88a13,13,0,0,1-7.033,6.91,4.631,4.631,0,0,1,1.244,1.292,25.564,25.564,0,0,0,4.784-4.251v4.957a19.5,19.5,0,0,1-.135,2.584h1.665a19.5,19.5,0,0,1-.135-2.584V213.6a14.549,14.549,0,0,0,1.1-2.058c1.964,0.015,3.584.045,4.829,0.135v-1.382c-1.53.1-3.6,0.15-6.449,0.15s-4.934-.045-6.463-0.15v1.382C653.119,211.569,655.159,211.539,658.188,211.539Zm10.318,5.077a18.433,18.433,0,0,1-2.384.466c0.12,0.466.27,1.1,0.345,1.548a20.67,20.67,0,0,1,2.039-.872v3c0,0.6-.285.8-2.054,0.676a3.367,3.367,0,0,1,.675,1.5c2.309-.195,2.609-0.481,2.609-1.682v-3.952c0.84-.285,1.62-0.54,2.13-0.676a9.9,9.9,0,0,1-.03-1.186c-0.735.315-1.425,0.57-2.1,0.8v-2.9a19.148,19.148,0,0,1,2.22.136v-1.2a20.02,20.02,0,0,1-2.22.12v-1.953a0.589,0.589,0,0,1,.3-0.541c0.375-.3.33-0.451-0.24-0.436a6.557,6.557,0,0,1-1.455-.135,18.35,18.35,0,0,1,.165,3.065,19.019,19.019,0,0,1-2.159-.12v1.2a18.2,18.2,0,0,1,2.159-.136v3.275Zm8.623-4.7c1.11,0.015,2.01.045,2.67,0.12v-1.307a32.045,32.045,0,0,1-3.33.12c-2.264,0-3.584-.045-4.378-0.12v1.307c0.734-.075,1.844-0.12,3.764-0.12v8.8c0,0.931-.27,1.081-2.34.616a3.8,3.8,0,0,1,.675,1.622c2.25,0,2.939-.5,2.939-1.8v-9.239Zm7.439,3.08a16.514,16.514,0,0,1,2.19-1.7c0.21-.06.195-0.165,0.075-0.24a4.635,4.635,0,0,1-.975-0.871c-0.33.51-.84,1.216-1.245,1.727a15,15,0,0,1,.3-4.086c0.21-.195.15-0.316-0.075-0.316a11.946,11.946,0,0,1-1.529-.12,42.509,42.509,0,0,1,.119,6.791c-0.119,2.989-.929,4.627-2.354,5.844a4.874,4.874,0,0,1,1.41.751,11.722,11.722,0,0,0,1.739-4.327,27.072,27.072,0,0,1,1.485,2.674l1.17-.766c-0.765-1.051-1.74-2.283-2.46-3.17C684.493,216.526,684.538,215.805,684.568,214.994Zm-1.934-2.118-1.185-.076a11.481,11.481,0,0,1-.48,3.937l1.38,0.09C682.484,215.339,682.574,214.108,682.634,212.876Zm7.2-1.428c-0.33-.706-0.795-1.547-1.1-2.043l-1.184.511a20.228,20.228,0,0,1,1.169,2.073Zm-0.105,1.788v2.058a22.625,22.625,0,0,1-2.579-.135v1.322c0.689-.075,1.439-0.12,2.579-0.135v2.374q-1.935-.022-3.1-0.136v1.307c0.765-.075,1.814-0.12,3.1-0.135,0,0.9-.06,2.3-0.15,3.32h1.515c-0.09-1.021-.15-2.418-0.15-3.32,1.589,0,2.729.045,3.629,0.135v-1.307c-0.9.091-2.04,0.136-3.629,0.136v-2.374c1.214,0.015,2.1.06,2.8,0.135v-1.322a25.968,25.968,0,0,1-2.8.135v-2.073a28.575,28.575,0,0,1,3.209.135v-1.307c-0.675.075-1.515,0.121-2.654,0.136a7.666,7.666,0,0,1,1.544-2.1c0.27-.15.225-0.27-0.03-0.3a5.7,5.7,0,0,1-1.409-.556,8.914,8.914,0,0,1-1.17,2.96,31.767,31.767,0,0,1-3.329-.136v1.307C687.732,213.281,688.647,213.251,689.727,213.236Zm7.844,9.885a17.586,17.586,0,0,0,1.529-3.59l-2.039.195a23.339,23.339,0,0,1-.8,3.531ZM624.49,236.986a2.515,2.515,0,0,1-1.065-1.036,18.654,18.654,0,0,1-.99,2.4,10.82,10.82,0,0,1-1.275,1.968,9.447,9.447,0,0,1,1.455,1.022c0.24-.751.54-1.547,0.825-2.238A14.055,14.055,0,0,1,624.49,236.986Zm-0.03-4.161a22.982,22.982,0,0,1-1.83-2.239l-1.155.857a12.044,12.044,0,0,1,1.86,2.328ZM631.7,231.2a10.4,10.4,0,0,1-.735-1.833l-1.289.391a5.218,5.218,0,0,1,.614,1.8Zm-4.589,4.673h2.67v1.712h-2.67v-1.712Zm0-2.885h2.67v1.788h-2.67V232.99Zm0,8.7h3.794c2.415,0,3.045.03,3.449,0.075v-1.247c-0.375.045-1.064,0.075-3.419,0.075v-1.908c1.755,0.015,2.28.03,2.64,0.075v-1.247c-0.33.045-.9,0.06-2.64,0.075v-1.712c1.74,0.015,2.295.03,2.655,0.075V234.7a23.579,23.579,0,0,1-2.655.075V232.99a30.237,30.237,0,0,1,3.089.075v-1.247c-0.359.045-1.064,0.075-3.449,0.075h-3.209a6.617,6.617,0,0,1,.975-1.817c0.345-.271.315-0.376-0.015-0.406a5.619,5.619,0,0,1-1.455-.451,15.278,15.278,0,0,1-.855,3.02,11.943,11.943,0,0,1-2.039,3.185,2.606,2.606,0,0,1,.9.946c0.419-.586.794-1.126,1.124-1.667v5.033a17.037,17.037,0,0,1-.18,3.23h1.29v-1.277Zm0-3h2.67v1.908h-2.67v-1.908Zm18.162-.826a9.989,9.989,0,0,1-1.14-2.78l-1.215.421a19.29,19.29,0,0,1,1.02,2.839Zm1.424-5.213h-1.814c-1.095,0-2.115-.046-2.835-0.121v1.382c0.735-.075,1.725-0.12,2.835-0.12H646.7v7.121c0,0.466-.27.6-2.084,0.481a3.078,3.078,0,0,1,.629,1.608c2.385-.211,2.685-0.466,2.685-1.638V233.8c0.69,0.015,1.305.045,1.8,0.105v-1.382c-0.509.045-1.124,0.09-1.8,0.106v-2.539a0.58,0.58,0,0,1,.27-0.586c0.18-.1.1-0.241-0.21-0.226a10.372,10.372,0,0,1-1.455-.075A21.44,21.44,0,0,1,646.7,232.645Zm-6.223,2.268h-2.415V231.8h2.415v3.11Zm0,4.146h-2.415v-3.094h2.415v3.094Zm-2.415,1.007h2.415v1.367h1.259a18.134,18.134,0,0,1-.105-1.983v-7.166a11.662,11.662,0,0,1,.09-1.668,14,14,0,0,1-2.444.121,14.226,14.226,0,0,1-2.46-.121,11.913,11.913,0,0,1,.09,1.668v7.8a16.981,16.981,0,0,1-.105,2h1.26v-2.013Zm16.527-7.557c-0.375-.856-0.81-1.893-1.1-2.6l-1.2.481a8.027,8.027,0,0,1,.96,2.584Zm4.184-1.2a14.472,14.472,0,0,0-.975-1.847l-1.08.405a15.289,15.289,0,0,1,.945,1.923Zm-4.484,8.939v-4a9.529,9.529,0,0,1,.135-1.788,10.821,10.821,0,0,1-1.44.106,9.814,9.814,0,0,1-1.409-.106v1.172a8.944,8.944,0,0,1,1.574-.075v4.717a7.449,7.449,0,0,0-2.054,1.383,5.717,5.717,0,0,1,1.11,1.141c1.079-1.757,1.424-1.818,2.849-1.036,1.485,0.811,3.4,1.021,8.968.706a3.813,3.813,0,0,1,.48-1.5c-4.574.692-7.619,0.481-8.878-.135A9.276,9.276,0,0,0,654.289,240.246ZM660,233.185c1.784,0,2.894.045,3.839,0.136v-1.262c-0.78.075-1.62,0.12-2.82,0.135a11.069,11.069,0,0,1,1.395-2.073c0.3-.271.27-0.406,0.06-0.421a4.12,4.12,0,0,1-1.365-.436,12.721,12.721,0,0,1-1.094,2.93c-1.65,0-3.3-.045-4.3-0.135v1.262c0.78-.061,1.724-0.121,3.1-0.136a21.231,21.231,0,0,1-.09,2.164c-1.365-.015-2.474-0.06-3.374-0.135v1.231c0.855-.09,1.934-0.135,3.254-0.15a4.9,4.9,0,0,1-3.464,3.4,3.4,3.4,0,0,1,1.065,1.052,6.788,6.788,0,0,0,3.209-3.335,41.526,41.526,0,0,1,3.224,3.155l1.095-1.172c-0.93-.706-2.37-1.773-4.049-2.839,0.015-.076.03-0.166,0.045-0.256a42.589,42.589,0,0,1,4.274.15v-1.231c-1.035.09-2.2,0.135-4.139,0.135A17.45,17.45,0,0,0,660,233.185Zm18.716,5.905a26.308,26.308,0,0,0-2.909-3.426l-0.84.676a25.236,25.236,0,0,1,2.744,3.681Zm-8.953-7.016a14.8,14.8,0,0,0-1.485-2.524l-1.319.646a10.275,10.275,0,0,1,1.424,2.614Zm-0.585,7.917v-3.786a7.658,7.658,0,0,1,.135-1.713c-0.465.045-1.065,0.076-1.559,0.076s-1.095-.031-1.56-0.076v1.172a15.273,15.273,0,0,1,1.709-.06v4.447a6.227,6.227,0,0,0-1.859,1.608,6.606,6.606,0,0,1,1.17.931c1.109-1.833,1.364-1.953,2.429-1.247,1.86,1.232,2,1.247,9.3,1.232a5.008,5.008,0,0,1,.555-1.608c-5.609.541-7.678,0.316-8.953-.36A6.577,6.577,0,0,0,669.181,239.991Zm5.834-7.121c0.09-.856.165-1.7,0.18-2.163a1.218,1.218,0,0,1,.3-0.857c0.225-.18.21-0.285-0.045-0.27a8.64,8.64,0,0,1-1.725-.12,24.067,24.067,0,0,1,0,3.41c-1.395-.015-2.459-0.045-3.284-0.12v1.292c0.795-.075,1.859-0.1,3.224-0.12a5.713,5.713,0,0,1-3.569,5.288,2.606,2.606,0,0,1,1.275,1.006c2.519-2.253,3.134-3.185,3.539-6.294,1.709-.016,3.029-0.016,3.959.06V232.75C677.969,232.84,676.679,232.87,675.015,232.87Zm8.249-2.524h-1.89l0.27,8.082h1.35Zm-0.96,11.673a1.166,1.166,0,0,0,.015-2.329,1.105,1.105,0,0,0-1.11,1.172A1.08,1.08,0,0,0,682.3,242.019Z" transform="translate(-606 -188)"/>
</svg>
