<svg id="text1" xmlns="http://www.w3.org/2000/svg" width="344.782" height="108.125" viewBox="0 0 344.782 108.125">
  <defs>
    <style>
      .cls-1 {
        fill: #f78973;
      }

      .cls-1, .cls-2 {
        fill-rule: evenodd;
      }

      .cls-2 {
        fill: #cfcbcf;
      }
    </style>
  </defs>
  <path id="结算优化" class="cls-1" d="M445.134,550.427v6.15h-12.3q-1.923,1.154,0,2.307h12.3v8.456H434.372q-1.923,1.154,0,2.306h24.6q1.918-1.152,0-2.306H447.441v-8.456h12.3q1.536-1.154,0-2.307h-12.3v-6.15q-1.153-1.536-2.307,0h0Zm-20.756,0q-1.923,6.153-7.687,15.375-1.541,3.461,1.537,3.076l7.3-.769a93.255,93.255,0,0,1-6.919,10.762q-1.539,3.077,1.538,3.075a95.83,95.83,0,0,0,11.147-3.459q1.536-1.918-.384-2.306l-6.919,2.306q-3.077,1.154-1.922-.384a108,108,0,0,0,9.994-18.066q0-2.307-1.922-1.153-1.54,3.459-3.46,6.918l-5.765.769q-2.307.387-1.538-.769,5.379-8.454,6.919-14.221-0.387-2.307-1.922-1.154h0Zm9.994,28.829v10.762q0,4.612,4.612,4.228H454.36q5,0.384,4.612-3.843V579.256q0.382-4.226-4.612-4.228H438.984q-4.613,0-4.612,4.228h0Zm22.294,0.384v10.378q0.382,2.307-2.691,1.922H439.369q-2.694.382-2.691-2.306V579.64a2.039,2.039,0,0,1,2.306-2.306h14.991q3.072,0,2.691,2.306h0Zm-38.822,12.3a76.545,76.545,0,0,0,13.837-5q1.154-1.918-.768-1.922a93.721,93.721,0,0,1-13.454,4.613q-1.541,1.536.385,2.306h0Zm48.047-32.288q-0.387,2.307,1.922,1.538a35.09,35.09,0,0,0,5-5.381h4.228a22.352,22.352,0,0,1,1.153,3.843q1.536,1.54,2.306-.384a13.947,13.947,0,0,0-1.153-3.459h6.919q1.536-1.154,0-2.307h-12.3l1.922-2.69q0-2.307-1.922-1.153a47.287,47.287,0,0,1-8.072,9.993h0Zm20.756-.768q-0.387,1.923,1.922,1.153a27.819,27.819,0,0,0,3.459-4.228h5.766a23.716,23.716,0,0,1,2.306,4.228q1.536,1.54,2.307-.385a9.109,9.109,0,0,0-1.922-3.843h8.072q1.536-1.154,0-2.307H493.182l1.537-3.075q-0.387-2.306-2.306-.768a26.165,26.165,0,0,1-5.766,9.225h0Zm-16.528,6.15V575.8q0,4.23,3.844,3.844h4.612l-0.384,4.613H465.506q-1.54,1.152,0,2.306h12.3q-1.925,4.613-7.688,6.15-1.154,1.919.769,2.306,7.685-2.306,9.225-8.456h15.375v7.687q1.154,1.536,2.306,0v-7.687h11.531q1.536-1.154,0-2.306H497.794V579.64h3.844q4.226,0.387,3.844-3.844V565.034q0.382-3.843-3.844-3.844H473.963q-3.461,0-3.844,3.844h0Zm33.056,1.537h-30.75V565.8a2.039,2.039,0,0,1,2.307-2.306h26.137q2.689,0,2.306,3.075h0Zm0,5.381h-30.75v-3.074h30.75v3.074Zm0,2.307q0.384,3.459-2.306,3.075H474.732q-2.307.387-2.307-2.306v-0.769h30.75ZM480.5,584.253l0.385-4.613h14.606v4.613H480.5Zm41.513-33.826a52.363,52.363,0,0,1-8.456,23.063q0,1.923,1.921,1.153a27.713,27.713,0,0,0,3.844-6.919v25.754q1.154,1.918,2.306,0V563.112a71.065,71.065,0,0,0,2.691-12.685q-1.154-1.918-2.306,0h0ZM537,559.652H525.854q-1.925,1.154,0,2.307H537q-1.925,19.6-13.069,30.75-0.771,1.919,1.153,1.922,12.3-11.532,14.222-32.672h18.834q1.92-1.153,0-2.307H539.307l0.384-9.225q-1.154-1.536-2.306,0Zm5.765-6.918a80.7,80.7,0,0,1,9.994,4.612q1.918,0,1.153-1.922a91.36,91.36,0,0,0-9.994-5q-1.923,0-1.153,2.307h0Zm-1.153,35.747q0,5.378,4.613,5h6.15q6.531,0.383,6.15-10.763-1.154-2.306-2.307,0,0.384,9.225-4.612,8.456h-5q-2.694.384-2.691-2.69V564.265q-1.152-1.918-2.306,0v24.216Zm46.125-38.054v18.835a60.69,60.69,0,0,1-11.531,5.766q-1.154,2.306.769,2.306a67.563,67.563,0,0,0,10.762-5.382V590.4q0,4.224,5,3.843h10.378q5.766,0.384,5-14.606-1.154-1.536-2.306,0,0.383,13.068-3.075,12.3H593.12q-3.077.382-3.075-2.306V570.8a55.931,55.931,0,0,0,15.375-13.068q0-2.307-1.922-1.538-3.848,5.384-13.453,11.916V550.427q-1.154-1.918-2.307,0h0Zm-24.6,22.294q-0.387,1.925,1.538,1.538a29.351,29.351,0,0,0,5.381-6.535v26.138q1.154,2.307,2.306,0V563.881a59.5,59.5,0,0,0,4.228-13.454q-1.152-1.918-2.306,0-2.694,13.455-11.147,22.294h0Z" transform="translate(-339.406 -549.031)"/>
  <path id="结算更清晰_购买更容易" data-name="结算更清晰，购买更容易" class="cls-2" d="M358.058,627.425v3.963h-7.924q-1.239.742,0,1.485h7.924v5.448h-6.933q-1.239.744,0,1.486h15.848q1.236-.743,0-1.486h-7.429v-5.448h7.925a0.8,0.8,0,0,0,0-1.485h-7.925v-3.963a0.806,0.806,0,0,0-1.486,0h0Zm-13.372,0a45.5,45.5,0,0,1-4.953,9.906q-0.992,2.229.991,1.981l4.7-.5a60.3,60.3,0,0,1-4.457,6.933q-0.993,1.983.99,1.981a61.631,61.631,0,0,0,7.182-2.228q0.988-1.236-.248-1.486l-4.458,1.486q-1.981.742-1.238-.248a69.508,69.508,0,0,0,6.439-11.639q0-1.485-1.238-.743-0.993,2.229-2.229,4.458l-3.715.5q-1.485.249-.99-0.5a34.98,34.98,0,0,0,4.457-9.163q-0.249-1.485-1.238-.743h0ZM351.125,646v6.934q0,2.971,2.971,2.724H364q3.217,0.246,2.971-2.477V646q0.247-2.723-2.971-2.724H354.1q-2.971,0-2.971,2.724h0Zm14.362,0.248v6.686q0.247,1.485-1.733,1.238h-9.41a1.32,1.32,0,0,1-1.734-1.486v-6.438a1.314,1.314,0,0,1,1.486-1.486h9.658q1.978,0,1.733,1.486h0Zm-25.011,7.924a49.377,49.377,0,0,0,8.915-3.219q0.743-1.236-.5-1.238a60.352,60.352,0,0,1-8.667,2.971q-0.993.99,0.247,1.486h0Zm30.955-20.8q-0.25,1.485,1.238.99a22.6,22.6,0,0,0,3.219-3.467h2.724a14.357,14.357,0,0,1,.743,2.477q0.99,0.991,1.486-.248a9.009,9.009,0,0,0-.743-2.229h4.457a0.8,0.8,0,0,0,0-1.485h-7.924l1.238-1.734q0-1.485-1.238-.743a30.5,30.5,0,0,1-5.2,6.439h0Zm13.372-.5q-0.249,1.24,1.238.743a17.909,17.909,0,0,0,2.229-2.724h3.714a15.324,15.324,0,0,1,1.486,2.724q0.99,0.993,1.486-.247a5.858,5.858,0,0,0-1.238-2.477h5.2a0.8,0.8,0,0,0,0-1.485h-9.905l0.99-1.982q-0.249-1.485-1.486-.5a16.842,16.842,0,0,1-3.714,5.943h0Zm-10.648,3.963v6.933q0,2.726,2.476,2.477H379.6l-0.248,2.971h-8.172a0.8,0.8,0,0,0,0,1.486h7.924a6.872,6.872,0,0,1-4.952,3.962q-0.744,1.236.5,1.486,4.95-1.485,5.943-5.448H390.5v4.953a0.8,0.8,0,0,0,1.485,0V650.7h7.429a0.805,0.805,0,0,0,0-1.486h-7.429v-2.971h2.477q2.721,0.249,2.476-2.477v-6.933q0.246-2.477-2.476-2.477h-17.83q-2.229,0-2.476,2.477h0Zm21.3,0.99H375.64v-0.5a1.314,1.314,0,0,1,1.486-1.486h16.839q1.733,0,1.486,1.981h0Zm0,3.467H375.64v-1.981h19.811v1.981Zm0,1.486q0.247,2.229-1.486,1.981H377.126q-1.485.249-1.486-1.486v-0.5h19.811Zm-14.61,6.438,0.247-2.971H390.5v2.971h-9.658Zm23.277-20.306H416.5v3.467h-8.667a2.408,2.408,0,0,0-2.724,2.724v8.172q0,2.726,2.476,2.476H416.5a9.322,9.322,0,0,1-2.476,5.448,31.42,31.42,0,0,1-4.7-4.7,0.892,0.892,0,0,0-1.238.991,31.42,31.42,0,0,0,4.7,4.7q-1.735,1.485-9.41,2.476a0.8,0.8,0,0,0,0,1.486q7.676-.742,10.9-2.972,5.694,2.723,17.087,2.477,1.236-.743,0-1.486-11.64.246-15.848-2.229a12.309,12.309,0,0,0,2.476-6.191h8.667q2.971,0.251,2.724-2.476V635.1q0.247-2.722-2.724-2.724h-8.667v-3.467h12.382q1.236-.742,0-1.486h-26.25a0.8,0.8,0,0,0,0,1.486h0Zm12.382,9.163h-9.9V635.35a1.313,1.313,0,0,1,1.486-1.486H416.5v4.21Zm11.391-2.724v2.724h-9.905v-4.21h8.42q1.732,0,1.485,1.486h0ZM416.5,644.265h-8.419q-1.487.249-1.486-1.486V639.56h9.9v4.705Zm11.391-1.486q0.247,1.736-1.485,1.486h-8.42V639.56h9.905v3.219Zm23.773-15.849v2.477H443a0.8,0.8,0,0,0,0,1.485h8.667v2.477H443.74a0.8,0.8,0,0,0,0,1.485h7.924v2.477h-9.657a0.8,0.8,0,0,0,0,1.486h21.3a0.805,0.805,0,0,0,0-1.486H453.15v-2.477h7.924a0.8,0.8,0,0,0,0-1.485H453.15v-2.477h8.667a0.8,0.8,0,0,0,0-1.485H453.15V626.93a0.805,0.805,0,0,0-1.486,0h0Zm-15.6,1.981a63.289,63.289,0,0,1,4.7,4.705q1.487,0.251.991-1.238a63.675,63.675,0,0,0-4.705-4.705q-1.486-.246-0.991,1.238h0Zm-1.238,7.677q2.475,2.229,4.953,4.705,1.485,0.249.99-1.238-2.227-2.229-4.952-4.7-1.486-.248-0.991,1.238h0Zm9.41,6.686v12.382a0.805,0.805,0,0,0,1.486,0v-5.448h13.868v2.971q0,1.98-4.458.248-1.485,0-.743,1.238a10.4,10.4,0,0,0,4.21.991q2.475-.25,2.476-1.981V643.522q0.247-2.723-2.971-2.724H446.712a2.189,2.189,0,0,0-2.477,2.476h0Zm-8.172,11.391q0,1.236,1.238.743a39.042,39.042,0,0,0,4.706-12.629q-0.5-1.732-1.486-.248a35,35,0,0,1-4.458,12.134h0Zm23.526-10.648v0.743H445.721v-1.238a1.217,1.217,0,0,1,1.486-1.239h10.9a1.32,1.32,0,0,1,1.486,1.734h0Zm0,4.7H445.721v-2.476h13.868v2.476Zm18.82-14.363h-3.467a0.8,0.8,0,0,0,0,1.486h3.219a36.8,36.8,0,0,1-3.714,11.144q0,1.239,1.238.742a35.687,35.687,0,0,0,2.724-6.933v14.858q0.743,1.236,1.486,0V638.321a34.684,34.684,0,0,1,2.228,4.953q1.238,0.5,1.239-.743a26.647,26.647,0,0,0-3.22-6.686h3.22a0.806,0.806,0,0,0,0-1.486H479.9v-6.438a0.805,0.805,0,0,0-1.486,0v6.438Zm7.924-4.457q-1.982,0-1.981,2.228v11.144q0.248,8.421-1.981,11.391a0.892,0.892,0,0,0,1.238.991q2.475-3.716,2.229-12.63v-4.209H490.3v16.839a0.805,0.805,0,0,0,1.486,0V638.817h2.972a0.806,0.806,0,0,0,0-1.486h-8.915v-4.953a0.875,0.875,0,0,1,.99-0.99,32.774,32.774,0,0,0,7.182-1.486q0.743-.99-0.5-1.486-4.954,1.735-7.182,1.486h0Zm-13.867,2.476v8.915h-4.458v-8.915a1.314,1.314,0,0,1,1.486-1.486h1.486q1.732,0,1.486,1.486h0Zm0,19.316q0.246,1.733-1.486,1.485h-1.486q-1.487.248-1.486-1.485v-8.915h4.458v8.915Zm-5.944.5q0,2.723,2.477,2.476h2.476q2.722,0.248,2.476-2.476V631.883q0.247-2.475-2.476-2.476H469a2.189,2.189,0,0,0-2.477,2.476v20.306Zm33.431,0.248a1.72,1.72,0,0,0,.991.742q0.492,0,0,1.486a14.01,14.01,0,0,1-1.734,2.477,10.041,10.041,0,0,0,4.705-3.963,3.255,3.255,0,0,0,.248-3.219,3,3,0,0,0-4.458,0,1.961,1.961,0,0,0,.248,2.477h0Zm39.869-15.849q0,1.485,1.238.743a26.337,26.337,0,0,0,2.477-6.191H554.68q1.733,0,1.734,1.486,0,15.6-.5,18.077-1.24,5.694-8.915,2.476-1.486.248-.5,1.486a12.922,12.922,0,0,0,6.687.991q3.463-.743,4.209-4.7,0.493-2.971.5-18.573,0-2.723-2.972-2.724H543.784l0.5-2.476q-0.5-1.236-1.486,0a28.562,28.562,0,0,1-2.972,9.41h0Zm-9.658-6.191v16.839q0.744,1.239,1.486,0V630.645a1.314,1.314,0,0,1,1.486-1.486h2.972q1.733,0,1.486,1.486v16.591q0.743,1.239,1.485,0V630.4q0.248-2.723-2.724-2.724h-3.467a2.408,2.408,0,0,0-2.724,2.724h0Zm3.715,9.658q0.246,9.411-3.467,14.858-0.5,1.485.991,0.99,4.207-5.45,3.962-15.6v-7.429q-0.743-1.236-1.486,0v7.182Zm8.172,4.705q-1.736,3.714,1.981,3.467,4.207-.493,8.42-0.991l0.743,2.724q0.989,1.239,1.485-.247a54.73,54.73,0,0,0-2.971-10.153q-1.239-.99-1.486.5,0.743,1.736,1.981,5.7-5.2.744-7.924,0.991-1.735,0-.743-1.733a96.047,96.047,0,0,0,4.21-10.154q-0.5-1.485-1.486-.247a96.109,96.109,0,0,1-4.21,10.153h0Zm-2.972,10.648q0.99,0.99,1.239-.5a33.383,33.383,0,0,0-2.972-5.943q-1.239-.744-1.238.743a59.956,59.956,0,0,1,2.971,5.7h0Zm23.773-26h23.03q3.219,0,0,7.181,0.248,1.485,1.486.5a16.969,16.969,0,0,0,1.734-6.438q0-2.476-2.972-2.724H562.852a0.8,0.8,0,0,0,0,1.486h0Zm12.382,12.876H562.852q-1.239.993,0,1.486h11.887q-2.229,6.936-11.391,10.649-0.993,1.236.742,1.238,8.665-3.716,11.392-9.658,6.189,4.458,11.638,8.915,1.732,0.246.991-1.238-5.7-4.7-12.134-9.163l0.248-.743h11.886q1.236-.743,0-1.486H576.72a44.476,44.476,0,0,0,.99-10.895q-0.743-1.238-1.485,0a47.294,47.294,0,0,1-.991,10.895h0Zm-7.677-9.9a60.294,60.294,0,0,1,5.944,4.21q1.485,0.249.99-.991a30.909,30.909,0,0,0-6.191-4.457q-1.239,0-.743,1.238h0Zm-3.219,4.21a58.6,58.6,0,0,1,7.181,4.705q1.238,0,.743-1.238a47.073,47.073,0,0,0-6.933-4.7q-1.486-.248-0.991,1.238h0Zm29.964-7.677h12.382v3.467h-8.668a2.408,2.408,0,0,0-2.724,2.724v8.172q0,2.726,2.477,2.476h8.915a9.317,9.317,0,0,1-2.477,5.448,31.42,31.42,0,0,1-4.705-4.7,0.892,0.892,0,0,0-1.238.991,31.42,31.42,0,0,0,4.705,4.7q-1.736,1.485-9.41,2.476a0.8,0.8,0,0,0,0,1.486q7.676-.742,10.9-2.972,5.694,2.723,17.087,2.477,1.236-.743,0-1.486-11.64.246-15.849-2.229a12.291,12.291,0,0,0,2.476-6.191h8.668q2.971,0.251,2.724-2.476V635.1q0.246-2.722-2.724-2.724h-8.668v-3.467h12.382q1.236-.742,0-1.486H594.3a0.8,0.8,0,0,0,0,1.486h0Zm12.382,9.163h-9.906V635.35a1.313,1.313,0,0,1,1.486-1.486h8.42v4.21Zm11.391-2.724v2.724h-9.906v-4.21h8.42q1.732,0,1.486,1.486h0Zm-11.391,8.915h-8.42q-1.486.249-1.486-1.486V639.56h9.906v4.705Zm11.391-1.486q0.246,1.736-1.486,1.486h-8.42V639.56h9.906v3.219Zm18.82-15.6a8.518,8.518,0,0,1,.991,2.229h-8.915q-2.971,0-3.22,2.723v3.22a0.8,0.8,0,0,0,1.486,0v-2.972q0-1.485,1.734-1.486h21.544q1.978,0,.248,3.962,0.246,1.24,1.485.5,2.229-5.943-1.733-5.943h-10.9a22.789,22.789,0,0,0-1.238-2.972,0.942,0.942,0,0,0-1.486.743h0Zm-10.153,11.391q-0.743,1.239.743,1.238a64.481,64.481,0,0,0,8.915-5.448q0.494-1.485-.991-1.238a39.069,39.069,0,0,1-8.667,5.448h0Zm15.849-3.715a91.135,91.135,0,0,1,9.162,5.2q1.486,0,.743-1.486-4.458-2.722-9.162-5.2-1.486.249-.743,1.485h0Zm-18.078,9.906q-0.992.993,0.5,1.486,9.16-3.465,13.372-7.677,0.494-.743,1.486,0a46.786,46.786,0,0,0,13.372,7.677q1.236-.247.5-1.486-5.943-1.98-13.372-7.924a1.5,1.5,0,0,0-2.229,0,37.564,37.564,0,0,1-13.62,7.924h0Zm4.21,2.476v5.448q0,2.723,2.476,2.477h15.849q2.723,0.246,2.476-2.477v-5.448q0.247-2.475-2.476-2.476H631.2a2.188,2.188,0,0,0-2.476,2.476h0Zm19.316,4.953q0.246,1.733-1.486,1.486H631.7q-1.487.246-1.486-1.486v-4.458a1.313,1.313,0,0,1,1.486-1.485h14.858a1.313,1.313,0,0,1,1.486,1.485v4.458ZM659.43,630.4v6.439q0,2.971,2.476,2.724h2.477q-1.983,3.221-6.934,5.943-0.5,1.239.743,1.238a18.437,18.437,0,0,0,4.705-3.219h6.438a21.655,21.655,0,0,1-12.382,7.676q-0.743,1.238.5,1.486a23.288,23.288,0,0,0,13.62-9.162h5.448q-4.458,7.924-14.858,11.639-0.744.989,0.247,1.485,11.391-3.714,16.344-13.124h2.972a1.313,1.313,0,0,1,1.485,1.486,37.626,37.626,0,0,1-.247,4.952q-0.251,3.465-2.229,4.458a7.459,7.459,0,0,1-6.191-.743q-1.485.246-.743,1.486a11.031,11.031,0,0,0,7.677.742q2.722-1.485,2.972-5.448a49.5,49.5,0,0,0,.247-5.7,2.452,2.452,0,0,0-2.476-2.724H664.135a8.1,8.1,0,0,0,1.981-2.476h13.372q2.971,0.249,2.724-2.724V630.4q0.247-2.475-2.724-2.724H661.906a2.45,2.45,0,0,0-2.476,2.724h0Zm21.3,0.248v2.228h-19.81v-2.228a1.313,1.313,0,0,1,1.485-1.486h16.592q1.978,0,1.733,1.486h0Zm0,5.943q0.247,1.736-1.485,1.486H662.4q-1.485.249-1.485-1.734v-1.981h19.81v2.229Z" transform="translate(-339.406 -549.031)"/>
</svg>
