<svg id="S2_text" xmlns="http://www.w3.org/2000/svg" width="408.156" height="108.062" viewBox="0 0 408.156 108.062">
  <defs>
    <style>
      .cls-1 {
        fill: #f78973;
      }

      .cls-1, .cls-2 {
        fill-rule: evenodd;
      }

      .cls-2 {
        fill: #cfcbcf;
      }
    </style>
  </defs>
  <path id="发现" class="cls-1" d="M482.488,560.421h-9.61q-1.923.387-1.153-1.922l1.922-6.918q-0.771-1.92-2.306-.385l-2.307,7.688q-1.152,4.228,3.844,3.843H482.1a58.4,58.4,0,0,1-17.3,28.06q-0.387,1.918,1.538,1.537a55.752,55.752,0,0,0,15.375-21.14h1.153a45.237,45.237,0,0,0,8.456,13.837q-5.766,4.613-15.375,7.688-1.153,1.919.769,2.306,10.379-3.459,16.528-8.456,8.456,6.918,15.375,8.456,1.918-.769.385-2.306a37.591,37.591,0,0,1-13.838-7.688,31.409,31.409,0,0,0,8.841-12.3q1.536-3.841-3.46-3.843H482.488a62.975,62.975,0,0,0,1.921-6.151h23.447q1.92-1.152,0-2.306H484.794a93.137,93.137,0,0,0,1.537-10.378q-1.152-1.918-2.306,0a93.372,93.372,0,0,1-1.537,10.378h0Zm11.531-7.687a65.706,65.706,0,0,1,9.225,5.765q2.305,0.389,1.537-1.922a65.706,65.706,0,0,0-9.225-5.765q-2.692-.383-1.537,1.922h0Zm-8.841,18.45h13.838q3.459,0,2.306,1.922a35.654,35.654,0,0,1-8.072,10.378,60.03,60.03,0,0,1-8.072-12.3h0ZM514.391,553.5h6.919V567.34h-6.919q-1.54,1.154,0,2.306h6.919v15.375a62.449,62.449,0,0,1-6.535,2.307q-1.54,1.918.769,2.306a78.3,78.3,0,0,0,16.144-6.535q1.154-1.918-.769-2.306a39.45,39.45,0,0,1-7.3,3.46V569.646h6.15a1.441,1.441,0,0,0,0-2.306h-6.15V553.5h6.919q1.536-1.152,0-2.306H514.391a1.441,1.441,0,0,0,0,2.306h0Zm19.219,1.538v23.831q1.152,1.924,2.306,0V555.809a2.039,2.039,0,0,1,2.306-2.307h10.763q2.69,0,2.306,2.307v23.062q1.153,1.541,2.306,0V555.04q0.384-3.843-3.844-3.844h-12.3q-3.846,0-3.843,3.844h0Zm8.456,14.606q0.765,22.68-16.528,22.294-1.541,1.153,0,2.306,19.215,0,18.834-24.6v-9.994a1.442,1.442,0,0,0-2.306,0v9.994Zm8.456,22.294q-3.077.382-3.075-3.075V574.259q-1.154-1.536-2.306,0v15.375q0,5,4.612,4.612H553.6q5,0.766,4.613-10.762-1.154-1.536-2.306,0,0.382,9.225-2.691,8.456h-2.691Z" transform="translate(-307.688 -549.094)"/>
  <path id="汇集精选资讯_发现有趣商品" data-name="汇集精选资讯，发现有趣商品" class="cls-2" d="M308.724,629.159q2.229,1.485,5.448,3.714,1.236,0,.743-1.238a61.637,61.637,0,0,0-5.448-3.714q-1.486,0-.743,1.238h0Zm8.42,2.229v20.8q0,2.723,2.723,2.476h15.6a0.806,0.806,0,0,0,0-1.486H320.115q-1.485.248-1.486-1.485V631.388a1.314,1.314,0,0,1,1.486-1.486h14.363a0.805,0.805,0,0,0,0-1.486H319.867q-2.724,0-2.723,2.972h0Zm-9.163,5.695q3.465,1.983,6.191,3.715,1.485,0.249.743-1.238a44.186,44.186,0,0,0-6.191-3.715q-1.239,0-.743,1.238h0Zm-0.248,16.839q-0.249,1.486,1.239.991a41.865,41.865,0,0,0,6.933-9.9q0-1.486-1.238-.743a36.844,36.844,0,0,1-6.934,9.657h0Zm31.45-19.315q-0.5,1.485.991,1.238l2.476-2.229v11.639q0.743,1.239,1.486,0v-0.99h22.287q1.236-.744,0-1.486H354.536v-2.724h10.9q1.236-.742,0-1.486h-10.9v-2.724h10.9q1.236-.743,0-1.486h-10.9v-2.476h10.9q1.236-.743,0-1.486h-9.905a36.6,36.6,0,0,0-1.486-3.467q-1.239-.99-1.486.5a22.628,22.628,0,0,1,1.238,2.972h-8.171l2.228-2.972q0.247-1.485-1.238-.742a40.864,40.864,0,0,1-7.429,7.924h0Zm13.868-.248h-8.915v-2.476h8.915v2.476Zm0,4.21h-8.915v-2.724h8.915v2.724Zm0,4.21h-8.915v-2.724h8.915v2.724Zm-12.877,5.448h11.143a36.489,36.489,0,0,1-11.886,6.191q-0.993,1.236.5,1.485a36.733,36.733,0,0,0,13.125-7.181V655.9q0.743,1.486,1.485,0v-7.676a32.746,32.746,0,0,0,11.887,7.676q1.732-.249.5-1.485a32.107,32.107,0,0,1-10.153-6.191h10.4q1.236-.744,0-1.486h-12.63v-1.486a0.8,0.8,0,0,0-1.485,0v1.486H340.174q-0.993.993,0,1.486h0Zm35.411-21.3v10.9h-4.457q-1.239.743,0,1.486h4.457a33.1,33.1,0,0,1-5.2,11.143q-0.249,1.24,1.238.743a32.675,32.675,0,0,0,3.962-7.181V655.9a0.805,0.805,0,0,0,1.486,0V642.779q1.236,2.478,2.724,5.7,1.236,0.744,1.238-.99-1.736-3.962-3.962-8.172h3.219q1.238-.742,0-1.486h-3.219v-10.9q-0.743-1.236-1.486,0h0Zm13.868,0V629.9h-6.934q-0.993.991,0,1.486h6.934v2.476h-6.439a0.929,0.929,0,0,0,0,1.486h6.439v2.476h-7.429a0.8,0.8,0,0,0,0,1.486h17.334q1.236-.742,0-1.486h-8.419V635.35h6.438q1.236-.744,0-1.486h-6.438v-2.476h7.429a0.806,0.806,0,0,0,0-1.486h-7.429V626.93a0.805,0.805,0,0,0-1.486,0h0Zm-11.639,9.163q0.246,1.485,1.486.5a62.4,62.4,0,0,0,2.229-7.181q-0.25-1.486-1.486-.5a36.191,36.191,0,0,1-2.229,7.182h0Zm-4.457.5q0.988,1.239,1.485-.248a58.4,58.4,0,0,0-1.733-7.429q-1.239-.989-1.486.5a63.252,63.252,0,0,1,1.734,7.181h0Zm9.162,7.429v11.391a0.805,0.805,0,0,0,1.486,0v-5.2h12.877v2.724q0.246,1.978-4.953.247-1.485.248-.495,1.486,7.179,2.229,6.934-1.238v-9.41q0.246-2.723-3.22-2.724h-9.905a2.408,2.408,0,0,0-2.724,2.724h0Zm14.363,0v0.991H384.005v-0.991a1.1,1.1,0,0,1,1.238-1.238H395.4q1.732,0,1.486,1.238h0Zm0,4.7H384.005v-2.229h12.877v2.229Zm23.278-16.839h-5.448a11.886,11.886,0,0,0,.743-3.467q-0.5-.99-1.486-0.248a18.385,18.385,0,0,1-3.962,9.163q0,1.485,1.238.99a32.527,32.527,0,0,0,2.971-4.952h5.944v5.943h-9.411a0.8,0.8,0,0,0,0,1.486H416.2q0.248,8.421-4.7,10.9-0.249,1.485.991,1.238,5.446-2.971,5.2-12.134h5.448v9.41q0,2.723,2.477,2.476h1.981q3.217,0.494,2.971-6.438a0.805,0.805,0,0,0-1.486,0q0.247,5.45-1.733,4.952H426.1q-1.486.25-1.486-1.485V640.8h6.191a0.805,0.805,0,0,0,0-1.486h-9.163v-5.943h7.925a0.806,0.806,0,0,0,0-1.486h-7.925v-4.458a0.8,0.8,0,0,0-1.485,0v4.458Zm-11.887,2.971q0.99,0.5,1.238-.742a74.717,74.717,0,0,0-3.962-6.934,0.892,0.892,0,0,0-1.238.99q1.485,2.48,3.962,6.686h0Zm-5.448,5.7H405.8q1.732,0,1.486,1.486v8.172a10.852,10.852,0,0,1-3.963,4.21q-0.495,1.236.743,1.238,1.486-.5,3.962-3.715Q411,656.4,415.7,655.9h15.353a0.8,0.8,0,0,0,0-1.485H415.95q-4.707.493-7.182-4.21v-8.667q0.248-2.477-2.476-2.477h-3.467a0.8,0.8,0,0,0,0,1.486h0Zm38.879-8.172q-0.5,1.486.99,0.991a29.313,29.313,0,0,0,3.22-3.22h4.457q-0.743,6.193-8.667,7.925-0.993,1.485.5,1.486,6.19-1.732,8.667-5.448a19.466,19.466,0,0,0,10.9,5.7q1.236-.494.248-1.486a19.854,19.854,0,0,1-10.648-5.943l0.5-2.229h6.934q1.978,0.25-1.734,3.22-0.5,1.239,1.238.99,6.19-5.694.743-5.7H446.9l0.743-.991q0.246-1.485-1.238-.99a24.648,24.648,0,0,1-4.7,5.7h0Zm-6.686,6.439q-0.744,1.239.5,1.485a33.5,33.5,0,0,0,7.429-4.705q0.494-1.236-.743-1.238a33.291,33.291,0,0,1-7.181,4.458h0Zm3.466,3.714v7.924a0.8,0.8,0,0,0,1.486,0v-7.429a1.313,1.313,0,0,1,1.486-1.485h14.858q1.732,0,1.486,1.485v7.429q0.743,1.24,1.486,0v-7.924q0.246-2.475-2.476-2.476H440.961q-2.229,0-2.477,2.476h0Zm9.411,0.991q0.494,9.411-11.392,10.9-1.239.989,0.248,1.485,13.373-1.982,12.629-12.381-0.743-1.236-1.485,0h0Zm2.724,7.429q5.446,2.475,10.4,4.952,1.486-.249.743-1.485-4.707-2.48-10.648-4.953-1.486.5-.495,1.486h0Zm-10.9-18.325q1.236,0.5,1.238-.991a25.462,25.462,0,0,0-4.21-4.21q-1.485,0-.99,1.239a45.259,45.259,0,0,1,3.962,3.962h0Zm27.982-4.458q2.229,2.229,3.715,3.962a0.892,0.892,0,0,0,.99-1.238q-0.992-1.236-3.714-3.962a0.892,0.892,0,0,0-.991,1.238h0Zm7.925,0.991h4.952V640.55h-5.448a0.8,0.8,0,0,0,0,1.486h5.448v13.372a0.805,0.805,0,0,0,1.486,0V642.036h4.953a0.805,0.805,0,0,0,0-1.486h-4.953V629.159h5.7A1.1,1.1,0,0,1,489,630.645q0,25.011,3.219,25.011,2.722,0.743,2.724-8.667a0.928,0.928,0,0,0-1.486,0q-0.249,8.172-1.238,6.438-1.736-4.208-1.733-23.278,0.246-2.475-2.477-2.476H475.63a0.8,0.8,0,0,0,0,1.486h0Zm-9.41,7.429h2.971q1.733,0,1.486,1.486v14.115q0,2.475,2.229,1.486a16.6,16.6,0,0,0,4.952-5.2q0.248-1.485-1.238-.99-4.211,5.943-4.457,3.962V637.578q0.246-2.475-2.476-2.476H466.22a0.8,0.8,0,0,0,0,1.486h0Zm33.43,15.849a1.72,1.72,0,0,0,.991.742q0.493,0,0,1.486a13.956,13.956,0,0,1-1.734,2.477,10.036,10.036,0,0,0,4.705-3.963,3.255,3.255,0,0,0,.248-3.219,3,3,0,0,0-4.457,0,1.961,1.961,0,0,0,.247,2.477h0Zm41.108-18.573h-6.191q-1.239.249-.743-1.238l1.238-4.458q-0.5-1.236-1.486-.247l-1.486,4.952q-0.742,2.726,2.477,2.477h5.943a37.627,37.627,0,0,1-11.144,18.077q-0.249,1.236.991,0.991a35.909,35.909,0,0,0,9.9-13.62h0.743a29.163,29.163,0,0,0,5.448,8.915,30.832,30.832,0,0,1-9.9,4.952q-0.743,1.236.5,1.486a33.747,33.747,0,0,0,10.648-5.448q5.448,4.458,9.906,5.448,1.236-.5.247-1.486a24.219,24.219,0,0,1-8.914-4.952,20.244,20.244,0,0,0,5.7-7.925q0.99-2.475-2.229-2.476H540.758A40.468,40.468,0,0,0,542,635.35H557.1q1.236-.744,0-1.486H542.243a59.821,59.821,0,0,0,.991-6.686q-0.742-1.236-1.486,0a60.034,60.034,0,0,1-.99,6.686h0Zm7.429-4.953a42.385,42.385,0,0,1,5.943,3.715q1.485,0.249.99-1.238a42.175,42.175,0,0,0-5.943-3.715q-1.736-.246-0.99,1.238h0Zm-5.7,11.887h8.915q2.229,0,1.486,1.238a22.966,22.966,0,0,1-5.2,6.686,38.688,38.688,0,0,1-5.2-7.924h0Zm18.82-11.391h4.458v8.914h-4.458a0.8,0.8,0,0,0,0,1.486h4.458v9.906a40.292,40.292,0,0,1-4.21,1.485q-0.993,1.238.5,1.486a50.415,50.415,0,0,0,10.4-4.21q0.742-1.236-.5-1.485a25.464,25.464,0,0,1-4.705,2.228v-9.41h3.962a0.929,0.929,0,0,0,0-1.486h-3.962v-8.914h4.457a0.805,0.805,0,0,0,0-1.486h-10.4a0.929,0.929,0,0,0,0,1.486h0Zm12.382,0.99V645.75q0.743,1.239,1.486,0V630.892a1.313,1.313,0,0,1,1.486-1.485H583.6q1.733,0,1.486,1.485V645.75a0.8,0.8,0,0,0,1.486,0V630.4q0.246-2.475-2.476-2.476h-7.925a2.188,2.188,0,0,0-2.476,2.476h0Zm5.448,9.41q0.494,14.611-10.648,14.363a0.8,0.8,0,0,0,0,1.486q12.379,0,12.134-15.849v-6.438a0.928,0.928,0,0,0-1.486,0v6.438Zm5.448,14.363q-1.981.246-1.981-1.981v-9.41a0.805,0.805,0,0,0-1.486,0v9.9q0,3.219,2.972,2.972h2.476q3.219,0.494,2.972-6.934a0.805,0.805,0,0,0-1.486,0q0.246,5.943-1.734,5.448h-1.733ZM603.162,629.9h-9.906q-1.239.743,0,1.486h9.163q-2.971,4.211-10.4,8.419-0.743,1.239.743,1.238a19.708,19.708,0,0,0,4.953-2.971v17.334q0.742,1.236,1.485,0v-6.686h17.83v3.715q0.247,1.978-1.981,1.981a9.378,9.378,0,0,1-3.467-.991q-1.239.493-.5,1.486a15.762,15.762,0,0,0,4.21.99q3.714-.249,3.219-3.466V637.826q0.246-2.475-2.476-2.476H600.933q1.236-1.236,3.467-3.962h16.591a0.805,0.805,0,0,0,0-1.486H605.143l1.238-2.229q0-1.236-1.238-.743Zm13.867,11.391H599.2v-2.972a1.313,1.313,0,0,1,1.486-1.485h14.858q1.732,0,1.486,1.485v2.972Zm0,5.943H599.2v-4.457h17.83v4.457Zm12.63-20.306V629.9H625.2a0.8,0.8,0,0,0,0,1.486h4.458v4.457h-4.953a0.8,0.8,0,0,0,0,1.486h4.953v12.134a15.475,15.475,0,0,1-1.982-2.972v-7.181a0.8,0.8,0,0,0-1.485,0v5.2a22.14,22.14,0,0,1-2.229,10.649q-0.249,1.485,1.238.99a25.622,25.622,0,0,0,2.229-7.181,14.917,14.917,0,0,0,12.877,6.686h12.629a0.805,0.805,0,0,0,0-1.486H641.05q-6.193.246-9.906-3.467v-6.438h3.467a0.805,0.805,0,0,0,0-1.486h-3.467v-5.448h3.962a0.805,0.805,0,0,0,0-1.486h-3.962v-4.457h3.467a0.929,0.929,0,0,0,0-1.486h-3.467V626.93a0.8,0.8,0,0,0-1.485,0h0Zm4.952,2.477H636.1v20.306l-2.476.742c-0.5.827-.331,1.32,0.5,1.486q3.217-.988,7.429-2.228v3.466q0.742,1.238,1.486,0V629.407h8.915a0.806,0.806,0,0,0,0-1.486H634.611a0.929,0.929,0,0,0,0,1.486h0Zm6.934,5.447h-3.962v-5.447h3.962v5.447Zm2.476-1.485h5.2q1.732,0,1.485,1.238a37.826,37.826,0,0,1-1.981,8.172q-1.981-4.952-3.219-7.677-1.239-.493-1.238.991,1.236,2.724,3.714,8.915a36.538,36.538,0,0,1-3.962,6.438c-0.166.991,0.248,1.319,1.238,0.991a42.252,42.252,0,0,0,3.715-5.944q1.486,3.468,2.229,5.7,1.236,1.236,1.486-.5-0.993-2.476-2.972-7.182a43.487,43.487,0,0,0,2.476-9.9q0.247-2.722-2.476-2.724h-5.7a0.8,0.8,0,0,0,0,1.486h0Zm-2.476,7.924h-3.962V636.34h3.962v4.953Zm0,6.934-3.962.99v-6.438h3.962v5.448Zm26.992-19.811a16.4,16.4,0,0,1,1.981,2.476H656.4a0.8,0.8,0,0,0,0,1.486h6.439a52.189,52.189,0,0,1,2.971,4.458H659.87a2.188,2.188,0,0,0-2.476,2.476v16.1q0.743,1.236,1.485,0v-15.6a1.314,1.314,0,0,1,1.486-1.486h20.306a1.314,1.314,0,0,1,1.486,1.486v13.62q0.493,2.229-4.21.743a0.963,0.963,0,0,0-.247,1.733,6.92,6.92,0,0,0,3.219.5q2.971,0.246,2.724-2.724V639.312q0.246-2.475-2.476-2.476h-5.7a44.537,44.537,0,0,0,2.724-4.458h6.438q1.237-.742,0-1.486H672.5q-1.485-1.979-2.724-3.467c-0.99-.328-1.4,0-1.238.991h0Zm7.924,3.962a29.019,29.019,0,0,1-2.724,4.458h-6.19a52.39,52.39,0,0,0-2.972-4.458h11.886Zm-13.619,14.363V650.7q0.246,2.723,2.476,2.476h10.4q2.721,0.494,2.476-2.476v-3.962q0.246-2.475-2.476-2.476h-10.4a2.188,2.188,0,0,0-2.476,2.476h0Zm13.867,0.5v2.972c0.165,1.157-.331,1.65-1.486,1.486h-9.41c-0.99.164-1.486-.329-1.486-1.486v-2.972a1.314,1.314,0,0,1,1.486-1.486h9.41q1.733,0,1.486,1.486h0Zm-16.591-4.21q-0.993,1.24.247,1.486a22.635,22.635,0,0,0,7.429-3.962q0.494-1.485-.99-1.238a17.55,17.55,0,0,1-6.686,3.714h0Zm19.81,1.734a0.892,0.892,0,0,0,.991-1.238q-2.726-1.98-6.686-4.458-1.486.25-.743,1.486,2.229,1.239,6.438,4.21h0ZM691.567,629.9v6.191q0,2.971,2.477,2.724h15.6q2.971,0.249,2.723-2.724v-5.944q0.247-2.721-2.971-2.724H694.044q-2.48.251-2.477,2.477h0Zm19.316,0.5v5.448q0.246,1.735-1.486,1.486H694.539q-1.486.249-1.486-1.486V630.4a1.314,1.314,0,0,1,1.486-1.486H709.4q1.732,0,1.486,1.486h0ZM688.6,643.769v9.163q0,2.971,2.724,2.724H698.5q2.723,0.246,2.476-2.477v-9.162q0.248-2.723-2.724-2.724H691.32q-2.726,0-2.724,2.476h0Zm14.858,0.248v9.162q0,2.723,2.476,2.477h7.429q2.722,0.246,2.476-2.724v-9.163q0.247-2.475-2.476-2.476H705.93q-2.478,0-2.476,2.724h0Zm-3.962.248v8.667q0.246,1.485-1.486,1.238h-6.439q-1.485.246-1.486-1.486v-8.419a1.314,1.314,0,0,1,1.486-1.486h6.439q1.732,0,1.486,1.486h0Zm14.858,0v8.419q0.246,1.733-1.239,1.486h-6.686q-1.485.246-1.486-1.486v-8.419a1.314,1.314,0,0,1,1.486-1.486h6.439q1.732,0,1.486,1.486h0Z" transform="translate(-307.688 -549.094)"/>
</svg>
