<svg id="S3_coupon3" xmlns="http://www.w3.org/2000/svg" width="138.719" height="66.375" viewBox="0 0 138.719 66.375">
  <defs>
    <style>
      .cls-1 {
        fill: #a4db8f;
        opacity: 0.67;
      }

      .cls-1, .cls-2, .cls-3, .cls-4 {
        fill-rule: evenodd;
      }

      .cls-2 {
        fill: #f78973;
      }

      .cls-3 {
        fill: #ffec90;
      }

      .cls-4 {
        fill: #fff;
      }
    </style>
  </defs>
  <path id="形状_50" data-name="形状 50" class="cls-1" d="M453.5,285s-3.5,37.167-.5,34.5L581,318l-0.5-26S453.833,281,453.5,285Z" transform="translate(-451.781 -253.25)"/>
  <path id="圆角矩形_3_拷贝" data-name="圆角矩形 3 拷贝" class="cls-2" d="M455.457,254.241l133.06-.98a2,2,0,0,1,1.985,2.015l-0.422,56.5a2,2,0,0,1-2.014,1.985l-133.06.98a2,2,0,0,1-1.985-2.015l0.421-56.5A2,2,0,0,1,455.457,254.241Z" transform="translate(-451.781 -253.25)"/>
  <path id="分期免息" class="cls-3" d="M472.619,275.6c0.335-.137.295-0.354-0.019-0.413a7.831,7.831,0,0,1-2-.727,18.039,18.039,0,0,1-1.474,3.2,15.479,15.479,0,0,1-4.541,5.032,6.437,6.437,0,0,1,1.533,1.356,28.2,28.2,0,0,0,5.465-7.292A1.73,1.73,0,0,1,472.619,275.6Zm9.966,5.956a10.8,10.8,0,0,1-4.187-2.929,11.432,11.432,0,0,1-2.024-4.442l-1.651.334a15.433,15.433,0,0,0,2.221,5.111,18.25,18.25,0,0,0,4.187,3.872A7,7,0,0,1,482.585,281.558Zm-11.518,1.985a7.891,7.891,0,0,1-1.3,4.01,9.3,9.3,0,0,1-4.245,3.106,4.758,4.758,0,0,1,1.808,1.3,10.78,10.78,0,0,0,4.01-3.774,9.865,9.865,0,0,0,1.356-4.639h4.4l-0.393,4.561c-0.157,1.749-.727,2-2.909,1.788a4.84,4.84,0,0,1,.9,2.1c2.772-.394,3.46-0.806,3.6-2.418l0.668-7.646c-0.9.039-3.97,0.078-6.447,0.078a33.989,33.989,0,0,1-4.088-.157v1.828A16.148,16.148,0,0,1,471.067,283.543Zm17.87,4.836c0.177-.059.2-0.177-0.039-0.236a5.139,5.139,0,0,1-1.593-.747,7.526,7.526,0,0,1-2.771,3.342,3.228,3.228,0,0,1,1.474.747C487.9,289.165,488.426,288.575,488.937,288.379Zm4.088,0.688a11.407,11.407,0,0,0-1.828-1.828l-1.14.845a5.751,5.751,0,0,1,1.73,1.966Zm3.106-3.342h3.283v3.558c0,0.845-.2.924-1.887,0.786a3.147,3.147,0,0,1,.55,1.809c2.673-.217,2.791-0.472,2.791-1.868V277.666a17.709,17.709,0,0,1,.157-2.555,26.286,26.286,0,0,1-3.3.157,23.107,23.107,0,0,1-3.086-.157,19.385,19.385,0,0,1,.157,2.555v4.423c0,4.481-.412,6.7-2.594,9.1a3.4,3.4,0,0,1,1.435.806A12.163,12.163,0,0,0,496.131,285.725Zm3.283-5.936h-3.2v-3.2h3.2v3.2Zm-3.2,1.238h3.2v3.48h-3.2v-3.48Zm-9.534-4.186a15.483,15.483,0,0,1-1.67-.158v1.671a15.742,15.742,0,0,1,1.67-.157v7.646a12.054,12.054,0,0,1-1.749-.177v1.494a28.384,28.384,0,0,1,4.482-.177,27.53,27.53,0,0,1,4.442.177v-1.494c-0.433.079-.865,0.118-1.337,0.158V278.2c0.472,0.039.944,0.079,1.4,0.157v-1.671a10.821,10.821,0,0,1-1.4.138v-1.3a0.654,0.654,0,0,1,.334-0.629c0.177-.138.158-0.295-0.176-0.315a9.48,9.48,0,0,1-1.632-.216,10.577,10.577,0,0,1,.157,2.477h-3.2v-1.4a0.71,0.71,0,0,1,.217-0.629c0.176-.157.117-0.275-0.138-0.255a7.537,7.537,0,0,1-1.592-.138A9.817,9.817,0,0,1,486.676,276.841Zm1.317,7.135h3.2v1.867h-3.2v-1.867Zm0-4.069v-1.73h3.2v1.73h-3.2Zm3.2,1.12V282.9h-3.2v-1.868h3.2Zm22.942-.2H518.4v2.909h-4.639A18.8,18.8,0,0,0,514.139,280.831Zm-1.907,2.909H508.38v-2.909h4.108A14.079,14.079,0,0,1,512.232,283.74Zm-1.336-7.764a3.4,3.4,0,0,1,1.218-.983c0.354-.1.334-0.354,0.04-0.374a5.676,5.676,0,0,1-1.986-.511,14.712,14.712,0,0,1-6.152,5.76,5.052,5.052,0,0,1,1.494,1.022c0.393-.295.806-0.61,1.238-0.963v3.538c0,0.55-.02,1.2-0.039,1.592,1.474-.039,3.046-0.039,5.189-0.039-0.885,2.5-3.754,4.639-7.214,5.13a7.367,7.367,0,0,1,1.573,1.553c4.442-1.927,6.447-4.03,7.214-6.683h0.117v4.933c0,1.2.472,1.494,3.814,1.494,3.636,0,3.774-.236,4.344-2.968a3.81,3.81,0,0,1-1.75-.943c-0.118,2.378-.393,2.634-2.751,2.634-1.828,0-2.123-.177-2.123-0.983v-4.167c2,0,3.577.019,4.973,0.078-0.059-.806-0.059-4.226,0-5.68-1.494.078-2.87,0.118-4.855,0.118l1.69-2.222c0.491-.648.9-1.14,1.14-1.4-0.531.039-1.337,0.059-3.5,0.059H510.9Zm2.712,3.558H507.22a35.63,35.63,0,0,0,2.673-2.438h5.425Zm14.352,4.344v-1.4h9.16v1.4h-9.16Zm0-2.595v-1.415h9.16v1.415h-9.16Zm0-2.6v-1.415h9.16v1.415h-9.16Zm-1.1,8.472-1.73-.255a10.723,10.723,0,0,1-1.435,3.911l1.77,0.492A32.176,32.176,0,0,1,526.859,287.16Zm10.85,2a2.59,2.59,0,0,1-1.611-1.14c-0.354,1.494-.57,1.769-1.376,1.946a22.64,22.64,0,0,1-3.421.236c-1.336,0-1.454-.256-1.454-0.865v-2.1a0.623,0.623,0,0,1,.255-0.61c0.256-.2.2-0.353-0.157-0.294a8.633,8.633,0,0,1-1.867-.138,7.028,7.028,0,0,1,.177,1.71v1.71c0,1.573.471,1.73,1.454,1.828a29.409,29.409,0,0,0,6.094-.2C536.825,291.052,536.943,290.9,537.709,289.165Zm3.7-.1c-1.14-1.2-1.671-1.73-2.87-2.949L537.1,287.18a14.116,14.116,0,0,1,2.89,3.184Zm-6.585-1.022c-0.629-1-.845-1.337-1.494-2.32l-1.592.747a6.762,6.762,0,0,1,1.336,2.359Zm-5.189-12.03a29.826,29.826,0,0,1-3.322-.177c0.059,0.551.118,1.789,0.118,3.067v3.262c0,0.806-.04,2.281-0.118,3.145a43.2,43.2,0,0,1,6.191-.176c3.185,0,5.5.078,6.33,0.176a27.184,27.184,0,0,1-.118-3.145V278.9a28.48,28.48,0,0,1,.118-3.067c-0.845.1-3.42,0.177-7.647,0.177a3.02,3.02,0,0,1,1.042-1.572c0.315-.217.256-0.354-0.1-0.354a10.625,10.625,0,0,1-2-.413A21.194,21.194,0,0,1,529.631,276.015Z" transform="translate(-451.781 -253.25)"/>
  <path id="形状_139_拷贝" data-name="形状 139 拷贝" class="cls-4" d="M582.1,287.447a5.016,5.016,0,0,1-5.02,5.012l-27.106-.009a5.017,5.017,0,0,1-5.019-5.015v-3.289c-1.17-1-2.584-2.227-2.509-2.227s1.4-.835,2.509-1.541v-3.471a5.017,5.017,0,0,1,5.02-5.013l27.1,0.009a5.018,5.018,0,0,1,5.02,5.015v10.529Z" transform="translate(-451.781 -253.25)"/>
  <path id="白条" class="cls-2" d="M554.03,282.548l0-2.442,6.157,0.014,0,2.443Zm6.155,0.929,0,2.443-6.157-.014,0-2.443Zm-5.027-4.283c-0.735,0-1.446-.04-2.313-0.114a12.607,12.607,0,0,1,.139,2.323l-0.008,4.079a19.946,19.946,0,0,1-.138,2.539l1.181,0,0-1.216,6.157,0.015,0,1.059,1.216,0a21.044,21.044,0,0,1-.127-2.419l0.008-4.043a13.13,13.13,0,0,1,.15-2.322c-0.808.058-1.952,0.1-2.615,0.1l-2.638-.006a2.846,2.846,0,0,1,.774-1.527c0.265-.143.241-0.24,0.085-0.252a8.563,8.563,0,0,1-1.566-.28A6.652,6.652,0,0,1,555.158,279.194Zm19.187,7.589c-0.926-.531-2.274-1.317-3.2-1.86l-0.76.684a19.519,19.519,0,0,1,3.1,2.029Zm-6.816-1.315c0.181,0.012.193-.168-0.012-0.217a2.726,2.726,0,0,1-.975-0.556,6.891,6.891,0,0,1-2.956,2.124,2.171,2.171,0,0,1,.854.8c0.422-.264,1.364-0.984,2.413-1.824A0.96,0.96,0,0,1,567.529,285.468Zm2.086-1.1c1.771,0.017,2.928.055,3.952,0.13l0-1.071c-1.024.07-2.181,0.1-3.952,0.111v-0.493a0.4,0.4,0,0,1,.182-0.433c0.217-.084.205-0.192-0.108-0.193a7.925,7.925,0,0,1-1.145-.123,11.228,11.228,0,0,1,.07,1.24c-1.927,0-3.132-.044-4.228-0.13l0,1.071c1.085-.082,2.3-0.115,4.229-0.111l0,2.275c0,0.409-.062.445-1.579,0.237a2.291,2.291,0,0,1,.515,1.24c1.953-.272,2.061-0.392,2.063-1.174Zm-0.512-2.756a14.565,14.565,0,0,0,4.756,1.31,3.146,3.146,0,0,1,.666-1.25,9.826,9.826,0,0,1-4.433-.576,9.425,9.425,0,0,0,2.922-2.785c-0.506.023-1.651,0.02-3.651,0.016l-1.747,0a1.9,1.9,0,0,1,.833-0.768c0.241-.048.217-0.18-0.012-0.217-0.349-.061-0.746-0.158-1.24-0.292a6.493,6.493,0,0,1-3.031,3.206,2.516,2.516,0,0,1,.879.592,9.672,9.672,0,0,0,1.641-1.38,8.8,8.8,0,0,0,1.587,1.616,13.464,13.464,0,0,1-4.508.976,1.753,1.753,0,0,1,.552,1A20.365,20.365,0,0,0,569.1,281.609Zm0.111-.963a8.123,8.123,0,0,1-1.816-1.532l3.686,0.008A4.895,4.895,0,0,1,569.214,280.646Z" transform="translate(-451.781 -253.25)"/>
</svg>
