<svg id="S3_coupon4" xmlns="http://www.w3.org/2000/svg" width="141.688" height="74.062" viewBox="0 0 141.688 74.062">
  <defs>
    <style>
      .cls-1 {
        fill: #ef7961;
        opacity: 0.75;
      }

      .cls-1, .cls-2, .cls-3, .cls-4 {
        fill-rule: evenodd;
      }

      .cls-2 {
        fill: #ffec90;
      }

      .cls-3 {
        fill: #f78973;
      }

      .cls-4 {
        fill: #fff;
      }
    </style>
  </defs>
  <path id="形状_43" data-name="形状 43" class="cls-1" d="M453.5,269.5l116-9s3.25,0.667,3-7l-119,8v8Z" transform="translate(-430.812 -195.438)"/>
  <path id="圆角矩形_3" data-name="圆角矩形 3" class="cls-2" d="M432.692,206.183l132.629-10.735a2,2,0,0,1,2.128,1.864l3.723,56.377a2,2,0,0,1-1.864,2.128L436.679,266.552a2,2,0,0,1-2.128-1.864l-3.723-56.377A2,2,0,0,1,432.692,206.183Z" transform="translate(-430.812 -195.438)"/>
  <path id="_9元9" data-name="9元9" class="cls-3" d="M454.413,245.563a7.214,7.214,0,0,0,5,1.2,8.477,8.477,0,0,0,6.541-3.678q2.353-3.333,1.774-10.376-0.57-6.919-3.324-9.736a8.43,8.43,0,0,0-12.376.384,8.686,8.686,0,0,0-1.8,6.489,8.556,8.556,0,0,0,2.7,5.907,6.958,6.958,0,0,0,5.421,1.908,5.9,5.9,0,0,0,4.466-2.537q0.065,4.44-.888,5.929a3.186,3.186,0,0,1-2.478,1.615,2.713,2.713,0,0,1-2-.541,3.454,3.454,0,0,1-1.088-2.08l-4.722.918A7.758,7.758,0,0,0,454.413,245.563Zm6.778-12.895a3.054,3.054,0,0,1-2.3,1.318,3.085,3.085,0,0,1-2.548-.963,5.629,5.629,0,0,1-1.282-3.572,5.507,5.507,0,0,1,.612-3.6,2.845,2.845,0,0,1,2.18-1.264,3.24,3.24,0,0,1,2.639,1.1,5.637,5.637,0,0,1,1.4,3.606A4.912,4.912,0,0,1,461.191,232.668Zm15.985,4.089,2.152-.177,0.542,6.581c0.118,1.435.581,1.794,3.45,1.558,2.78-.229,3.239-0.574,3.787-3.345a2.514,2.514,0,0,1-1.661-.875c-0.272,2.171-.51,2.57-2.142,2.7s-1.816.1-1.879-.675l-0.5-6.08c1.74-.143,3.609-0.243,4.53-0.246l-0.135-1.632c-1,.154-2.966.371-7.073,0.709-4.088.336-6.03,0.442-7.076,0.456l0.135,1.631c0.87-.179,2.554-0.336,4.239-0.475,0.464,4.53-.5,6.4-4.056,8.188a4.145,4.145,0,0,1,1.538,1.353C476.388,243.845,477.691,241.914,477.176,236.757Zm6.3-4.834-0.141-1.7c-1.209.226-3.268,0.431-5.492,0.614s-4.182.29-5.429,0.285l0.141,1.7c1.212-.19,3.234-0.41,5.457-0.593S482.286,231.931,483.477,231.923Zm8.291,10.566a7.214,7.214,0,0,0,5,1.2,8.475,8.475,0,0,0,6.541-3.678q2.353-3.333,1.774-10.376-0.57-6.919-3.324-9.735a8.429,8.429,0,0,0-12.376.383,8.687,8.687,0,0,0-1.8,6.489,8.556,8.556,0,0,0,2.7,5.907,6.961,6.961,0,0,0,5.422,1.909,5.9,5.9,0,0,0,4.465-2.537q0.065,4.439-.888,5.928A3.179,3.179,0,0,1,496.8,239.6a2.71,2.71,0,0,1-2-.54,3.457,3.457,0,0,1-1.088-2.08l-4.722.918A7.762,7.762,0,0,0,491.768,242.489Zm6.779-12.9a3.148,3.148,0,0,1-4.848.354,5.626,5.626,0,0,1-1.282-3.572,5.514,5.514,0,0,1,.612-3.6,2.845,2.845,0,0,1,2.18-1.264,3.244,3.244,0,0,1,2.64,1.106,5.64,5.64,0,0,1,1.4,3.606A4.919,4.919,0,0,1,498.547,229.594Z" transform="translate(-430.812 -195.438)"/>
  <path id="形状_139" data-name="形状 139" class="cls-3" d="M545.881,234.44L519,236.938a5,5,0,0,1-5.442-4.516l-0.3-3.266c-1.254-.888-2.768-1.972-2.695-1.979s1.312-.959,2.347-1.763l-0.32-3.447a5,5,0,0,1,4.516-5.441l26.884-2.5a5,5,0,0,1,5.441,4.516L550.4,229A5,5,0,0,1,545.881,234.44Z" transform="translate(-430.812 -195.438)"/>
  <path id="包邮" class="cls-4" d="M522.333,226.035l3.311-.3,0.159,1.757-3.31.3Zm0.532-3.157a2.7,2.7,0,0,1,.816-0.966c0.182-.125.165-0.184-0.007-0.217a6.558,6.558,0,0,1-1.395-.367,5.254,5.254,0,0,1-.671,1.905,8.021,8.021,0,0,1-2.026,2.63,6.654,6.654,0,0,1,1.019.739c0.217-.261.453-0.583,0.7-0.943l0.4,4.386c0.149,1.638.408,2.1,4.9,1.688,3.454-.314,3.6-0.424,4.1-2.229a2.093,2.093,0,0,1-1.252-.512c-0.082,1.477-.311,1.606-2.965,1.848-3.514.319-3.7,0.083-3.778-.729l-0.134-1.482,3.143-.286c0.813-.074.957-0.075,1.173-0.083-0.055-.344-0.145-1.071-0.207-1.752s-0.1-1.413-.112-1.762a12.316,12.316,0,0,1-1.4.2l-3.621.33a15.085,15.085,0,0,0,.863-1.513l5.653-.514,0.245,3.894c0.047,0.779-.027.9-1.2,0.953a2.551,2.551,0,0,1,.572,1.129c1.53-.4,1.732-0.567,1.678-1.827l-0.186-3.9a10.371,10.371,0,0,1-.008-1.277,19.979,19.979,0,0,1-2.012.268Zm19.438,4.391a4.1,4.1,0,0,0-1.573-2.858l0.747-3.984a18.392,18.392,0,0,1-1.846.24c-0.837.076-1.461,0.108-1.919,0.1a11.075,11.075,0,0,1,.205,1.463l0.589,6.478c0.083,0.909.118,1.568,0.13,2.362l0.98-.089-0.855-9.406,1.578-.143L539.9,224.6a3.769,3.769,0,0,1,1.362,2.515c0.033,0.768-.164.979-1.3,1.046a2.959,2.959,0,0,1,.6,1.175C541.974,228.949,542.3,228.51,542.3,227.269Zm-5.631,1.15-1.291.117-0.213-2.342,1.291-.117Zm-3.367,1.138,3.442-.313,0.1,1.052,0.969-.088c-0.111-.689-0.165-1.142-0.239-1.967l-0.434-4.769c-0.041-.454-0.066-0.994-0.063-1.356a13.734,13.734,0,0,1-2.249.313l-0.121-1.327a0.969,0.969,0,0,1,.117-0.709c0.13-.156.086-0.249-0.058-0.236-0.335.031-.767,0.046-1.129,0.043a22.758,22.758,0,0,1,.307,2.309,16.035,16.035,0,0,1-2.257.1,10.144,10.144,0,0,1,.194,1.344l0.463,5.092a17.535,17.535,0,0,1,.084,1.98l1-.091Zm-0.288-3.168,1.267-.115,0.213,2.343-1.267.115Zm1-3.055,0.194,2.128-1.267.115-0.193-2.128Zm2.369,1.93-1.291.117-0.193-2.127,1.291-.118Z" transform="translate(-430.812 -195.438)"/>
</svg>
