<svg id="S3_coupon1" xmlns="http://www.w3.org/2000/svg" xmlns:xlink="http://www.w3.org/1999/xlink" width="144.5" height="25.5" viewBox="0 0 144.5 25.5">
  <defs>
    <style>
      .cls-1 {
        fill: #f47258;
        filter: url(#filter);
      }

      .cls-1, .cls-2, .cls-3 {
        fill-rule: evenodd;
      }

      .cls-2 {
        fill: #f78973;
      }

      .cls-3 {
        fill: #fff;
      }
    </style>
    <filter id="filter" x="439.5" y="323.5" width="144.5" height="24.5" filterUnits="userSpaceOnUse">
      <feOffset result="offset" dy="1" in="SourceAlpha"/>
      <feGaussianBlur result="blur"/>
      <feFlood result="flood" flood-color="#322c4f"/>
      <feComposite result="composite" operator="in" in2="blur"/>
      <feBlend result="blend" in="SourceGraphic"/>
    </filter>
  </defs>
  <path id="矩形_1" data-name="矩形 1" class="cls-1" d="M455.5,323.5H565L584,347H439.5Z" transform="translate(-439.5 -322.5)"/>
  <path id="矩形_1_拷贝" data-name="矩形 1 拷贝" class="cls-2" d="M455.5,322.5H565L584,346H439.5Z" transform="translate(-439.5 -322.5)"/>
  <path id="专享优惠" class="cls-3" d="M466.14,336.633c-2.148.019-5.911-.009-7.607-0.056l-0.013.8c1.538-.028,4.826-0.046,7.026-0.056a2.791,2.791,0,0,1-1.688,1.1,2.075,2.075,0,0,1,.731.7c0.479-.056,2.07-0.112,3.369-0.112h5.911l-4.526,1.217c-1.3-.2-2.83-0.412-4.522-0.646l-1.336.618c4.339,0.543,8.383,1.292,11.5,1.975l1.549-.749c-1.453-.281-3.039-0.562-5.1-0.88l4.314-1.2a11.6,11.6,0,0,1,2.682-.309l0.013-.805c-0.823.066-2.361,0.094-3.183,0.094h-8.376c0.324-.365.594-0.7,0.864-1h7.82c2.041,0,4.029.019,5.884,0.056l0.012-.8c-1.829.037-3.844,0.056-5.885,0.056h-7.21c0.4-.468.755-0.852,1.026-1.17h5.142c1.617,0,3.207.028,4.638,0.084l0.013-.833c-1.432.056-3.023,0.084-4.64,0.084h-4.56a2.53,2.53,0,0,1,1.129-.964c0.506-.14.507-0.2-0.182-0.243-0.529-.038-1.932-0.169-2.541-0.244a6.023,6.023,0,0,1-.844,1.451c-1.723,0-5.142-.037-6.52-0.084l-0.013.833c1.246-.037,4.242-0.075,6.045-0.084C466.762,335.847,466.464,336.24,466.14,336.633Zm36.264,0.14H490.953l0.01-.636h11.451Zm2.217,0.637c-0.022-.318-0.044-0.609-0.039-0.927a5.83,5.83,0,0,1,.069-0.983c-2.015.038-4.056,0.047-7.927,0.047-3.79,0-5.99-.009-7.978-0.047a2.829,2.829,0,0,1,.117.983,3.436,3.436,0,0,1-.147.917c1.962-.028,4.189-0.028,7.979-0.028C500.513,337.372,502.633,337.382,504.621,337.41Zm-6.446-3.033a2.6,2.6,0,0,0-.489-0.936l-2.785.122a3.273,3.273,0,0,1,.7.814c-4.082-.009-7.607-0.037-10.018-0.1l-0.013.805c2.811-.065,5.7-0.094,10.949-0.094s8.138,0.029,10.947.094l0.012-.805C505.2,334.33,501.912,334.368,498.175,334.377Zm-0.251,5.747c4.135,0,7.528.038,9.912,0.094l0.014-.824c-2.387.056-5.78,0.085-9.916,0.094l0-.187,3.958-.506c0.744-.093,1.991-0.178,3.37-0.215l0.012-.758c-1.088.037-6.336,0.056-10.1,0.056-3.87,0-7.236-.01-8.429-0.038l-0.009.59c1.193-.019,5.435-0.037,13.52-0.028l-4.542.552-0.009.534c-4.188-.009-8.084-0.038-10.469-0.094l-0.013.824c2.36-.066,6.284-0.094,10.472-0.094l-0.009.581c-0.006.393-.245,0.421-3.027,0.337a1.235,1.235,0,0,1,.912.964c3.953-.187,4.327-0.384,4.336-0.908Zm34.387-5.176c-1.055-.337-2.427-0.721-3.536-0.992l-1.572.524a31.206,31.206,0,0,1,3.507,1.133Zm-15.378.215a5.044,5.044,0,0,1,1.5-1.076c0.532-.15.507-0.206-0.049-0.262-0.582-.047-1.482-0.159-2.328-0.29a5.927,5.927,0,0,1-1.621,1.918,13.992,13.992,0,0,1-3.558,2.032,4.693,4.693,0,0,1,1.5.674c0.963-.506,1.712-0.936,2.408-1.386l-0.051,3.192a7.132,7.132,0,0,1-.351,2.06h2.439Zm9.466,1.517-0.063,3.978c-0.015.889,0.2,0.973,3.695,0.973s3.845-.093,5.007-1.488a7.347,7.347,0,0,1-2.4-.468c-0.416,1.161-.709,1.236-2.353,1.236-1.749,0-1.854-.066-1.846-0.562l0.058-3.669c2.333,0,4.055.037,5.539,0.093l0.014-.9c-1.645.075-3.554,0.112-6.284,0.1h-2.253c0.2-.8.286-1.348,0.373-1.779a0.565,0.565,0,0,1,.484-0.412c0.372-.075.294-0.2-0.077-0.187-0.637.019-2.067-.019-3.02-0.094a4.663,4.663,0,0,1,.146,2.472c-2.306-.01-4.161-0.047-5.327-0.1l-0.014.9c1.353-.046,3.182-0.084,5.2-0.093-0.7,2.518-2.789,3.669-6.143,4.586a10.157,10.157,0,0,1,2.218.515c3.625-1.263,5.344-2.658,6.019-5.1H526.4Zm16.12,3.379-2.3-.243a3.564,3.564,0,0,1-1.986,1.553l2.2,0.262Zm13.67,0.5a6.447,6.447,0,0,1-2.327-.393,1.521,1.521,0,0,1-1.553,1c-1.486.094-4.031,0.113-4.9,0.047-1.059-.075-1.164-0.15-1.159-0.458l0.009-.581a0.382,0.382,0,0,1,.3-0.309c0.346-.112.268-0.168-0.21-0.149-0.663.018-1.616-.019-2.305-0.066a0.934,0.934,0,0,1,.15.59l-0.016.964c-0.006.393,0.284,0.524,1.687,0.627,0.874,0.066,5.459.075,7.1-.019C554.766,341.706,555.378,341.519,556.189,340.555Zm4.819,0.356c-1.424-.515-2.214-0.8-3.85-1.3l-1.624.421a17.894,17.894,0,0,1,3.531,1.385Zm-9.3-.571a8.271,8.271,0,0,0-1.151-.918l-2.2.216a5.8,5.8,0,0,1,1.071,1Zm-3.189-2.771h-5.329l0.009-.562h5.328Zm1.891-.562H556.3l-0.009.562h-5.884Zm-1.875-.5h-5.328l0.009-.543h5.328Zm1.891-.543h5.885l-0.009.543h-5.884Zm-0.043,2.687,0.009-.552H555.8l-1.012.29c0.211,0.065.4,0.121,0.58,0.187C553.569,338.608,551.952,338.627,550.387,338.655Zm-1.822-3.782-0.008.562c-2.837,0-6.1-.01-7.369-0.028a2.653,2.653,0,0,1,.069.655l-0.023,1.413a2.329,2.329,0,0,1-.09.656c1.22-.019,4.507-0.028,7.37-0.028l-0.009.561c-3,.028-5.912.038-9.543,0.019a1.97,1.97,0,0,1,.73.749c2.281-.094,8.222-0.262,17.1-0.365,0.5,0.177,1,.365,1.528.58l1.571-.459c-0.949-.327-2.241-0.749-3.4-1.085,0.795,0,1.458.018,1.855,0.028a4.155,4.155,0,0,1-.069-0.646l0.023-1.432a2.583,2.583,0,0,1,.089-0.646c-1.3.018-4.983,0.028-7.952,0.028l0.009-.562c4.135,0,7.633.028,9.939,0.084l0.011-.711c-2.307.047-5.806,0.075-9.942,0.075a0.991,0.991,0,0,1,.435-0.627c0.267-.122.241-0.169-0.183-0.169-0.928,0-1.458-.019-2.226-0.056a3.868,3.868,0,0,1,.092.852c-3.843,0-7.13-.028-9.3-0.075l-0.011.711C541.434,334.911,544.722,334.882,548.565,334.873Z" transform="translate(-439.5 -322.5)"/>
</svg>
