<svg id="S3_coupon2" xmlns="http://www.w3.org/2000/svg" width="137.469" height="63.5" viewBox="0 0 137.469 63.5">
  <defs>
    <style>
      .cls-1 {
        fill: #f17d66;
        opacity: 0.56;
      }

      .cls-1, .cls-2, .cls-3 {
        fill-rule: evenodd;
      }

      .cls-2 {
        fill: #ade398;
      }

      .cls-3 {
        fill: #fff;
      }
    </style>
  </defs>
  <path id="形状_51" data-name="形状 51" class="cls-1" d="M447,337s-5.75,6.5,4.5,5.5L581,343l-5-8S442,324.75,447,337Z" transform="translate(-445.375 -279.5)"/>
  <path id="圆角矩形_3_拷贝_2" data-name="圆角矩形 3 拷贝 2" class="cls-2" d="M451.711,281.351L577.1,279.51a2.026,2.026,0,0,1,2.04,1.81l3.7,54.171a1.858,1.858,0,0,1-1.9,2.016l-132.993,1a1.846,1.846,0,0,1-1.829-2.014l3.611-53.354A1.977,1.977,0,0,1,451.711,281.351Z" transform="translate(-445.375 -279.5)"/>
  <path id="立即抢购" class="cls-3" d="M491.126,326.375l-2.493.035c-1.787.041-3.685-.026-4.8-0.1l0.022,1.537a61.56,61.56,0,0,1,6.755-.269,62.441,62.441,0,0,1,6.776.076l-0.022-1.536c-1.081.094-3.1,0.185-4.78,0.224,1.345-4.692,1.954-5.986,2.281-6.148,0.218-.129.154-0.19-0.019-0.235a9.4,9.4,0,0,1-1.86-.632A29.691,29.691,0,0,1,491.126,326.375Zm-1.477-1.343c-0.462-1.609-1.184-3.873-1.643-5.231l-1.342.443a29.116,29.116,0,0,1,1.423,5.217Zm6.906-6.183-0.021-1.5c-0.987.108-2.569,0.193-5.925,0.241-3.339.047-4.908,0.007-5.913-.073l0.022,1.5A101.269,101.269,0,0,1,496.555,318.849Zm-4.659-2.286a13.368,13.368,0,0,1-.925-2.245l-1.561.555a12.4,12.4,0,0,1,.942,2.26Zm12.945,4.834-3.246.046-0.028-1.991,3.245-.046Zm-0.043-3.026-3.246.046-0.026-1.866,3.245-.046Zm7.654-3.245a17.305,17.305,0,0,1-2.507.176,16.445,16.445,0,0,1-2.5-.105c0.054,0.517.115,1.457,0.126,2.225l0.1,7.4c0.019,1.349-.015,2.274-0.073,3.671l1.364-.019-0.171-12,2.211-.031,0.11,7.777c0.011,0.752-.129.848-1.651,0.729a2.461,2.461,0,0,1,.917,1.68c2-.53,2.061-0.656,2.038-2.255l-0.1-7.025A13.756,13.756,0,0,1,512.452,315.126Zm-8.412,9.529a22.78,22.78,0,0,1-2.382,1.225l-0.047-3.355,1.991-.028a20.543,20.543,0,0,1,2.526.058,20.121,20.121,0,0,1-.124-2.1l-0.048-3.324c-0.008-.58.011-1.458,0.051-1.976a14.828,14.828,0,0,1-2.82.228,18.542,18.542,0,0,1-2.982-.146c0.054,0.47.114,1.378,0.123,1.974l0.118,8.341a1.505,1.505,0,0,1-.671,1.343,6.66,6.66,0,0,1,.8,1.243,6.455,6.455,0,0,1,1.226-.927l2.892-1.75c0.415,0.527.815,1.086,1.1,1.521l1.132-.926c-0.812-.851-2.071-2.291-2.757-3.113l-0.977.783A6.569,6.569,0,0,1,504.04,324.655Zm17.184-4.761a7.922,7.922,0,0,1,.164,1.66l0.062,4.343c0.021,1.458.244,1.753,1.045,1.836a23.9,23.9,0,0,0,3.889-.024c1.488-.131,1.705-0.291,2.227-2.212a3.81,3.81,0,0,1-1.265-.75c-0.245,1.556-.508,1.763-1.448,1.84-0.5.038-2.164,0.046-2.839-.007-0.267-.028-0.441-0.182-0.454-1.044L522.541,321l2.916-.041-0.161,1.9c-0.027.329-.51,0.509-1.625,0.431a3.275,3.275,0,0,1,.553,1.4c1.722-.26,2.218-0.627,2.254-1.428l0.169-3.546a25.73,25.73,0,0,1-2.758.133,13.278,13.278,0,0,1-2.558-.12,15.549,15.549,0,0,0,2.654-4.147,6.124,6.124,0,0,0,1.51,2.519,7.92,7.92,0,0,0,2.79,2.078,6.316,6.316,0,0,1,.794-1.517,5.057,5.057,0,0,1-2.7-1.452,8.268,8.268,0,0,1-1.778-2.625c0.389-.225.4-0.319,0.106-0.315a10.125,10.125,0,0,1-1.666-.258,10.841,10.841,0,0,1-1.319,3.249,10.611,10.611,0,0,1-2.422,2.763,3.344,3.344,0,0,1,1.17.689C520.776,320.386,520.992,320.164,521.224,319.894Zm-3.078-2.481-0.026-1.85a1.018,1.018,0,0,1,.271-0.741c0.357-.272.308-0.444-0.24-0.389a3.029,3.029,0,0,1-1.414-.184,18.055,18.055,0,0,1,.217,3.181c-0.847,0-1.474-.026-1.992-0.066l0.019,1.333c0.516-.055,1.143-0.111,1.989-0.138l0.043,3.026a19.079,19.079,0,0,1-2.279.738,5.41,5.41,0,0,1,.461,1.514,20.461,20.461,0,0,1,1.837-.951l0.043,3.057c0.007,0.455-.649.684-1.826,0.591a5,5,0,0,1,.492,1.5c2.051-.233,2.546-0.71,2.533-1.619l-0.058-4.077a14.247,14.247,0,0,1,1.372-.568,3.149,3.149,0,0,1-.1-1.3c-0.451.242-.872,0.436-1.293,0.615l-0.036-2.525c0.69,0.006,1.224.03,1.679,0.071l-0.019-1.333C519.384,317.348,518.836,317.387,518.146,317.413Zm19.025,9a16.531,16.531,0,0,0-2.149-2.259l-0.852.7a11.583,11.583,0,0,1,1.961,2.293Zm-2.7-8.964c0.169-.237.153-0.268-0.145-0.264a8.4,8.4,0,0,1-1.209-.124,30.193,30.193,0,0,1,.048,5.582,5.017,5.017,0,0,1-2.793,4.29,3.6,3.6,0,0,1,1.2.876,7.633,7.633,0,0,0,2.66-4.836c0.1-1.57.128-3.138,0.107-4.6A2.3,2.3,0,0,1,534.472,317.447Zm2.094,6.055c-0.054-.454-0.077-1-0.085-1.535l-0.085-5.974c-0.007-.486,0-0.925.03-1.224-0.486.039-1.552,0.07-2.775,0.087-1.285.018-2.132,0.03-2.634-.01a8.472,8.472,0,0,1,.095,1.222l0.091,6.4c0.008,0.533-.032,1.067-0.072,1.538l1.223-.017-0.113-7.965,3.026-.043,0.107,7.541Zm4.182-.294-2.19.329a22.643,22.643,0,0,0,1.35-3.187,3.2,3.2,0,0,1,.519-0.98c0.217-.207.184-0.332-0.083-0.359a10.756,10.756,0,0,1-1.369-.3,15.775,15.775,0,0,1-1.178,4.3,1.052,1.052,0,0,1-.57.7,2.761,2.761,0,0,1,.362,1.2,4.824,4.824,0,0,1,1.124-.361l2.221-.408c0.051,0.282.087,0.579,0.122,0.861l1.14-.346c-0.284-1.25-.567-2.36-0.945-3.625l-0.985.234A18.983,18.983,0,0,1,540.748,323.208Zm-1.478-6.926a7.629,7.629,0,0,1,.915-1.8c0.2-.223.168-0.316,0.011-0.33a5.032,5.032,0,0,1-1.573-.385,9.634,9.634,0,0,1-.469,2.343,12.24,12.24,0,0,1-1.618,3.1,2.419,2.419,0,0,1,.964.519,12.358,12.358,0,0,0,1.346-2.371l4-.057-0.122,7.937c-0.015,1.192-.669,1.515-2.491,1.274a5.338,5.338,0,0,1,.632,1.465c2.681-.085,3.046-0.874,3.072-2.38l0.194-9.49c-0.658.072-1.755,0.134-2.538,0.146Z" transform="translate(-445.375 -279.5)"/>
  <path id="还剩01:03:00" class="cls-3" d="M481.391,299.465a25.339,25.339,0,0,0-3.167-3.218l-1.01.748a21.407,21.407,0,0,1,2.862,3.414Zm-10.9-5c-0.378-.933-0.756-1.946-1.085-2.878l-1.383.477a13.491,13.491,0,0,1,1.052,2.846Zm-0.232,8.32-0.03-4.256a8.909,8.909,0,0,1,.116-1.9,15.906,15.906,0,0,1-3.16.022l0.01,1.371a12.361,12.361,0,0,1,1.692-.077l0.035,4.9a11.939,11.939,0,0,0-1.987,1.755,6.336,6.336,0,0,1,1.361.893c0.7-1.617,1.179-1.959,2.375-1.468,2.62,1.078,2.878,1.108,10.26.943a3.971,3.971,0,0,1,.472-1.615c-5.171.568-8.154,0.444-9.14,0.065A14.8,14.8,0,0,0,470.258,302.784Zm5.882-9.457a15.968,15.968,0,0,1-5.565,6.327,2.951,2.951,0,0,1,1.135.895,23.822,23.822,0,0,0,3.5-3.491l0.023,3.192a21.507,21.507,0,0,1-.125,2.838l1.532-.011a25.093,25.093,0,0,1-.15-2.836l-0.034-4.82a12.335,12.335,0,0,0,1.194-2.1c1.467,0,2.532.03,3.435,0.088l-0.01-1.4c-1.144.088-2.546,0.147-4.69,0.162s-3.563-.023-4.708-0.1l0.01,1.4C472.787,293.383,474.141,293.342,476.14,293.327Zm20.74-1.5c0.192-.227.175-0.356-0.148-0.338a5.941,5.941,0,0,1-1.467-.07,14,14,0,0,1,.163,2.562l0.065,9.173c0.006,0.87-.2,1.114-2.073.95a7.608,7.608,0,0,1,.7,1.639c2.513-.324,2.673-0.5,2.659-2.405l-0.076-10.672A1.473,1.473,0,0,1,496.88,291.826Zm-2.514,2.468c0.257-.211.207-0.372-0.083-0.354a6.294,6.294,0,0,1-1.355-.119,9.713,9.713,0,0,1,.125,1.724l0.029,4.127a16.821,16.821,0,0,1-.1,1.935l1.419-.01a17.254,17.254,0,0,1-.127-1.934l-0.032-4.594A1.209,1.209,0,0,1,494.366,294.294Zm-9,3.982,0.006,0.967a17.379,17.379,0,0,1-2.106.805,6.766,6.766,0,0,1,.347,1.174,18.458,18.458,0,0,0,1.749-1.189c-0.014.29-.028,0.564-0.074,0.9l1.128-.008c-0.036-.564-0.055-0.935-0.06-1.595l-0.016-2.354a0.957,0.957,0,0,1,.141-0.581c0.192-.2.159-0.292-0.1-0.274a5.557,5.557,0,0,1-1.129-.056,10.517,10.517,0,0,1,.106,1.305,9.3,9.3,0,0,1-1.951-.083l0.008,1.1A9.61,9.61,0,0,1,485.367,298.276Zm4.982,0.093a5.47,5.47,0,0,1,1.914-.61c0.177,0.015.209-.082,0.1-0.146a5.216,5.216,0,0,1-.555-0.963,12.11,12.11,0,0,1-1.461.945l0-.419a1.169,1.169,0,0,1,.22-0.775c0.128-.146.063-0.258-0.05-0.242a3.9,3.9,0,0,1-1.209-.072c0.034,0.242.055,0.967,0.058,1.37l0.016,2.225c0.006,0.935.184,1.014,1.474,1,1-.007,1.417-0.252,1.682-1.463a2,2,0,0,1-.955-0.557c-0.171.888-.282,1.114-0.766,1.118-0.419,0-.452-0.046-0.454-0.4Zm-3.083-5.04,0.009,1.257c-1.693.012-2.854-.028-3.822-0.118l0.009,1.258c0.935-.087,2.111-0.144,3.82-0.156l0.03,4.288a9.032,9.032,0,0,1-4.1,4.108,3.966,3.966,0,0,1,1.039.976,9.771,9.771,0,0,0,3.071-3.472l0.015,2.112a19.867,19.867,0,0,1-.13,2.193l1.419-.01c-0.071-.822-0.108-1.579-0.112-2.192l-0.019-2.579a37.749,37.749,0,0,1,2.651,3.2l0.928-.941a27.217,27.217,0,0,0-3.586-3.312l-0.031-4.385c1.644-.011,2.789.029,3.708,0.1l-0.009-1.257a36.131,36.131,0,0,1-3.706.171l-0.01-1.37c0.37-.051.741-0.086,1.095-0.137a4.637,4.637,0,0,1,1.9-.046c0.178,0.047.29-.1,0.062-0.371a3.836,3.836,0,0,1-.621-1.156,16.633,16.633,0,0,1-3.17.748,18.527,18.527,0,0,1-3.739.155,3.717,3.717,0,0,1,.411,1.19C485.268,293.52,486.267,293.433,487.266,293.329ZM502.858,304.7c2.5-.018,3.965-2.269,3.936-6.38-0.026-3.675-1.333-6.149-3.9-6.131-2.515.018-4,2.35-3.97,6.316C498.955,302.226,500.327,304.715,502.858,304.7Zm0.021-1.5c-1.289.009-2.044-1.759-2.065-4.773-0.021-3.031.805-4.745,2.03-4.754,1.418-.01,2.044,1.839,2.065,4.725C504.926,300.91,504.459,303.186,502.879,303.2Zm10.473,1.248-0.086-12.139-1.58.011-2.73,1.487,0.429,1.367,2.039-1.143h0.032l0.074,10.43Zm5.229-6.212a1.268,1.268,0,0,0-.018-2.531,1.2,1.2,0,0,0-1.184,1.282A1.176,1.176,0,0,0,518.581,298.233Zm0.045,6.352a1.169,1.169,0,0,0,1.184-1.266,1.182,1.182,0,0,0-1.2-1.265,1.2,1.2,0,0,0-1.184,1.282A1.177,1.177,0,0,0,518.626,304.585Zm6.3-.045c2.5-.018,3.966-2.269,3.937-6.38-0.026-3.675-1.333-6.148-3.9-6.13-2.515.018-4,2.35-3.97,6.315C521.027,302.069,522.4,304.558,524.929,304.54Zm0.022-1.5c-1.29.009-2.044-1.759-2.065-4.774s0.8-4.745,2.03-4.754c1.418-.01,2.044,1.84,2.064,4.725C527,300.753,526.531,303.03,524.951,303.041Zm9.878-5.326a3.03,3.03,0,0,0,2.14-2.852c-0.011-1.548-1.133-2.91-3.406-2.894a5.517,5.517,0,0,0-3.041.908L531,294.212a4.089,4.089,0,0,1,2.155-.741,1.675,1.675,0,0,1,1.915,1.695c0.009,1.338-1.356,1.977-2.4,1.984l-0.79.006,0.009,1.338,0.822-.006c1.435-.01,2.762.706,2.773,2.269a2.186,2.186,0,0,1-2.418,2.226,4.779,4.779,0,0,1-2.407-.676l-0.474,1.438a5.759,5.759,0,0,0,2.972.737c2.757-.02,4.26-1.691,4.246-3.674a3.055,3.055,0,0,0-2.569-3.061v-0.032Zm5.824,0.362a1.268,1.268,0,0,0-.018-2.531,1.2,1.2,0,0,0-1.184,1.282A1.176,1.176,0,0,0,540.653,298.077Zm0.045,6.351a1.169,1.169,0,0,0,1.184-1.266,1.183,1.183,0,0,0-1.2-1.265,1.2,1.2,0,0,0-1.184,1.282A1.176,1.176,0,0,0,540.7,304.428Zm6.3-.044c2.5-.018,3.966-2.269,3.937-6.38-0.026-3.676-1.334-6.149-3.9-6.131-2.514.018-4,2.35-3.969,6.316C543.1,301.912,544.47,304.4,547,304.384Zm0.022-1.5c-1.29.009-2.044-1.759-2.065-4.773-0.022-3.031.8-4.746,2.029-4.754,1.419-.01,2.045,1.839,2.065,4.725C549.07,300.6,548.6,302.873,547.023,302.884Zm9.039,1.435c2.5-.017,3.966-2.269,3.937-6.379-0.026-3.676-1.334-6.149-3.9-6.131-2.515.018-4,2.35-3.969,6.315C552.159,301.848,553.531,304.337,556.062,304.319Zm0.022-1.5c-1.29.009-2.044-1.759-2.066-4.774s0.8-4.745,2.03-4.754c1.419-.01,2.045,1.84,2.065,4.725C558.131,300.532,557.663,302.809,556.084,302.82Z" transform="translate(-445.375 -279.5)"/>
</svg>
