<svg id="S3_pop1" xmlns="http://www.w3.org/2000/svg" width="116.5" height="58.719" viewBox="0 0 116.5 58.719">
  <defs>
    <style>
      .cls-1 {
        fill: #f78973;
      }

      .cls-1, .cls-2 {
        fill-rule: evenodd;
      }

      .cls-2 {
        fill: #fff;
      }
    </style>
  </defs>
  <path id="形状_53_拷贝_2" data-name="形状 53 拷贝 2" class="cls-1" d="M742,260.5H661.472l-27.049,12.233L642.2,260.5h-6.7a5,5,0,0,1-5-5V219a5,5,0,0,1,5-5H742a5,5,0,0,1,5,5v36.5A5,5,0,0,1,742,260.5Z" transform="translate(-630.5 -214)"/>
  <path id="比PC省566元" class="cls-2" d="M640.48,238.53c1.53,0.015,2.49.045,3.48,0.1v-1.3c-0.96.06-2.01,0.09-3.48,0.09v-2.142a3.049,3.049,0,0,1,.225-1.513c0.135-.195.1-0.27-0.12-0.255a6.678,6.678,0,0,1-1.44-.075c0.045,0.494.06,1.079,0.06,2.487v8.06a1.155,1.155,0,0,1-.45,1.213,3.807,3.807,0,0,1,.915,1.229,7.555,7.555,0,0,1,1.35-.974l3.09-1.9a2.008,2.008,0,0,1-.225-1.393l-3.4,2.2V238.53Zm5.895,1.273a39.8,39.8,0,0,1,4.274-2.412c0.315-.075.345-0.165,0.15-0.285a4.048,4.048,0,0,1-1.1-1.153,19.893,19.893,0,0,1-3.329,2.562v-3.88a1.942,1.942,0,0,1,.27-1.289c0.2-.269.165-0.329-0.09-0.314a6.939,6.939,0,0,1-1.53-.09,17.856,17.856,0,0,1,.09,2.157v8.989c0,1.693.195,1.992,2.52,1.992,2.534,0,3-.284,3.764-2.592a2.705,2.705,0,0,1-1.38-.913c-0.525,2.142-.645,2.232-2.039,2.232-1.485,0-1.605-.075-1.605-0.734V239.8Zm6.825,5.663h1.725v-4.494a4.859,4.859,0,0,0,.975.075c2.07,0,4.29-.959,4.29-3.746a3.186,3.186,0,0,0-1.035-2.472,4.669,4.669,0,0,0-3.165-.914,16.139,16.139,0,0,0-2.79.225v11.326Zm1.725-10.082a6.071,6.071,0,0,1,1.17-.1,2.052,2.052,0,0,1,2.355,2.1c0,1.468-.96,2.292-2.55,2.292a3.586,3.586,0,0,1-.975-0.09v-4.194Zm14.174,8.374a5.12,5.12,0,0,1-2.069.405c-2.37,0-3.84-1.573-3.84-4.39,0-2.981,1.65-4.479,3.87-4.479a4.742,4.742,0,0,1,2.01.419l0.375-1.423a5.566,5.566,0,0,0-2.445-.449c-3.18,0-5.64,2.127-5.64,6.022,0,3.655,2.145,5.768,5.34,5.768a6.585,6.585,0,0,0,2.7-.48Zm6.315-8.6c0.3-.12.315-0.195,0-0.33a3.854,3.854,0,0,1-1.1-.689,9.662,9.662,0,0,1-2.8,2.817,2.923,2.923,0,0,1,1.125.659c0.615-.51,1.454-1.3,1.8-1.648A4.206,4.206,0,0,1,675.414,235.159Zm8.745,0.959a37.2,37.2,0,0,0-3-2.232l-0.915.868a10.615,10.615,0,0,1,2.925,2.352Zm-9.57,7.46h6.375v1.049h-6.375v-1.049Zm2.01-4.854a19.66,19.66,0,0,0,2.85-1.453,3.606,3.606,0,0,1,1.305-.719c0.21-.015.225-0.09,0.015-0.225a4.3,4.3,0,0,1-.93-0.913,7.39,7.39,0,0,1-1.725,1.393V233.6a0.424,0.424,0,0,1,.18-0.405c0.285-.149.24-0.269-0.015-0.254a9.017,9.017,0,0,1-1.605-.135,6.944,6.944,0,0,1,.165,1.513v3.191a16.458,16.458,0,0,1-6.359,1.888,2.834,2.834,0,0,1,.735,1.273,20.546,20.546,0,0,0,2.144-.674v4.734a15.233,15.233,0,0,1-.1,1.768h1.334v-0.959h6.375v0.764H682.3a8.721,8.721,0,0,1-.12-1.6v-4.854a8.415,8.415,0,0,1,.09-1.258,14.926,14.926,0,0,1-2.355.134H676.6Zm4.365,2.008h-6.375v-1.019h6.375v1.019Zm-6.375.914h6.375v1.019h-6.375v-1.019Zm13.2,2.836a5.791,5.791,0,0,0,3.884,1.277,5.465,5.465,0,0,0,4.658-2.273,6.2,6.2,0,0,0,1.232-3.786,5.737,5.737,0,0,0-1.525-4.136,5.043,5.043,0,0,0-5.972-1.043l0.516-2.918H696.8v-3.082h-8.717l-1.69,8.941,2.675,0.387a3.36,3.36,0,0,1,2.546-1.254,2.367,2.367,0,0,1,1.848.791,3.452,3.452,0,0,1,.71,2.373,3.8,3.8,0,0,1-.716,2.525,2.215,2.215,0,0,1-1.748.838,2.262,2.262,0,0,1-1.6-.65,2.806,2.806,0,0,1-.833-1.764l-3.286.34A5.263,5.263,0,0,0,687.787,244.482Zm21.042-15.151a4.819,4.819,0,0,0-3.24-1.094,5.642,5.642,0,0,0-4.535,2.083q-1.746,2.084-1.746,6.8,0,4.6,1.676,6.619a5.638,5.638,0,0,0,8.25.427,5.806,5.806,0,0,0,1.547-4.226,5.682,5.682,0,0,0-1.471-4.049,4.673,4.673,0,0,0-3.533-1.569,3.851,3.851,0,0,0-3.059,1.452,7.887,7.887,0,0,1,.908-3.9,2.16,2.16,0,0,1,1.764-.936,1.777,1.777,0,0,1,1.277.468,2.317,2.317,0,0,1,.61,1.451l3.187-.351A5.124,5.124,0,0,0,708.829,229.331Zm-5.173,8.158a2.112,2.112,0,0,1,3.246.035,3.773,3.773,0,0,1,.656,2.453,3.593,3.593,0,0,1-.609,2.34,1.919,1.919,0,0,1-1.524.714,2.17,2.17,0,0,1-1.687-.872,3.718,3.718,0,0,1-.739-2.475A3.225,3.225,0,0,1,703.656,237.489Zm18.521-8.158a4.819,4.819,0,0,0-3.24-1.094,5.64,5.64,0,0,0-4.535,2.083q-1.746,2.084-1.746,6.8,0,4.6,1.675,6.619a5.638,5.638,0,0,0,8.25.427,5.8,5.8,0,0,0,1.547-4.226,5.681,5.681,0,0,0-1.47-4.049,4.675,4.675,0,0,0-3.534-1.569,3.85,3.85,0,0,0-3.058,1.452,7.887,7.887,0,0,1,.908-3.9,2.157,2.157,0,0,1,1.764-.936,1.777,1.777,0,0,1,1.277.468,2.317,2.317,0,0,1,.609,1.451l3.188-.351A5.124,5.124,0,0,0,722.177,229.331ZM717,237.489a2.112,2.112,0,0,1,3.246.035,3.766,3.766,0,0,1,.657,2.453,3.593,3.593,0,0,1-.61,2.34,1.917,1.917,0,0,1-1.523.714,2.173,2.173,0,0,1-1.688-.872,3.723,3.723,0,0,1-.738-2.475A3.23,3.23,0,0,1,717,237.489Zm14.461,1.265h1.8v5.5c0,1.2.36,1.528,2.76,1.528,2.325,0,2.73-.255,3.375-2.517a2.1,2.1,0,0,1-1.32-.839c-0.375,1.783-.6,2.1-1.965,2.1s-1.515-.045-1.515-0.689v-5.079c1.455,0,3.015.045,3.78,0.105V237.5c-0.84.06-2.49,0.1-5.925,0.1-3.419,0-5.039-.045-5.909-0.1v1.363c0.735-.09,2.145-0.105,3.555-0.105,0.075,3.791-.855,5.274-3.93,6.517a3.449,3.449,0,0,1,1.185,1.229C730.324,244.582,731.539,243.069,731.464,238.754Zm5.564-3.58v-1.423c-1.02.1-2.745,0.135-4.605,0.135s-3.494-.045-4.529-0.135v1.423c1.02-.075,2.715-0.12,4.575-0.12S736.038,235.1,737.028,235.174Z" transform="translate(-630.5 -214)"/>
</svg>
