<svg xmlns="http://www.w3.org/2000/svg" width="121" height="121" viewBox="0 0 121 121" xmlns:xlink="http://www.w3.org/1999/xlink">
  <defs>
    <circle id="a" cx="54.5" cy="54.5" r="54.5"/>
    <mask id="b" width="121" height="121" x="-6" y="-6">
      <rect width="121" height="121" x="-6" y="-6" fill="white"/>
      <use fill="black" xlink:href="#a"/>
    </mask>
  </defs>
  <g fill="none" fill-rule="evenodd" transform="translate(6 6)">
    <use fill="#37A0CF" xlink:href="#a"/>
    <use stroke="#257297" stroke-width="12" mask="url(#b)" xlink:href="#a"/>
    <path fill="#D30022" d="M47.2187872,41.0449954 C47.2187872,41.0449954 35.2187872,20.0449954 40.2187872,18.0449954 C45.2187872,16.0449954 50.2187872,24.0449954 52.2187872,24.0449954 C54.2187872,24.0449954 54.2187872,8.04499541 59.2187872,9.04499541 C64.2187872,10.0449954 62.2187872,23.0449954 64.2187872,24.0449954 C66.2187872,25.0449954 72.2187872,17.0449954 75.2187872,20.0449954 C78.2187872,23.0449954 68.2187872,36.0449954 64.2187872,39.0449954 C60.2187872,42.0449954 47.2187872,41.0449954 47.2187872,41.0449954 Z"/>
    <path fill="#FFFFFF" d="M93.5919099,92.474682 C83.6887447,102.667359 69.8339062,109 54.5,109 C38.7367098,109 24.5364814,102.307737 14.5855071,91.609402 C20.6320112,68.5530562 24.6805976,33.0870507 58.1933537,34.0179606 C91.4488786,34.9417251 91.4241044,74.2658348 93.5919099,92.474682 Z"/>
    <circle cx="40" cy="64" r="5" fill="#3D3939"/>
    <circle cx="73" cy="65" r="5" fill="#3D3939"/>
    <path fill="#FFAB20" d="M56,94 C53,94 45,78 45,76 C45,74 55,67 57,67 C59,67 68,75 68,77 C68,79 59,94 56,94 Z"/>
    <path fill="#DD941A" d="M60.2454599,80 C60.7977446,80 62.2454599,78.5522847 62.2454599,78 C62.2454599,77.4477153 61.7977446,77 61.2454599,77 C60.6931751,77 60.2454599,77.4477153 60.2454599,78 C60.2454599,78.5522847 59.6931751,80 60.2454599,80 Z"/>
    <path fill="#DD941A" d="M51.2454599,80 C51.7977446,80 53.2454599,78.5522847 53.2454599,78 C53.2454599,77.4477153 52.7977446,77 52.2454599,77 C51.6931751,77 51.2454599,77.4477153 51.2454599,78 C51.2454599,78.5522847 50.6931751,80 51.2454599,80 Z" transform="matrix(-1 0 0 1 104.245 0)"/>
  </g>
</svg>
