<svg xmlns="http://www.w3.org/2000/svg" width="49" height="31" viewBox="0 0 49 31">
  <path fill="#FFFFFF" fill-rule="evenodd" stroke="#FFFFFF" d="M13.1817858,21.7892751 C13.1817858,25.1812095 11.6499444,26.9683577 8.76862386,26.9683577 C6.14261016,26.9683577 5.04843779,25.4365164 4.53782401,24.0140923 C4.24604471,23.284644 3.66248611,23.0293371 3.0424551,23.0293371 C2.7506758,23.0293371 2.4588965,23.102282 2.20358961,23.1752268 C1.54708619,23.3940613 1,24.0140923 1,24.7800129 C1,24.9988474 1.03647241,25.1812095 1.10941724,25.400044 C1.54708619,26.4942163 2.27653444,27.6978059 3.55306887,28.6460887 C4.75665849,29.5214266 6.47086187,30.1414576 8.80509627,30.1414576 C13.8018168,30.1414576 16.6831374,27.3695542 16.6831374,22.1175268 L16.6831374,2.49536891 C16.6831374,1.47414136 15.9536891,1 15.0054064,1 C13.9477064,1 13.1817858,1.47414136 13.1817858,2.49536891 L13.1817858,21.7892751 Z M25.4188684,25.7282957 C25.4188684,28.500199 26.5495132,29.6308438 29.1390545,29.6308438 L35.6311439,29.6308438 C43.6186023,29.6308438 48.4329607,24.1964543 48.4329607,15.1148236 C48.4329607,6.32497222 43.6915471,1.21883447 35.6311439,1.21883447 L29.1390545,1.21883447 C26.5495132,1.21883447 25.4188684,2.34947926 25.4188684,5.15785502 L25.4188684,25.7282957 Z M28.8837476,5.55905156 C28.8837476,4.7931309 29.3943614,4.35546195 30.0873372,4.35546195 L35.5581991,4.35546195 C41.5761472,4.35546195 44.8221919,8.18506526 44.8221919,15.151296 C44.8221919,22.2634165 41.3573127,26.4577439 35.4487819,26.4577439 L30.0508648,26.4577439 C29.3214166,26.4577439 28.8837476,26.0565474 28.8837476,25.2176819 L28.8837476,5.55905156 Z"/>
</svg>
