<svg xmlns="http://www.w3.org/2000/svg" width="88" height="48" viewBox="0 0 88 48">
  <g fill="none" fill-rule="evenodd" transform="translate(2 2)">
    <rect width="84" height="44" fill="#FFFFFF" stroke="#366AAF" stroke-width="4" rx="11"/>
    <path fill="#3675CB" d="M15.03,32.637 L15.03,16.889 C15.03,16.3309972 15.0713329,15.8763351 15.154,15.525 C15.2366671,15.1736649 15.3813323,14.8998343 15.588,14.7035 C15.7946677,14.5071657 16.0736649,14.3728337 16.425,14.3005 C16.7763351,14.2281663 17.220664,14.192 17.758,14.192 L23.493,14.192 L23.586,12.766 L13.759,12.766 C13.2009972,12.766 12.8031679,12.6420012 12.5655,12.394 C12.3278321,12.1459988 12.209,11.753336 12.209,11.216 C12.209,10.678664 12.3278321,10.2653348 12.5655,9.976 C12.8031679,9.68666522 13.2009972,9.542 13.759,9.542 L23.803,9.542 L23.865,8.581 C23.9063335,7.9609969 24.1026649,7.55283431 24.454,7.3565 C24.8053351,7.16016568 25.249664,7.08266646 25.787,7.124 C26.324336,7.16533354 26.7169988,7.34616506 26.965,7.6665 C27.2130012,7.98683493 27.337,8.36399783 27.337,8.798 C27.3163332,8.92200062 27.3008334,9.04599938 27.2905,9.17 C27.2801666,9.29400062 27.275,9.41799938 27.275,9.542 L37.691,9.542 C38.2903363,9.542 38.6984989,9.68666522 38.9155,9.976 C39.1325011,10.2653348 39.241,10.678664 39.241,11.216 C39.241,11.753336 39.1325011,12.1459988 38.9155,12.394 C38.6984989,12.6420012 38.2903363,12.766 37.691,12.766 L27.058,12.766 C27.0373332,13.0140012 27.0218334,13.2568321 27.0115,13.4945 C27.0011666,13.7321679 26.9856668,13.9646655 26.965,14.192 L33.599,14.192 C34.1156692,14.192 34.5444983,14.2281663 34.8855,14.3005 C35.2265017,14.3728337 35.5054989,14.5123323 35.7225,14.719 C35.9395011,14.9256677 36.0944995,15.2098315 36.1875,15.5715 C36.2805005,15.9331685 36.327,16.3929972 36.327,16.951 L36.327,32.637 L39.086,32.637 C39.6440028,32.637 40.0418321,32.7868318 40.2795,33.0865 C40.5171679,33.3861682 40.636,33.7839975 40.636,34.28 C40.636,34.8380028 40.5171679,35.2461654 40.2795,35.5045 C40.0418321,35.7628346 39.6440028,35.892 39.086,35.892 L12.55,35.892 C11.9919972,35.892 11.5941679,35.7628346 11.3565,35.5045 C11.1188321,35.2461654 11,34.8380028 11,34.28 C11,33.7839975 11.1188321,33.3861682 11.3565,33.0865 C11.5941679,32.7868318 11.9919972,32.637 12.55,32.637 L15.03,32.637 Z M18.409,32.637 L32.855,32.637 L32.855,30.901 L18.409,30.901 L18.409,32.637 Z M18.409,27.832 L32.855,27.832 L32.855,26.375 L18.409,26.375 L18.409,27.832 Z M18.409,18.842 L32.855,18.842 L32.855,17.85 C32.855,17.6639991 32.7981672,17.5400003 32.6845,17.478 C32.5708328,17.4159997 32.4210009,17.385 32.235,17.385 L18.998,17.385 C18.729332,17.385 18.5640003,17.4211663 18.502,17.4935 C18.4399997,17.5658337 18.409,17.6846658 18.409,17.85 L18.409,18.842 Z M18.409,23.306 L32.855,23.306 L32.855,21.911 L18.409,21.911 L18.409,23.306 Z M58.415,12.363 C58.6630012,12.7143351 58.9006655,13.0604983 59.128,13.4015 C59.3553345,13.7425017 59.5826655,14.0886649 59.81,14.44 C60.0166677,14.7706683 60.0786671,15.0909984 59.996,15.401 L61.794,15.401 L61.794,11.433 C60.7399947,11.4743335 59.6963385,11.5053332 58.663,11.526 C57.6296615,11.5466668 56.6376714,11.5673332 55.687,11.588 C54.8603292,11.588 54.2971682,11.4795011 53.9975,11.2625 C53.6978318,11.0454989 53.5686665,10.6993357 53.61,10.224 C53.6306668,9.95533199 53.6668331,9.72800093 53.7185,9.542 C53.7701669,9.35599907 53.863166,9.20616723 53.9975,9.0925 C54.131834,8.97883276 54.3229988,8.89616692 54.571,8.8445 C54.8190012,8.79283307 55.1599978,8.767 55.594,8.767 C56.7720059,8.74633323 58.0429932,8.71533354 59.407,8.674 C60.7710068,8.63266646 62.1194933,8.57583369 63.4525,8.5035 C64.7855067,8.4311663 66.0513273,8.33300062 67.25,8.209 C68.4486727,8.08499938 69.4716624,7.93000093 70.319,7.744 C70.9803366,7.64066615 71.4711651,7.66649922 71.7915,7.8215 C72.1118349,7.97650077 72.3339994,8.29166429 72.458,8.767 C72.6026674,9.32500279 72.5510012,9.74866522 72.303,10.038 C72.0549988,10.3273348 71.528004,10.5339994 70.722,10.658 C69.9366627,10.7820006 69.048005,10.8956661 68.056,10.999 C67.063995,11.1023338 66.0203388,11.1849997 64.925,11.247 L64.925,15.401 L66.971,15.401 C66.8676661,15.1736655 66.8521663,14.9515011 66.9245,14.7345 C66.9968337,14.5174989 67.1466655,14.2643348 67.374,13.975 C67.7046683,13.5203311 67.9681657,13.1121685 68.1645,12.7505 C68.3608343,12.3888315 68.5209994,12.0426683 68.645,11.712 C68.7276671,11.4846655 68.8464992,11.3090006 69.0015,11.185 C69.1565008,11.0609994 69.3269991,10.9835002 69.513,10.9525 C69.6990009,10.9214998 69.8798325,10.9318331 70.0555,10.9835 C70.2311675,11.0351669 70.3913326,11.1023329 70.536,11.185 C70.9493354,11.453668 71.1611666,11.7326652 71.1715,12.022 C71.1818334,12.3113348 71.0733345,12.7349972 70.846,13.293 C70.7013326,13.6030015 70.5256677,13.9336649 70.319,14.285 C70.1123323,14.6363351 69.8643348,15.0083314 69.575,15.401 L72.148,15.401 C72.6233357,15.401 72.9746655,15.4991657 73.202,15.6955 C73.4293345,15.8918343 73.543,16.258664 73.543,16.796 C73.543,17.3540028 73.4293345,17.7208325 73.202,17.8965 C72.9746655,18.0721675 72.6233357,18.16 72.148,18.16 L67.87,18.16 C68.5933369,18.7593363 69.3063298,19.2914977 70.009,19.7565 C70.7116702,20.2215023 71.4556627,20.6399981 72.241,21.012 C72.9436702,21.3633351 73.3569994,21.7249981 73.481,22.097 C73.6050006,22.4690019 73.5533345,22.8926643 73.326,23.368 C73.1193323,23.7813354 72.8403351,24.0189997 72.489,24.081 C72.1376649,24.1430003 71.6623363,23.9983351 71.063,23.647 C70.1536621,23.1509975 69.1668387,22.4845042 68.1025,21.6475 C67.0381613,20.8104958 65.9790053,19.8133391 64.925,18.656 L64.925,21.539 C64.925,22.076336 64.7855014,22.4689988 64.5065,22.717 C64.2274986,22.9650012 63.8503357,23.089 63.375,23.089 C62.837664,23.089 62.4398346,22.9753345 62.1815,22.748 C61.9231654,22.5206655 61.794,22.1176696 61.794,21.539 L61.794,18.718 C61.1739969,19.3380031 60.6056693,19.8804977 60.089,20.3455 C59.5723308,20.8105023 59.0660025,21.2289981 58.57,21.601 C58.0739975,21.9730019 57.557336,22.3294983 57.02,22.6705 C56.482664,23.0115017 55.8936699,23.3679981 55.253,23.74 C54.6536637,24.0913351 54.1680019,24.2101672 53.796,24.0965 C53.4239981,23.9828328 53.1553342,23.7503351 52.99,23.399 C52.8039991,23.0063314 52.7213332,22.6860012 52.742,22.438 L52.556,22.624 C52.2253317,22.892668 51.8998349,23.1406655 51.5795,23.368 C51.2591651,23.5953345 50.9336683,23.8226655 50.603,24.05 L50.603,32.885 C50.603,34.0630059 50.3963354,34.9723301 49.983,35.613 C49.5696646,36.2536699 48.8980047,36.574 47.968,36.574 C47.6786652,36.574 47.3118356,36.5481669 46.8675,36.4965 C46.4231644,36.4448331 45.9633357,36.3466674 45.488,36.202 C44.9093304,36.0366658 44.552834,35.7215023 44.4185,35.2565 C44.284166,34.7914977 44.2996658,34.3006692 44.465,33.784 C44.7750016,32.8333286 45.4879944,32.5026652 46.604,32.792 C46.9553351,32.8953338 47.1929994,32.8850006 47.317,32.761 C47.4410006,32.6369994 47.503,32.3993351 47.503,32.048 L47.503,25.755 C47.3376658,25.8376671 47.1723342,25.9151663 47.007,25.9875 C46.8416658,26.0598337 46.6763342,26.1269997 46.511,26.189 C45.8909969,26.4163345 45.3691688,26.4473342 44.9455,26.282 C44.5218312,26.1166658 44.2583338,25.7136699 44.155,25.073 C44.0516662,24.5563307 44.1239988,24.0913354 44.372,23.678 C44.6200012,23.2646646 45.0333304,22.9443345 45.612,22.717 C46.335337,22.4276652 46.965664,22.1383348 47.503,21.849 L47.503,16.424 L45.519,16.424 C44.9609972,16.424 44.5683345,16.2741682 44.341,15.9745 C44.1136655,15.6748318 44,15.2253363 44,14.626 C44,14.0059969 44.1136655,13.5461682 44.341,13.2465 C44.5683345,12.9468318 44.9609972,12.797 45.519,12.797 L47.503,12.797 L47.503,8.798 C47.503,8.13666336 47.6528318,7.67166801 47.9525,7.403 C48.2521682,7.13433199 48.6396643,7 49.115,7 C50.107005,7 50.603,7.59932734 50.603,8.798 L50.603,12.797 L51.936,12.797 C53.010672,12.797 53.548,13.4066606 53.548,14.626 C53.548,15.8246727 53.010672,16.424 51.936,16.424 L50.603,16.424 L50.603,19.896 C50.6443335,19.8546665 50.7269994,19.7926671 50.851,19.71 C51.3056689,19.3586649 51.7138315,19.1881666 52.0755,19.1985 C52.4371685,19.2088334 52.7936649,19.4103314 53.145,19.803 C53.3103342,20.1130015 53.4136665,20.4126652 53.455,20.702 C53.4963335,20.9913348 53.4653339,21.2806652 53.362,21.57 C53.4446671,21.5286665 53.5324995,21.4821669 53.6255,21.4305 C53.7185005,21.3788331 53.8166662,21.3220003 53.92,21.26 C54.8086711,20.8053311 55.6249963,20.3506689 56.369,19.896 C57.1130037,19.4413311 57.9086624,18.8626702 58.756,18.16 L55.222,18.16 C54.7053308,18.16 54.3436677,18.0721675 54.137,17.8965 C53.9303323,17.7208325 53.827,17.3540028 53.827,16.796 C53.827,16.258664 53.9303323,15.8918343 54.137,15.6955 C54.3436677,15.4991657 54.7053308,15.401 55.222,15.401 L57.206,15.401 C57.0613326,15.1736655 56.9166674,14.9515011 56.772,14.7345 C56.6273326,14.5174989 56.4826674,14.3056677 56.338,14.099 C56.0279985,13.6443311 55.8678334,13.2671682 55.8575,12.9675 C55.8471666,12.6678318 55.9866652,12.3630015 56.276,12.053 C56.5653348,11.7636652 56.911498,11.6344998 57.3145,11.6655 C57.717502,11.6965002 58.0843317,11.9289978 58.415,12.363 Z M71.807,33.505 C71.807,34.5383385 71.5745023,35.2823311 71.1095,35.737 C70.6444977,36.1916689 69.9056717,36.419 68.893,36.419 L57.671,36.419 C56.6583283,36.419 55.9091691,36.1916689 55.4235,35.737 C54.9378309,35.2823311 54.695,34.5383385 54.695,33.505 L54.695,26.561 C54.695,25.4449944 54.9326643,24.6751688 55.408,24.2515 C55.8833357,23.8278312 56.6376615,23.616 57.671,23.616 L68.893,23.616 C69.9056717,23.616 70.6444977,23.8484977 71.1095,24.3135 C71.5745023,24.7785023 71.807,25.5276615 71.807,26.561 L71.807,33.505 Z M68.707,31.273 L64.832,31.273 L64.832,33.66 L68.552,33.66 C68.6553339,33.66 68.707,33.5876674 68.707,33.443 L68.707,31.273 Z M61.732,26.375 L58.074,26.375 C57.9293326,26.375 57.857,26.4369994 57.857,26.561 L57.857,28.762 L61.732,28.762 L61.732,26.375 Z M68.707,26.592 C68.707,26.4473326 68.6346674,26.375 68.49,26.375 L64.832,26.375 L64.832,28.762 L68.707,28.762 L68.707,26.592 Z M61.732,31.273 L57.857,31.273 L57.857,33.474 C57.857,33.5980006 57.9293326,33.66 58.074,33.66 L61.732,33.66 L61.732,31.273 Z"/>
  </g>
</svg>
