<svg id="S3_btn" xmlns="http://www.w3.org/2000/svg" xmlns:xlink="http://www.w3.org/1999/xlink" width="196" height="76" viewBox="0 0 196 76">
  <defs>
    <style>
      .cls-1 {
        fill: #f78973;
        filter: url(#filter);
      }

      .cls-2 {
        fill: #fff;
        fill-rule: evenodd;
      }
    </style>
    <filter id="filter" x="0" y="0" width="196" height="76" filterUnits="userSpaceOnUse">
      <feOffset result="offset" dy="5" in="SourceAlpha"/>
      <feGaussianBlur result="blur" stdDeviation="4"/>
      <feFlood result="flood" flood-color="#d46954" flood-opacity="0.2"/>
      <feComposite result="composite" operator="in" in2="blur"/>
      <feBlend result="blend" in="SourceGraphic"/>
    </filter>
  </defs>
  <rect id="圆角矩形_1" data-name="圆角矩形 1" class="cls-1" x="15" y="10" width="164.5" height="45" rx="5" ry="5"/>
  <path id="进入首页" class="cls-2" d="M471.006,675.075c-0.4-.879-1.14-2.419-1.6-3.319l-1.76.68a10.5,10.5,0,0,1,1.56,3.419Zm-0.44,10.6v-5.719a14.929,14.929,0,0,1,.14-2.34,17.98,17.98,0,0,1-3.74,0v1.72a11.4,11.4,0,0,1,1.96-.08v6.379a8.808,8.808,0,0,0-2.36,1.8,6.861,6.861,0,0,1,1.34,1.3c1.48-1.98,1.74-2.02,3.02-1.36,2.539,1.32,5.419,1.68,13.138,1.24a4.042,4.042,0,0,1,.559-2.039c-6.378,1.019-11.038.7-12.917-.34A9.624,9.624,0,0,0,470.566,685.674ZM479.3,675.9v3.22h-2.759c0.08-1.12.1-2.24,0.1-3.22H479.3Zm1.52-1.319v-1.44a3.564,3.564,0,0,1,.28-1.52c0.28-.32.22-0.48-0.14-0.46a11.092,11.092,0,0,1-1.82-.08,24.782,24.782,0,0,1,.16,3.5h-2.679a9.219,9.219,0,0,1,.22-2.94c0.28-.34.26-0.42-0.06-0.42a10.749,10.749,0,0,1-1.88-.14c0.08,0.6.22,2.24,0.24,3.5a25.914,25.914,0,0,1-2.859-.16v1.639a26,26,0,0,1,2.879-.16c-0.02,1.5-.04,2.48-0.1,3.22a30.555,30.555,0,0,1-3.259-.16v1.64c0.819-.08,1.959-0.14,3.1-0.16-0.42,2.479-1.42,4.179-2.959,5.019a4.231,4.231,0,0,1,2.139.86,11.009,11.009,0,0,0,2.34-5.879H479.3v2.219c0,1.28-.06,2.6-0.14,3.6h1.8c-0.1-1-.14-2.3-0.14-3.6v-2.219c1.22,0,2.54.06,3.46,0.16v-1.64c-0.92.1-2.26,0.16-3.46,0.16V675.9a28.7,28.7,0,0,1,3.02.16v-1.639A28.7,28.7,0,0,1,480.824,674.576Zm13.881,0.679a21.458,21.458,0,0,1-2.839,7.059,14.505,14.505,0,0,1-4.88,4.8,4.264,4.264,0,0,1,1.76,1.28,19.706,19.706,0,0,0,4.579-5.119,22.657,22.657,0,0,0,2.54-6.279,12.157,12.157,0,0,1,.96,2.3c1.56,5.179,2.9,6.839,6.179,9.118a5.887,5.887,0,0,1,1.639-2c-3.659-1.7-5.1-3.26-6.678-8.159a12.319,12.319,0,0,0-4.72-6.859l-1.379,1.36A9.931,9.931,0,0,1,494.705,675.255Zm25.4,11.079h-8.758v-1.78H520.1v1.78Zm0-3.1h-8.758v-1.68H520.1v1.68Zm0-3h-8.758V678.6H520.1v1.64Zm-5.659-6.779a14.819,14.819,0,0,1-1.32-2.4l-1.679.56a7.78,7.78,0,0,1,1.319,2.46Zm3.82,0.7a9.347,9.347,0,0,1,1.779-2.12c0.3-.2.26-0.38,0.02-0.42a7.215,7.215,0,0,1-1.819-.66,9.485,9.485,0,0,1-1.6,3.2c-5.019,0-7.759-.04-9.9-0.18v1.779c1.84-.12,3.66-0.18,8.139-0.18a6.3,6.3,0,0,1-.42,1.72c-2.08-.02-3.879-0.1-4.9-0.18a11.251,11.251,0,0,1,.16,2.2v6.5a32,32,0,0,1-.18,3.339h1.8v-1.5H520.1v1.46H522c-0.1-1.06-.16-2.2-0.16-3.279v-6.559a13.618,13.618,0,0,1,.16-2.16c-1.06.12-3.48,0.18-6,.18a10.648,10.648,0,0,0,.62-1.72c5.639,0.02,6.959.06,8.158,0.18v-1.8C523.724,674.056,522.4,674.116,518.265,674.156Zm25.479,13.5c-1.62-1.019-4.12-2.419-5.839-3.3l-1.1,1.44a22.765,22.765,0,0,1,5.519,3.619Zm-6.659-7.938c0.24-.2.22-0.34-0.14-0.3a8.636,8.636,0,0,1-1.92-.14,14.152,14.152,0,0,1-.48,4.439c-0.58,2.1-3.639,3.519-7.079,3.779a3.691,3.691,0,0,1,1.2,1.76c3.54-.8,6.239-2.18,7.339-4.439a9.093,9.093,0,0,0,.86-3.98A2.348,2.348,0,0,1,537.085,679.715Zm-1.76-5.819a22.272,22.272,0,0,1-.26,2.439c-2.859-.02-4.459-0.08-4.979-0.14a8.233,8.233,0,0,1,.1,1.54v5.019a15.172,15.172,0,0,1-.12,1.96h1.92v-6.9h8.078v6.7H542a12.388,12.388,0,0,1-.14-1.96v-4.819a8,8,0,0,1,.12-1.54c-1.14.1-2.3,0.14-5.239,0.14a19.513,19.513,0,0,1,.5-2.439c3.119,0,5.279.06,7.059,0.16v-1.8c-2.02.12-4.52,0.16-8.339,0.16s-6.3-.04-8.339-0.16v1.8C529.486,673.936,531.866,673.9,535.325,673.9Z" transform="translate(-415 -648)"/>
  <path id="矩形_1_拷贝" data-name="矩形 1 拷贝" class="cls-2" d="M554.95,688.931l-1.061-1.06,7.779-7.778-7.779-7.779,1.061-1.06,8.839,8.839Z" transform="translate(-415 -648)"/>
</svg>
