<svg id="S3_pop2" xmlns="http://www.w3.org/2000/svg" width="113.5" height="59" viewBox="0 0 113.5 59">
  <defs>
    <style>
      .cls-1 {
        fill: #f78973;
      }

      .cls-1, .cls-2 {
        fill-rule: evenodd;
      }

      .cls-2 {
        fill: #fff;
      }
    </style>
  </defs>
  <path id="形状_53_拷贝" data-name="形状 53 拷贝" class="cls-1" d="M404,200.5H371.986L376,214l-19.286-13.5H300.5a5,5,0,0,1-5-5V160a5,5,0,0,1,5-5H404a5,5,0,0,1,5,5v35.5A5,5,0,0,1,404,200.5Z" transform="translate(-295.5 -155)"/>
  <path id="比PC省58元" class="cls-2" d="M313.48,177.055c1.53,0.015,2.49.045,3.48,0.1v-1.305c-0.96.06-2.01,0.09-3.48,0.09V173.8a3.058,3.058,0,0,1,.225-1.515c0.135-.195.105-0.27-0.12-0.255a6.678,6.678,0,0,1-1.44-.075c0.045,0.495.06,1.08,0.06,2.49v8.07a1.158,1.158,0,0,1-.45,1.215,3.8,3.8,0,0,1,.915,1.23,7.551,7.551,0,0,1,1.35-.975l3.09-1.905a2.015,2.015,0,0,1-.225-1.4l-3.4,2.2v-5.835Zm5.895,1.275a39.689,39.689,0,0,1,4.274-2.415c0.315-.075.345-0.165,0.15-0.285a4.057,4.057,0,0,1-1.095-1.155,19.887,19.887,0,0,1-3.329,2.565v-3.885a1.943,1.943,0,0,1,.27-1.29c0.195-.27.165-0.33-0.09-0.315a6.939,6.939,0,0,1-1.53-.09,17.914,17.914,0,0,1,.09,2.16v9c0,1.695.195,2,2.52,2,2.534,0,3-.285,3.764-2.595a2.709,2.709,0,0,1-1.38-.915c-0.525,2.145-.645,2.235-2.039,2.235-1.485,0-1.605-.075-1.605-0.735V178.33ZM326.2,184h1.725v-4.5a4.859,4.859,0,0,0,.975.075c2.07,0,4.29-.96,4.29-3.75a3.19,3.19,0,0,0-1.035-2.475,4.664,4.664,0,0,0-3.165-.915,16.139,16.139,0,0,0-2.79.225V184Zm1.725-10.095a6.071,6.071,0,0,1,1.17-.1,2.053,2.053,0,0,1,2.355,2.1c0,1.47-.96,2.295-2.55,2.295a3.586,3.586,0,0,1-.975-0.09v-4.2ZM342.1,182.29a5.12,5.12,0,0,1-2.069.405c-2.37,0-3.84-1.575-3.84-4.395,0-2.985,1.65-4.485,3.87-4.485a4.725,4.725,0,0,1,2.01.42l0.375-1.425a5.561,5.561,0,0,0-2.445-.45c-3.18,0-5.64,2.13-5.64,6.03,0,3.66,2.145,5.775,5.34,5.775a6.585,6.585,0,0,0,2.7-.48Zm6.315-8.61c0.3-.12.315-0.195,0-0.33a3.882,3.882,0,0,1-1.095-.69,9.66,9.66,0,0,1-2.8,2.82,2.938,2.938,0,0,1,1.125.66c0.615-.51,1.454-1.3,1.8-1.65A4.221,4.221,0,0,1,348.414,173.68Zm8.745,0.96a37.19,37.19,0,0,0-3-2.235l-0.915.87a10.589,10.589,0,0,1,2.925,2.355Zm-9.57,7.47h6.375v1.05h-6.375v-1.05Zm2.01-4.86a19.745,19.745,0,0,0,2.85-1.455,3.6,3.6,0,0,1,1.305-.72c0.21-.015.225-0.09,0.015-0.225a4.319,4.319,0,0,1-.93-0.915,7.388,7.388,0,0,1-1.725,1.4v-3.21a0.424,0.424,0,0,1,.18-0.405c0.285-.15.24-0.27-0.015-0.255a9.017,9.017,0,0,1-1.605-.135,6.964,6.964,0,0,1,.165,1.515v3.195a16.447,16.447,0,0,1-6.359,1.89,2.84,2.84,0,0,1,.735,1.275,20.583,20.583,0,0,0,2.144-.675v4.74a15.266,15.266,0,0,1-.1,1.77h1.334v-0.96h6.375v0.765H355.3a8.743,8.743,0,0,1-.12-1.6v-4.86a8.443,8.443,0,0,1,.09-1.26,14.887,14.887,0,0,1-2.355.135H349.6Zm4.365,2.01h-6.375v-1.02h6.375v1.02Zm-6.375.915h6.375v1.02h-6.375v-1.02Zm13.195,2.841a5.777,5.777,0,0,0,3.879,1.277,5.454,5.454,0,0,0,4.652-2.274,6.2,6.2,0,0,0,1.231-3.785,5.736,5.736,0,0,0-1.524-4.136,5.033,5.033,0,0,0-5.965-1.043l0.516-2.918h6.211v-3.082h-8.707L359.389,176l2.672,0.387a3.354,3.354,0,0,1,2.543-1.254,2.364,2.364,0,0,1,1.846.791,3.457,3.457,0,0,1,.709,2.373,3.808,3.808,0,0,1-.715,2.525,2.211,2.211,0,0,1-1.746.838,2.26,2.26,0,0,1-1.594-.65,2.818,2.818,0,0,1-.832-1.764l-3.281.34A5.26,5.26,0,0,0,360.784,183.016Zm12.152-6.487a4.93,4.93,0,0,0-.691,2.561,4.8,4.8,0,0,0,1.84,3.984,6.1,6.1,0,0,0,3.9,1.231,5.514,5.514,0,0,0,4.037-1.489,5.176,5.176,0,0,0,1.518-3.867,4.437,4.437,0,0,0-.744-2.543,4.612,4.612,0,0,0-2.174-1.676,3.929,3.929,0,0,0,1.746-1.423,3.748,3.748,0,0,0,.621-2.127A4.142,4.142,0,0,0,381.638,168a6.412,6.412,0,0,0-7.618,0,4.16,4.16,0,0,0-1.341,3.176,3.87,3.87,0,0,0,.58,2.068,3.831,3.831,0,0,0,1.857,1.482A4.458,4.458,0,0,0,372.936,176.529Zm3.422-6.6a2.044,2.044,0,0,1,1.512-.563A1.914,1.914,0,0,1,379.9,171.4a2.069,2.069,0,0,1-.562,1.541,2.04,2.04,0,0,1-1.5.557,2.018,2.018,0,0,1-1.483-.551,2.062,2.062,0,0,1-.556-1.535A2.011,2.011,0,0,1,376.358,169.926Zm-0.275,7.043a2.058,2.058,0,0,1,1.8-.832,2.248,2.248,0,0,1,1.722.732,2.739,2.739,0,0,1,.68,1.94,3.036,3.036,0,0,1-.668,2.115,2.186,2.186,0,0,1-1.687.732,2.262,2.262,0,0,1-1.741-.762A3.311,3.311,0,0,1,376.083,176.969ZM391.1,177.28h1.8v5.5c0,1.2.36,1.53,2.759,1.53,2.325,0,2.73-.255,3.375-2.52a2.092,2.092,0,0,1-1.32-.84c-0.375,1.785-.6,2.1-1.964,2.1s-1.515-.045-1.515-0.69V177.28c1.455,0,3.014.045,3.779,0.1V176.02c-0.84.06-2.49,0.1-5.924,0.1s-5.04-.045-5.91-0.1v1.365c0.735-.09,2.145-0.1,3.555-0.1,0.075,3.795-.855,5.28-3.93,6.525a3.452,3.452,0,0,1,1.185,1.23C389.96,183.115,391.175,181.6,391.1,177.28Zm5.564-3.585V172.27c-1.02.1-2.744,0.135-4.6,0.135s-3.5-.045-4.53-0.135V173.7c1.02-.075,2.715-0.12,4.575-0.12S395.674,173.62,396.664,173.7Z" transform="translate(-295.5 -155)"/>
</svg>
