<svg id="S3_text" xmlns="http://www.w3.org/2000/svg" width="441.531" height="108.344" viewBox="0 0 441.531 108.344">
  <defs>
    <style>
      .cls-1 {
        fill: #f78973;
      }

      .cls-1, .cls-2 {
        fill-rule: evenodd;
      }

      .cls-2 {
        fill: #cfcbcf;
      }
    </style>
  </defs>
  <path id="iPad专享" class="cls-1" d="M426.19,533.251v25.436h2.46V533.251h-2.46Zm0-9.692v5.56h2.46v-5.56h-2.46Zm12.1,34.734V544.272c0.541,0,1.082.049,1.722,0.049,1.377,0.049,2.8.147,4.231,0.147a20.51,20.51,0,0,0,8.364-1.722c2.9-1.721,4.329-5.165,4.329-8.511,0-3.64-1.771-7.478-4.526-9.052a13.947,13.947,0,0,0-6.347-1.23c-1.722,0-3.542.147-5.461,0.3a24.242,24.242,0,0,1-2.607.2h-2.165v33.848h2.46Zm2.509-31.585c1.919-.148,3.542-0.295,5.264-0.295a10.665,10.665,0,0,1,5.166.984c2.017,1.131,3.247,3.886,3.247,6.838a7.347,7.347,0,0,1-3.2,6.445c-1.771,1.132-4.329,1.329-7.035,1.329-1.328,0-2.8-.1-4.133-0.148-0.639,0-1.279-.049-1.82-0.049V526.905C439.129,526.855,440.015,526.806,440.8,526.708Zm20.91,9.5a50.014,50.014,0,0,1,7.183-.787c3.739,0,6.494,1.033,6.494,4.625v3.3c-0.885-.049-1.869-0.1-2.853-0.1a33.236,33.236,0,0,0-6.888.689c-3.1.787-5.412,4.231-5.412,7.675a7.329,7.329,0,0,0,2.952,6.052,7.075,7.075,0,0,0,4.379,1.279,20.29,20.29,0,0,0,7.773-1.87v1.673h2.509c0-6.248.049-12.4,0.049-18.695,0-5.461-3.837-7.085-9-7.085a44.429,44.429,0,0,0-7.527.787Zm5.855,20.27a4.912,4.912,0,0,1-2.9-.738A5.215,5.215,0,0,1,462.7,551.6c0-2.509,1.476-4.87,3.493-5.313a32.764,32.764,0,0,1,6.347-.591,26.084,26.084,0,0,1,2.853.1l-0.049,8.511A16.972,16.972,0,0,1,467.567,556.473ZM498.906,523.9v9.4c-0.59-.049-1.23-0.147-1.918-0.246a39.236,39.236,0,0,0-4.33-.295,9.087,9.087,0,0,0-5.756,1.575c-2.854,2.066-4.084,6.691-4.084,11.266s1.28,9,3.543,10.873a12.809,12.809,0,0,0,7.33,2.017,43.434,43.434,0,0,0,6.3-.59h1.377v-34h-2.46Zm-5.215,32.077c-2.312,0-4.428-.295-5.854-1.427-1.624-1.328-2.559-4.969-2.559-8.954,0-3.739,1.083-7.577,3.1-9.3a8.025,8.025,0,0,1,4.28-1.083c1.181,0,2.657.2,4.034,0.345,0.738,0.1,1.476.2,2.214,0.246v19.728A32.941,32.941,0,0,1,493.691,555.981Zm29.945-29.4H509.8q-1.54,1.154,0,2.307h13.453l-1.922,7.687H506.724q-1.925,1.154,0,2.307h13.837l-1.537,4.612q-1.541,5,3.843,4.613h15.375q3.843,0,1.922,1.921a62.071,62.071,0,0,1-9.993,7.688q-6.537-2.307-10.763-3.459-2.307.769-.384,2.306,9.607,3.072,24.215,8.072,2.307-.389.769-2.307l-11.147-3.843a51.045,51.045,0,0,0,9.994-8.072q3.072-4.226-3.844-4.613H523.636q-3.076.388-2.306-2.306l1.537-4.612h27.675q1.92-1.154,0-2.307H523.636l1.922-7.687h22.678q1.536-1.154,0-2.307H525.942l1.538-6.534q-0.771-1.918-2.306-.384Zm53.813-3.075H556.308q-1.541,1.154,0,2.307h43.819q1.536-1.154,0-2.307H580.139a19.119,19.119,0,0,0-2.306-4.612q-1.923-.383-1.922,1.537a8.711,8.711,0,0,1,1.538,3.075h0Zm-15.76,9.225V535.8q0,4.23,3.844,3.844H590.9q4.226,0.389,3.844-3.844v-3.075q0.383-3.841-3.844-3.843H565.533q-3.846,0-3.844,3.843h0ZM592.44,533.5v1.538q0.382,2.692-2.307,2.306H566.3q-2.307.387-2.306-2.306V533.5a2.038,2.038,0,0,1,2.306-2.306h23.831q2.689,0,2.307,2.306h0Zm-30.751,11.532h27.676q2.688,0-9.994,4.228a2.248,2.248,0,0,0-1.538,1.922l0.769,1.537H556.693q-1.54,1.154,0,2.306h23.062q2.69,6.149.769,7.3-4.23,1.538-11.916-1.537-1.923.382-1.153,2.306,8.071,3.072,13.838,1.538,4.224-1.923,1.153-9.61h18.065q1.536-1.152,0-2.306H581.293q-1.154-1.536,0-1.922,8.837-2.69,11.915-5,1.536-2.688-3.075-3.075H561.689a1.443,1.443,0,0,0,0,2.307h0Z" transform="translate(-306.875 -518.812)"/>
  <path id="专属优惠聚集地_好货不容错过" data-name="专属优惠聚集地，好货不容错过" class="cls-2" d="M318.382,601.388h-8.915a0.8,0.8,0,0,0,0,1.485h8.667l-1.238,4.953h-9.41q-1.239.743,0,1.486H316.4l-0.991,2.971q-0.993,3.222,2.476,2.972h9.906q2.475,0,1.238,1.238a40,40,0,0,1-6.439,4.953q-4.211-1.486-6.933-2.229-1.487.5-.248,1.486,6.19,1.98,15.6,5.2,1.486-.249.495-1.485l-7.181-2.477a32.826,32.826,0,0,0,6.438-5.2q1.98-2.722-2.476-2.972h-9.9q-1.983.251-1.486-1.486l0.99-2.971h17.83q1.236-.742,0-1.486H318.382l1.238-4.953h14.61a0.8,0.8,0,0,0,0-1.485H319.867l0.991-4.21q-0.5-1.236-1.486-.248Zm23.03-1.486v12.381q0.246,7.68-2.229,12.382,0.246,1.236,1.238.743a25.105,25.105,0,0,0,2.477-12.629v-9.906h20.8q2.723,0.25,2.476-2.228v-0.991q0.247-2.229-2.476-2.229H343.888a2.189,2.189,0,0,0-2.476,2.477h0Zm23.277,0.247q0.247,1.486-1.485,1.239H342.9V600.4a1.313,1.313,0,0,1,1.485-1.486H363.2q1.732,0,1.485,1.238h0Zm-9.905,11.392h-5.7a1.259,1.259,0,1,1,0-2.477h5.7v2.477Zm9.162-1.239q0.247,1.486-1.485,1.239H356.27v-2.477h6.191q1.732,0,1.485,1.238h0Zm-5.447,6.934,1.485,1.981-3.714.5V616h7.676q1.732,0,1.486,1.486v3.467q0.494,3.465-2.228,3.467a13.384,13.384,0,0,1-5.448-.991q-1.239.493-.5,1.486a18.043,18.043,0,0,0,6.191.99q3.961-.249,3.467-5.2v-3.714q0.248-2.477-2.476-2.477H356.27v-1.486h6.686q2.722,0.25,2.476-2.228v-0.991q0.247-2.229-2.476-2.229H356.27v-1.733l7.181-.5q0.99-.99-0.247-1.486-8.423.743-17.83,0.99a0.8,0.8,0,0,0,0,1.486l9.41-.5v1.733h-6.191q-2.478,0-2.476,2.229V610.8q0,2.478,2.476,2.228h6.191v1.486H346.86a2.189,2.189,0,0,0-2.477,2.477v8.419a0.805,0.805,0,0,0,1.486,0v-7.924A1.313,1.313,0,0,1,347.355,616h7.429v3.962l-7.429.5a0.8,0.8,0,0,0,0,1.486,96.384,96.384,0,0,0,13.62-1.486l1.486,1.982a0.893,0.893,0,0,0,1.238-.991,47.6,47.6,0,0,0-3.962-5.2,0.892,0.892,0,0,0-1.238.99h0Zm17.086-19.811a33.717,33.717,0,0,1-5.448,14.858q0,1.24,1.239.743a17.87,17.87,0,0,0,2.476-4.457v16.592q0.743,1.236,1.486,0V605.6a45.814,45.814,0,0,0,1.733-8.172q-0.743-1.236-1.486,0h0Zm9.658,5.944h-7.181q-1.239.742,0,1.485h7.181q-1.239,12.63-8.42,19.811-0.5,1.236.743,1.238,7.923-7.428,9.163-21.049h12.134q1.236-.743,0-1.485H386.729l0.248-5.944a0.806,0.806,0,0,0-1.486,0Zm3.715-4.458a51.994,51.994,0,0,1,6.438,2.972q1.236,0,.743-1.238a58.893,58.893,0,0,0-6.438-3.22q-1.24,0-.743,1.486h0Zm-0.743,23.03q0,3.465,2.971,3.22h3.962q4.209,0.246,3.963-6.934-0.744-1.486-1.486,0,0.246,5.943-2.972,5.448h-3.219q-1.736.246-1.733-1.734v-15.6q-0.744-1.236-1.486,0v15.6Zm27.735-22.534H404.063a0.8,0.8,0,0,0,0,1.485H415.95v2.229h-6.934q-2.971,0-2.972,2.724v3.715q0,2.724,2.477,2.476h7.429v2.724l-11.144.248q-1.239.743,0,1.485l22.535-.743q1.236,1.486,2.229,2.724,1.485,0.5,1.238-.99a55.074,55.074,0,0,0-3.962-4.705q-1.736-.493-1.238.99l0.742,0.743-8.914.248v-2.724h7.676q2.971,0.249,2.724-2.724v-3.467q0.247-2.723-2.971-2.724h-7.429v-2.229h12.381a0.8,0.8,0,0,0,0-1.485H417.436v-2.229q-0.744-1.236-1.486,0v2.229Zm0,7.429h-8.42v-0.743q0-1.486,1.734-1.486h6.686v2.229Zm10.4-.743v0.743h-8.914v-2.229h7.181q1.978,0,1.733,1.486h0Zm-10.4,4.457h-6.934q-1.487.249-1.486-1.486v-0.743h8.42v2.229Zm10.4-1.486q0.247,1.736-1.485,1.486h-7.429v-2.229h8.914v0.743Zm-0.99,9.163a44.739,44.739,0,0,1,4.7,6.686q1.485,0.493,1.238-.991a38.475,38.475,0,0,0-4.7-6.686c-0.99-.329-1.405,0-1.238.991h0Zm-22.287,6.191q-0.25,1.485,1.238.99a37.106,37.106,0,0,0,4.705-7.429q0-1.236-1.238-.743a36.045,36.045,0,0,1-4.705,7.182h0Zm7.429-.991q0,2.722,2.971,2.476h8.915q3.716,0.493,3.467-4.952a0.805,0.805,0,0,0-1.486,0q0.247,3.714-1.733,3.467h-8.667q-1.983.246-1.981-1.486v-4.458q-0.744-1.236-1.486,0v4.953Zm8.172-.248c0.659,0.5,1.072.329,1.238-.5a42.084,42.084,0,0,0-2.229-5.448q-0.991-.742-1.238.5,0.99,2.48,2.229,5.448h0Zm17.087-24.268h1.485v11.144l-2.228.247q-1.239.744,0,1.486l11.638-1.733v1.733a0.8,0.8,0,0,0,1.486,0V598.911h0.5a0.806,0.806,0,0,0,0-1.486H435.761a0.8,0.8,0,0,0,0,1.486h0Zm15.848-1.486a0.8,0.8,0,0,0,0,1.486h7.677q1.732,0,.99,1.486a19.708,19.708,0,0,1-3.714,4.7q-2.229-2.475-3.715-4.21-1.736-.494-1.238.991a44.751,44.751,0,0,0,3.715,4.21,34.235,34.235,0,0,1-6.191,3.714q-0.993,1.239.743,1.238a63.194,63.194,0,0,0,6.686-3.962q1.732,1.736,4.21,3.962,1.485,0.5,1.238-.99-1.983-1.732-4.21-3.962,4.208-4.458,4.21-6.686,0.246-1.98-2.477-1.982h-7.924Zm-4.953,3.963h-7.924v-2.477h7.924v2.477Zm0,3.962h-7.924v-2.477h7.924v2.477Zm0,3.467-7.924.99v-2.971h7.924v1.981Zm-1.238,5.448q-1.239.992,0.248,1.485a18.857,18.857,0,0,0,2.476-.99v10.9a0.805,0.805,0,0,0,1.486,0v-8.42q6.436,6.193,12.877,7.925,1.486-.5.248-1.486a26.471,26.471,0,0,1-9.163-4.953,30.807,30.807,0,0,0,8.172-4.953q0.493-1.236-.99-0.99a35.315,35.315,0,0,1-8.42,4.952,20.926,20.926,0,0,1-2.724-2.723v-0.743q3.714-1.486,5.943-2.477,0.99-1.236-.5-1.486a85.428,85.428,0,0,1-9.658,3.963h0Zm-9.657,9.41q-1.24,1.236.495,1.486A39.348,39.348,0,0,0,446.9,618.97q0.743-1.732-.99-1.239a28.987,28.987,0,0,1-10.153,5.944h0Zm0.495-5.944a40.231,40.231,0,0,0,8.172-4.457q0.743-1.236-.743-1.238a35.985,35.985,0,0,1-7.924,4.21q-1.24,1.239.495,1.485h0Zm29.716-13.124q-0.5,1.485.991,1.238l2.476-2.229v11.639q0.743,1.239,1.486,0v-0.99h22.287q1.236-.744,0-1.486H481.325v-2.724h10.9q1.236-.742,0-1.486h-10.9v-2.724h10.9q1.236-.743,0-1.486h-10.9v-2.476h10.9q1.236-.743,0-1.486h-9.905a36.6,36.6,0,0,0-1.486-3.467q-1.239-.99-1.486.5a22.628,22.628,0,0,1,1.238,2.972H472.41l2.229-2.972q0.247-1.485-1.238-.742a40.864,40.864,0,0,1-7.429,7.924h0Zm13.868-.248h-8.915v-2.476h8.915v2.476Zm0,4.21h-8.915v-2.724h8.915v2.724Zm0,4.21h-8.915v-2.724h8.915v2.724Zm-12.877,5.448h11.143a36.5,36.5,0,0,1-11.886,6.191q-0.993,1.236.495,1.485a36.733,36.733,0,0,0,13.125-7.181V625.9q0.743,1.486,1.485,0v-7.676a32.746,32.746,0,0,0,11.887,7.676q1.733-.249.5-1.485a32.107,32.107,0,0,1-10.153-6.191h10.4q1.236-.744,0-1.486h-12.63v-1.486a0.8,0.8,0,0,0-1.485,0v1.486H466.963q-0.993.993,0,1.486h0Zm48.288-21.544v7.676L510.3,605.6V599.9q-0.744-1.487-1.486,0v5.943l-3.467.743q-1.239.993,0.248,1.486l3.219-.743v14.363q0,4.208,3.714,3.962H520.7q5.694,0.246,5.448-8.42-0.742-1.236-1.486,0,0.248,7.429-4.457,6.934h-7.429q-2.229.246-2.476-2.476V607.083l4.952-1.238v12.877q0.744,1.239,1.486,0V605.35l5.2-1.238a1.313,1.313,0,0,1,1.486,1.485q0,4.212-.247,7.925,0,1.485-3.963.247-1.239.251-.5,1.486,5.694,1.736,5.943-1.238,0.248-4.458.248-8.667,0-3.219-2.972-2.724l-5.2,1.238v-7.181a0.805,0.805,0,0,0-1.486,0h0Zm-13.867,7.676h-3.467q-1.239.742,0,1.486h3.467v15.106a33.713,33.713,0,0,1-3.467,1.733q-0.742,1.486.743,1.486a29.946,29.946,0,0,0,8.915-5.7q0.493-1.485-.991-1.238a24.355,24.355,0,0,1-3.714,2.972V605.845h2.971q1.236-.743,0-1.486H502.87v-6.934a0.806,0.806,0,0,0-1.486,0v6.934Zm29.964,18.078a1.716,1.716,0,0,0,.99.742q0.494,0,0,1.486a14,14,0,0,1-1.733,2.477,10.041,10.041,0,0,0,4.7-3.963,3.255,3.255,0,0,0,.247-3.219,3,3,0,0,0-4.457,0,1.961,1.961,0,0,0,.248,2.477h0Zm34.173-25.012-0.5,3.963h-3.962q-0.993.991,0,1.485h3.714a68.49,68.49,0,0,1-2.229,8.172q-1.485,2.971-.5,3.715,2.229,1.982,4.458,3.962a25.114,25.114,0,0,1-5.448,5.7q-0.5,1.485.99,1.238a27.613,27.613,0,0,0,5.7-5.943,31.646,31.646,0,0,1,4.21,3.962q1.485,0.246.99-1.238a30.281,30.281,0,0,0-4.21-3.963,41.664,41.664,0,0,0,3.963-14.61q0.246-2.475-2.972-2.476h-3.219l0.5-3.715q-0.5-1.236-1.486-.248h0Zm7.924,2.972h11.144q1.486,0,.743.743-1.981,1.981-4.953,4.457-1.485,1.239-.5,2.477a24.591,24.591,0,0,1,1.981,3.219H572.95q-1.239.742,0,1.486h9.41q2.971,9.657-2.228,11.391a10.659,10.659,0,0,1-5.448-1.238q-1.24,0-.743,1.238a11.7,11.7,0,0,0,6.191,1.486q6.932-1.486,3.962-12.877h5.695a0.928,0.928,0,0,0,0-1.486H583.6a21.96,21.96,0,0,0-1.733-3.219,1.079,1.079,0,0,1-.248-1.486,36.259,36.259,0,0,0,5.7-5.448q1.236-2.229-2.476-2.229H573.445q-0.992.993,0,1.486h0Zm-2.228,3.715q-1.239,8.914-3.715,13.372-1.735-1.486-3.714-3.219-0.744-.493,0-1.982a56.908,56.908,0,0,0,2.476-9.41h3.219q1.98,0,1.734,1.239h0Zm22.287-.248q-0.5,1.239.743,1.238a35.9,35.9,0,0,0,3.714-2.972v7.677a0.8,0.8,0,0,0,1.486,0v-9.162a19.687,19.687,0,0,0,2.476-2.972q0-1.236-1.238-.743a32.167,32.167,0,0,1-7.181,6.934h0Zm13.867-2.476q-2.478.742-5.943,1.485-0.993.993,0.248,1.239a36.052,36.052,0,0,0,5.695-1.239v4.458q0,2.724,2.477,2.476h8.667q2.475,0.251,2.229-5.448a0.806,0.806,0,0,0-1.486,0q0.246,4.211-1.238,3.962h-7.677q-1.486.25-1.486-1.485v-4.458a55.989,55.989,0,0,0,9.41-3.219q0.99-1.236-.5-1.238a70.153,70.153,0,0,1-8.915,2.971v-3.467a0.806,0.806,0,0,0-1.486,0v3.963Zm-10.4,12.629V620.7a0.8,0.8,0,0,0,1.486,0v-6.438a1.313,1.313,0,0,1,1.485-1.486h14.611q1.978,0,1.733,1.486V620.7q0.99,0.993,1.486,0v-6.686q0.246-2.723-2.972-2.724H599.7a2.408,2.408,0,0,0-2.724,2.724h0Zm-2.724,10.4q-0.993.989,0.247,1.485,11.144-2.724,13.62-11.143-0.5-1.236-1.486-.248-2.478,7.678-12.381,9.906h0Zm15.353-4.21q5.694,2.971,10.4,5.943,1.485,0,.743-1.238a77.88,77.88,0,0,0-10.4-5.943q-1.486,0-.743,1.238h0Zm15.849-20.8h13.867q-3.714,10.154-15.105,15.6-0.993,1.239.5,1.485a32.579,32.579,0,0,0,13.124-10.648v19.316q0.744,1.236,1.486,0V603.616a25.567,25.567,0,0,0,1.734-4.209h11.143a0.805,0.805,0,0,0,0-1.486H625.449a0.8,0.8,0,0,0,0,1.486h0Zm15.353,7.676a113.873,113.873,0,0,1,10.9,10.4q1.486,0.5,1.238-.991a122.516,122.516,0,0,0-11.143-10.648q-1.486-.246-0.991,1.238h0Zm27.487-9.9a8.452,8.452,0,0,1,.991,2.229h-8.915q-2.971,0-3.219,2.723v3.22a0.8,0.8,0,0,0,1.486,0v-2.972q0-1.485,1.733-1.486h21.544q1.98,0,.248,3.962,0.247,1.24,1.486.5,2.229-5.943-1.734-5.943h-10.9a22.515,22.515,0,0,0-1.238-2.972,0.942,0.942,0,0,0-1.486.743h0Zm-10.153,11.391q-0.743,1.239.743,1.238a64.422,64.422,0,0,0,8.915-5.448q0.494-1.485-.99-1.238a39.077,39.077,0,0,1-8.668,5.448h0Zm15.849-3.715a91.125,91.125,0,0,1,9.163,5.2q1.485,0,.743-1.486-4.458-2.722-9.163-5.2-1.486.249-.743,1.485h0Zm-18.077,9.906q-0.993.993,0.5,1.486,9.162-3.465,13.372-7.677,0.494-.743,1.486,0a46.786,46.786,0,0,0,13.372,7.677q1.237-.247.5-1.486-5.943-1.98-13.373-7.924a1.5,1.5,0,0,0-2.228,0,37.573,37.573,0,0,1-13.62,7.924h0Zm4.21,2.476v5.448q0,2.723,2.476,2.477h15.849q2.721,0.246,2.476-2.477v-5.448q0.246-2.475-2.476-2.476H662.594a2.188,2.188,0,0,0-2.476,2.476h0Zm19.315,4.953q0.247,1.733-1.486,1.486H663.089q-1.485.246-1.486-1.486v-4.458a1.313,1.313,0,0,1,1.486-1.485h14.858a1.313,1.313,0,0,1,1.486,1.485v4.458Zm20.554-20.306h2.971v5.943h-3.466q-1.24.743,0,1.486h16.591q1.236-.742,0-1.486h-4.21v-5.943h3.962a0.805,0.805,0,0,0,0-1.486h-3.962v-2.972q-0.743-1.236-1.486,0V600.4h-5.943v-2.972q-0.743-1.236-1.486,0V600.4h-2.971a0.8,0.8,0,0,0,0,1.486h0Zm10.4,5.943h-5.943v-5.943h5.943v5.943Zm-21.049-.743h2.724v4.953h-3.714a0.8,0.8,0,0,0,0,1.486h3.714v9.657q0.493,3.715,6.439-1.238,0.494-1.485-.991-1.238-3.963,3.465-3.962,1.734v-8.915h4.458a0.806,0.806,0,0,0,0-1.486h-4.458v-4.953h3.962q1.238-.742,0-1.486h-8.172a0.8,0.8,0,0,0,0,1.486h0Zm11.887,6.686v9.41q0,2.723,2.724,2.477h7.429q2.971,0.246,2.724-2.477v-9.41q0.246-2.475-2.724-2.476h-7.429q-2.726,0-2.724,2.476h0Zm11.391,0.5v3.466h-9.9v-3.466q0-1.486,1.733-1.486h6.439q1.978,0,1.733,1.486h0Zm0,8.419q0.247,1.733-1.733,1.486h-6.439a1.319,1.319,0,0,1-1.733-1.486v-3.467h9.9v3.467Zm-21.049-22.535a9.48,9.48,0,0,0,.743-2.971,0.805,0.805,0,0,0-1.486,0,17.358,17.358,0,0,1-3.467,7.676q-0.495,1.486.991,1.239a16.225,16.225,0,0,0,2.724-4.458h6.934q1.236-.743,0-1.486h-6.439Zm51.261,1.239H728.96q-1.239.742,0,1.485h13.868v16.1q0.492,3.468-6.687.99-1.239.25-.5,1.486,9.162,2.722,8.667-2.476v-16.1h3.467q1.236-.743,0-1.485h-3.467v-3.467q-0.742-1.236-1.485,0v3.467Zm-20.8-2.724A58.284,58.284,0,0,1,725,604.112q1.236,0.5,1.238-.991-1.736-3.465-2.972-5.448-1.239-.493-1.238.991h0Zm9.41,8.667q2.971,3.965,5.7,8.172,1.485,0.5,1.238-.991-2.229-3.465-5.7-7.924-1.24-.743-1.239.743h0Zm-11.391,1.981h2.972q1.485,0,1.238,1.238v8.42q0,2.227-4.21,4.7-0.5,1.485.743,1.486a10.089,10.089,0,0,0,4.457-4.21,11.321,11.321,0,0,0,9.658,4.21h12.63a0.806,0.806,0,0,0,0-1.486H734.9a9.773,9.773,0,0,1-9.162-4.7v-8.42q0.246-2.722-2.477-2.724h-3.219q-1.239.743,0,1.486h0Z" transform="translate(-306.875 -518.812)"/>
</svg>
