<svg xmlns="http://www.w3.org/2000/svg" width="28" height="24" viewBox="0 0 28 24">
  <path fill="#999999" d="M836.863139,40.1167978 C838.419334,38.85091 840.480309,38.0622518 842.994563,37.7729456 L842.989256,37.7161277 C844.730775,37.5373317 846.738573,37.5784548 848.417589,37.8457548 C849.994717,34.9787614 850.901437,34.9975349 851.233644,35.0002169 C851.87066,35.0118386 852.618126,35.5079974 853.139554,36.2643044 C853.558238,36.8731047 854.156725,38.1327223 853.738897,39.9975642 C854.976112,40.9764722 855.858858,42.2387717 856.370868,43.7621134 L856.682526,43.7621134 C857.876075,43.7621134 858.846154,44.7758866 858.846154,46.0220945 L858.846154,48.6110601 C858.846154,49.857268 857.875219,50.8701472 856.682526,50.8701472 L856.370868,50.8701472 C855.768101,52.6688346 854.655035,54.0965205 853.053078,55.1263853 L853.258567,55.7092601 C853.571937,56.8008095 852.999137,57.9129205 851.993953,58.2293893 L849.834607,58.9141779 C849.651379,58.9713927 849.464727,59 849.279787,59 C848.968128,59 848.659895,58.9204358 848.37906,58.7622014 C847.929553,58.510099 847.600771,58.0908225 847.45436,57.58036 L847.227466,56.9313306 C845.563861,57.0859891 843.806075,57.0439721 842.295731,56.8303109 L841.908727,57.6903195 C841.463501,58.6844251 840.324749,59.1171114 839.375219,58.6531358 L837.328035,57.6536664 C836.37508,57.1887968 835.960678,56.0015916 836.405047,55.006592 L836.600262,54.5765877 C834.672091,53.0130169 833.641221,50.7539298 833.529914,47.8476014 C832.604358,47.7528395 831.039716,46.9578662 831.160443,45.2868285 C831.210172,44.5985138 831.76483,44.5613314 832.838509,44.581893 C833.317984,44.5908328 833.398915,44.6087124 833.827873,44.5461338 C834.291936,42.6330169 835.270577,41.0864317 836.739823,39.9439255 L836.863139,40.1167978 Z M837.294977,41.1909308 C836.120441,42.1807781 835.353156,43.5098287 835.011147,45.1442063 C834.847612,45.9416363 834.748861,45.9490923 832.814536,45.9228627 C832.334252,45.9163501 832.607783,46.4065058 833.645502,46.5137834 C834.133538,46.5638463 834.80309,46.6326828 834.80309,47.3165773 C834.80309,50.2318456 835.800567,52.4158384 837.767268,53.8068711 L838.222769,54.1295978 L837.56606,55.5778452 C837.422218,55.8996779 837.558354,56.2885591 837.870013,56.4405357 L839.917196,57.4400052 C840.229711,57.5892998 840.598735,57.448051 840.744289,57.1226423 L841.542271,55.3516682 L842.020889,55.4330204 C843.681925,55.717306 845.717122,55.7682628 847.585359,55.5465558 L848.087951,55.4866592 L848.672738,57.1592955 C848.731816,57.3631229 848.838842,57.4990079 848.985253,57.582148 C849.131664,57.6643941 849.302904,57.6813797 849.462158,57.6322108 L851.620648,56.9483163 C851.951143,56.8446146 852.137796,56.4798708 852.039332,56.1356886 L851.464819,54.5149031 L851.957137,54.2386633 C853.654133,53.2874688 854.773192,51.8660408 855.282633,50.0155025 L855.416201,49.5300714 L856.680814,49.5300714 C857.165425,49.5300714 857.560135,49.1179467 857.560135,48.6119541 L857.560135,46.0229885 C857.560135,45.5161019 857.165425,45.1039772 856.680814,45.1039772 L855.416201,45.1039772 L855.282633,44.6194401 C854.845113,43.0317319 853.955517,41.7560226 852.639531,40.8280715 L852.242253,40.5482558 L852.386951,40.0708706 C852.862144,38.501936 852.406644,37.5042544 852.094129,37.0492187 C851.726818,36.5164067 851.316696,36.3456565 851.207958,36.3438686 C851.058979,36.3662181 850.373159,36.8847264 849.320028,38.9078028 L849.098272,39.3333372 L848.641915,39.2475152 C847.593065,39.0508396 846.438902,38.9507139 845.211105,38.9507139 C844.490472,38.9507139 843.792451,38.9848181 843.136094,39.0521616 L843.153846,39.2611429 C840.771132,39.5309462 838.858885,40.270407 837.470053,41.4615385 L837.294977,41.1909308 Z M850.538462,43.3076923 L850.538462,43.3076923 C850.538462,42.797891 850.951737,42.3846154 851.461538,42.3846154 C851.97134,42.3846154 852.384615,42.797891 852.384615,43.3076923 C852.384615,43.8174936 851.97134,44.2307692 851.461538,44.2307692 C850.951737,44.2307692 850.538462,43.8174936 850.538462,43.3076923 Z M848.018134,41.4615385 C847.958971,41.4615385 847.89712,41.4528808 847.836165,41.4346035 C846.846542,41.1354327 845.611307,41.0094154 844.365315,41.0767529 C843.588138,41.1190793 842.83875,41.2316291 842.136871,41.4124783 C841.781898,41.5048268 841.413478,41.2672218 841.326528,40.8785883 C841.239577,40.4909169 841.461884,40.1013215 841.824028,40.008973 C842.605687,39.8079225 843.43844,39.6819052 844.298981,39.635731 C845.703636,39.5587739 847.058989,39.7011445 848.201895,40.0455276 C848.558661,40.1532676 848.767522,40.5515206 848.667125,40.9353442 C848.581968,41.2537543 848.313048,41.4615385 848.018134,41.4615385 Z" transform="matrix(-1 0 0 1 859 -35)"/>
</svg>
