<svg xmlns="http://www.w3.org/2000/svg" width="866" height="91" viewBox="0 0 866 91" xmlns:xlink="http://www.w3.org/1999/xlink">
  <defs>
    <linearGradient id="c" x1="50%" x2="50%" y1="100%" y2="0%">
      <stop stop-color="#FFC400" offset="0%"/>
      <stop stop-color="#FFE500" offset="100%"/>
    </linearGradient>
    <linearGradient id="b" x1="50%" x2="50%" y1="0%" y2="100%">
      <stop stop-color="#FFAA00" stop-opacity=".325" offset="0%"/>
      <stop stop-color="#D39B0C" offset="100%"/>
    </linearGradient>
    <path id="e" d="M17.178,17 L17.178,20.038 L42.908,20.038 L42.908,17 L17.178,17 Z M16,40.064 L16,43.226 L43.869,43.226 L43.869,40.064 L35.809,40.064 C36.801,38.297 37.669,36.344 38.382,34.205 L35.22,33.337 C34.476,35.941 33.608,38.204 32.616,40.064 L25.021,40.064 L26.788,39.258 C26.106,37.181 25.331,35.228 24.401,33.399 L21.611,34.329 C22.448,35.972 23.254,37.894 23.998,40.064 L16,40.064 Z M20.092,22.146 L20.092,32.903 L39.963,32.903 L39.963,22.146 L20.092,22.146 Z M36.832,29.927 L23.223,29.927 L23.223,25.122 L36.832,25.122 L36.832,29.927 Z"/>
    <filter id="d" width="200%" height="200%" x="-50%" y="-50%" filterUnits="objectBoundingBox">
      <feOffset in="SourceAlpha" result="shadowOffsetOuter1"/>
      <feGaussianBlur stdDeviation="2" in="shadowOffsetOuter1" result="shadowBlurOuter1"/>
      <feColorMatrix values="0 0 0 0 1 0 0 0 0 0.377547554 0 0 0 0 0 0 0 0 0.5 0" in="shadowBlurOuter1"/>
    </filter>
    <linearGradient id="g" x1="50%" x2="50%" y1="100%" y2="0%">
      <stop stop-color="#00BB57" offset="0%"/>
      <stop stop-color="#23E470" offset="100%"/>
    </linearGradient>
    <linearGradient id="f" x1="50%" x2="50%" y1="0%" y2="100%">
      <stop stop-color="#00DB55" offset="0%"/>
      <stop stop-color="#05A222" offset="100%"/>
    </linearGradient>
    <path id="i" d="M10.2874383,28.684452 C10.2874383,27.7140285 11.0542409,26.9200957 11.9999141,26.9200957 C12.9457161,26.9200957 13.7122181,27.7140285 13.7122181,28.684452 C13.7122181,29.6663479 12.9454155,30.459942 11.9999141,30.459942 C11.0539403,30.4599843 10.2874383,29.6663902 10.2874383,28.684452 L10.2874383,28.684452 Z M4.93326176,3.53929597 L19.0672107,3.53929597 C19.8986043,3.53929597 20.5763797,4.2326854 20.5763797,5.10138012 L20.5763797,22.5239586 C20.5763797,23.393627 19.8986472,24.0851961 19.0672107,24.0851961 L4.93326176,24.085196 C4.10203993,24.085196 3.42460812,23.393627 3.42460812,22.5239586 L3.42460812,5.10138009 C3.42460812,4.23268537 4.10203993,3.53929597 4.93326176,3.53929597 L4.93326176,3.53929597 Z M0,31.165439 C0,32.7273961 1.22679837,34 2.74687566,34 L21.2647198,34 C22.7730298,34 24,32.7273538 24,31.165439 L24,2.83456101 C24,1.27201122 22.7730299,0 21.2646769,0 L2.74721926,0 C1.22714194,0 0.000343568284,1.27201122 0.000343568284,2.83456101 L0.000343568284,31.165439 L0,31.165439 Z"/>
    <filter id="h" width="200%" height="200%" x="-50%" y="-50%" filterUnits="objectBoundingBox">
      <feOffset in="SourceAlpha" result="shadowOffsetOuter1"/>
      <feGaussianBlur stdDeviation="2" in="shadowOffsetOuter1" result="shadowBlurOuter1"/>
      <feColorMatrix values="0 0 0 0 0.0115922424 0 0 0 0 0.585246599 0 0 0 0 0.259169386 0 0 0 1 0" in="shadowBlurOuter1"/>
    </filter>
    <linearGradient id="k" x1="50%" x2="50%" y1="100%" y2="0%">
      <stop stop-color="#844AE5" offset="0%"/>
      <stop stop-color="#AE78FF" offset="100%"/>
    </linearGradient>
    <linearGradient id="j" x1="50%" x2="50%" y1="0%" y2="100%">
      <stop stop-color="#894FE8" offset="0%"/>
      <stop stop-color="#7320D2" offset="100%"/>
    </linearGradient>
    <path id="m" d="M16.8333333,0.00420833333 C7.53922917,0.00420833333 0.00526041667,7.53291667 0.00526041667,16.8196563 C0.00526041667,25.3983438 6.43348958,32.4767604 14.7396875,33.5056979 C15.2078646,33.6045938 15.7780938,33.6624583 16.4577396,33.6624583 C16.6481667,33.6624583 16.8322813,33.6519375 17.0100833,33.6340521 C26.222125,33.5393646 33.6614063,26.0485313 33.6614063,16.8196563 C33.6614063,7.53291667 26.1274375,0.00420833333 16.8333333,0.00420833333 Z M14.1799792,32.004375 C6.93848958,30.7397708 1.4329375,24.4262188 1.4329375,16.8270208 C1.4329375,15.7381146 1.5465625,14.6744583 1.76223958,13.6497292 C2.42820833,14.3609375 3.99791667,14.3441042 4.37982292,13.2804479 C5.06472917,13.6886563 5.98530208,13.7623021 5.98530208,14.5787188 C5.98530208,17.271 6.08104167,20.1579167 8.5281875,20.2021042 C8.59657292,20.2021042 9.8916875,20.6934271 10.5082083,22.2915417 C10.7217812,22.8449375 11.5645,22.2915417 12.4892813,22.2915417 C12.9511458,22.2915417 12.4892813,23.0700833 12.4892813,24.7513125 C12.4892813,26.4262292 16.1010833,29.0059375 16.1010833,29.0059375 C16.08425,30.1148333 16.1294896,31.0112083 16.2220729,31.7276771 C15.4067083,31.7118958 14.7196979,31.8202604 14.1810313,32.004375 L14.1799792,32.004375 Z M20.6492396,31.7645 C20.5692813,31.373125 20.2189375,31.1585 19.581375,31.3268333 C20.0905833,29.1584896 20.3378229,27.9443854 21.4014792,27.0217083 C22.9375208,25.6887188 21.5834896,24.2063333 20.4135729,24.3809792 C19.4908958,24.5209063 20.07375,23.2394688 19.2510208,23.1679271 C18.4272396,23.0995417 17.3530625,21.4625 16.1684167,20.8985833 C15.5403229,20.6008438 14.92275,19.8012604 13.9537813,19.7654896 C13.0952813,19.7318229 11.8411979,20.4914271 11.8411979,19.9054167 C11.8411979,18.0211354 11.6497188,16.6755208 11.6107917,16.1389583 C11.5792292,15.7076042 11.3288333,15.9937708 12.4892813,16.021125 C13.1205313,16.0379583 12.8122708,14.7523125 13.4382604,14.7028646 C14.051625,14.6544688 15.5150729,15.2773021 15.8875104,15.0290104 C16.2346979,14.7975521 18.4335521,20.8017917 18.4335521,16.021125 C18.4335521,15.4540521 18.1389688,14.46825 18.4335521,13.9306354 C19.5950521,11.8085833 20.6818542,10.0779063 20.5850625,9.82435417 C20.5293021,9.68232292 19.3962083,9.56448958 18.4893125,9.86854167 C18.1842083,9.97164583 18.5871563,10.4503438 18.1473854,10.5523958 C16.500875,10.93325 15.0458438,10.1084167 15.5550521,9.33408333 C16.0768854,8.5408125 17.9674792,8.98794792 18.1326563,7.39509375 C18.2273438,6.4829375 18.3073021,5.42664583 18.3599063,4.64179167 C20.5766458,4.98792708 20.3325625,1.76539583 17.0374375,1.4203125 C23.7034375,1.49816667 29.3520729,5.80329167 31.4246771,11.7780729 C31.3238799,11.6828542 31.194407,11.6236666 31.0564479,11.6097396 C30.0611771,9.1215625 27.6424375,10.9227292 28.4630625,13.117375 C24.0685104,16.4966667 25.1931875,18.8533333 26.6366458,20.2021042 C27.3973021,20.9112083 28.1211354,21.9780208 28.5935208,22.7439375 C28.0801042,24.2410521 30.4841146,23.6424167 31.6708646,21.1016354 C30.1460648,26.3578811 25.953049,30.4144117 20.6492396,31.7645 L20.6492396,31.7645 Z M30.9386146,13.7928125 C31.1676236,14.8654887 31.2738657,15.9607346 31.2552917,17.0574271 C31.2076866,16.23113 31.0979601,15.4095876 30.9270417,14.5997604 C30.9417708,14.3146458 30.9459792,14.0442604 30.9386146,13.7928125 L30.9386146,13.7928125 Z"/>
    <filter id="l" width="200%" height="200%" x="-50%" y="-50%" filterUnits="objectBoundingBox">
      <feOffset dy="1" in="SourceAlpha" result="shadowOffsetOuter1"/>
      <feGaussianBlur stdDeviation="3" in="shadowOffsetOuter1" result="shadowBlurOuter1"/>
      <feColorMatrix values="0 0 0 0 0.379416945 0 0 0 0 0.0669492565 0 0 0 0 0.818505527 0 0 0 1 0" in="shadowBlurOuter1"/>
    </filter>
    <linearGradient id="o" x1="50%" x2="50%" y1="100%" y2="0%">
      <stop stop-color="#EF470C" offset="0%"/>
      <stop stop-color="#FF6407" offset="79.345%"/>
    </linearGradient>
    <linearGradient id="n" x1="50%" x2="50%" y1="0%" y2="100%">
      <stop stop-color="#F1490C" offset="0%"/>
      <stop stop-color="#DC290A" offset="100%"/>
    </linearGradient>
    <path id="q" d="M9.40864569,18.0794738 L9.63588316,20.6666667 L26.7553495,20.6666667 C27.4912268,20.6666667 28.0877736,21.2774622 28.0877736,21.9834149 C28.0877736,22.7106362 27.5019137,23.3001657 26.7553495,23.3001657 L9.11281624,23.3001657 C8.96609619,23.3001657 8.82491502,23.275885 8.69289653,23.2314103 L8.5353921,23.2451356 C7.80809787,23.3085177 7.1682903,22.7881336 7.10346201,22.0500365 L5.39774742,2.62978677 L1.29832881,2.62134187 C0.58128167,2.6198642 0,2.01069095 0,1.30799844 C0,0.584135516 0.616955801,-0.00140023487 1.29832881,2.51513622e-06 L6.56415218,0.0108525152 C6.97480544,0.0116972652 7.34092942,0.211859119 7.57883956,0.514754943 C7.77673669,0.721710943 7.90818432,0.996117767 7.9357412,1.30986102 L8.2744909,5.16666663 L28.8623472,5.16666663 C30.2855606,5.16666663 31.2103821,6.31830113 30.9358092,7.69959653 L29.3632115,15.6108766 C29.0851395,17.0097749 27.6804981,18.1399057 26.271356,18.1352454 L9.40864569,18.0794738 Z M7.78039217,28.4166667 C7.78039217,26.9899304 8.93153958,25.8333333 10.3738562,25.8333333 C11.8061868,25.8333333 12.9673203,26.9799846 12.9673203,28.4166667 C12.9673203,29.8434029 11.8161729,31 10.3738562,31 C8.94152571,31 7.78039217,29.8533487 7.78039217,28.4166667 Z M23.3411765,28.4166667 C23.3411765,26.9899304 24.4923239,25.8333333 25.9346406,25.8333333 C27.3669711,25.8333333 28.5281046,26.9799846 28.5281046,28.4166667 C28.5281046,29.8434029 27.3769572,31 25.9346406,31 C24.5023101,31 23.3411765,29.8533487 23.3411765,28.4166667 Z"/>
    <filter id="p" width="200%" height="200%" x="-50%" y="-50%" filterUnits="objectBoundingBox">
      <feOffset dy="2" in="SourceAlpha" result="shadowOffsetOuter1"/>
      <feGaussianBlur stdDeviation="2" in="shadowOffsetOuter1" result="shadowBlurOuter1"/>
      <feColorMatrix values="0 0 0 0 0.941176471 0 0 0 0 0.104907955 0 0 0 0 0.0431372549 0 0 0 1 0" in="shadowBlurOuter1"/>
    </filter>
    <linearGradient id="s" x1="50%" x2="50%" y1="100%" y2="20.655%">
      <stop stop-color="#EF760C" offset="0%"/>
      <stop stop-color="#FFA607" offset="100%"/>
    </linearGradient>
    <linearGradient id="r" x1="50%" x2="50%" y1="0%" y2="100%">
      <stop stop-color="#F1900C" offset="0%"/>
      <stop stop-color="#DC860A" offset="100%"/>
    </linearGradient>
    <path id="u" d="M29.301527,10.5865999 C30.2261457,9.97313572 30.2915016,9.4351457 30.2915016,8.62458137 L30.2915016,3.76095454 C30.2915016,2.19303295 29.0170104,0.920124841 27.4519453,0.920124841 L3.13092031,0.920124875 C1.56602732,0.920124875 0.291536084,2.19303298 0.291536084,3.76095458 L0.291536084,8.62454696 C0.291536084,9.4351457 0.368627803,10.0945896 1.33781521,10.6162321 C1.99870459,10.927421 3.53396544,11.8225453 3.53396544,13.491168 C3.53396544,15.3865917 2.40773808,16.0075241 1.42967136,16.3394315 L1.34084382,16.3808339 C0.392409234,16.9736829 0.291570524,17.9576003 0.291570524,18.3533149 L0.291570524,23.2154962 C0.291570524,24.7818002 1.56606176,26.057737 3.13095475,26.057737 L27.4519798,26.057737 C29.0170448,26.057737 30.2915361,24.7818002 30.2915361,23.2154962 L30.2915361,18.3533493 C30.2915361,17.3026305 30.0009966,16.9143498 29.2599869,16.3661038 C27.5883701,15.5064968 27.048969,14.8040674 27.048969,13.491168 C27.0489346,12.1736912 27.5499619,11.5261208 29.301527,10.5865999 Z M20.5641103,13.0821689 C20.5641103,13.5311593 20.1995078,13.8972072 19.7519285,13.8972072 L16.5125277,13.8972072 L16.5125277,14.7003721 L19.7519285,14.7003721 C20.1995078,14.7003721 20.5641103,15.0664201 20.5641103,15.5154105 L20.5641103,16.3245982 C20.5641103,16.7735886 20.1995078,17.1426652 19.7519285,17.1426652 L16.5125277,17.1426652 L16.5125277,19.5685762 C16.5125277,20.0190121 16.1479252,20.3820659 15.6974893,20.3820659 L14.8854451,20.3820659 C14.4348716,20.3820659 14.0702347,20.0190121 14.0702347,19.5685762 L14.0702347,17.1426652 L10.8308339,17.1426652 C10.3834266,17.1426652 10.0187897,16.7735886 10.0187897,16.3245982 L10.0187897,15.5154105 C10.0187897,15.0664201 10.3834266,14.7003721 10.8308339,14.7003721 L14.0702347,14.7003721 L14.0702347,13.8972072 L10.8308339,13.8972072 C10.3834266,13.8972072 10.0187897,13.5311593 10.0187897,13.0821689 L10.0187897,12.2730156 C10.0187897,11.8240252 10.3834266,11.4579428 10.8308339,11.4579428 L12.9619036,11.4579428 L10.267617,8.56683141 C9.98310039,8.25106513 9.98310039,7.75908921 10.267617,7.44648917 L10.7833743,6.88471771 C11.0678909,6.57655734 11.6191999,6.57067222 11.9037166,6.88471771 L15.288387,10.5169765 L18.6730574,6.88189561 C18.9547519,6.57356317 19.5118772,6.57356317 19.7933997,6.88475212 L20.3150421,7.45096324 C20.5995587,7.76659186 20.5995587,8.26156198 20.3150421,8.574162 L17.6298758,11.4579428 L19.7519285,11.4579428 C20.1995078,11.4579428 20.5641103,11.8239908 20.5641103,12.2730156 L20.5641103,13.0821689 Z"/>
    <filter id="t" width="200%" height="200%" x="-50%" y="-50%" filterUnits="objectBoundingBox">
      <feOffset dy="1" in="SourceAlpha" result="shadowOffsetOuter1"/>
      <feGaussianBlur stdDeviation="4" in="shadowOffsetOuter1" result="shadowBlurOuter1"/>
      <feColorMatrix values="0 0 0 0 1 0 0 0 0 0.258491848 0 0 0 0 0 0 0 0 0.5 0" in="shadowBlurOuter1"/>
    </filter>
    <linearGradient id="w" x1="50%" x2="50%" y1="100%" y2="20.655%">
      <stop stop-color="#ED56DA" offset="0%"/>
      <stop stop-color="#FF7FDC" offset="100%"/>
    </linearGradient>
    <linearGradient id="v" x1="50%" x2="50%" y1="0%" y2="100%">
      <stop stop-color="#F34EDB" offset="0%"/>
      <stop stop-color="#EF37CF" offset="100%"/>
    </linearGradient>
    <path id="y" d="M30.2717742,31.0586164 L23.327245,31.0586164 C28.4781854,28.3273231 32,22.8064317 32,16.4401244 C32,7.36052837 24.8365629,0 16,0 C7.16343711,0 0,7.36045503 0,16.4401244 C0,25.3054236 6.82930691,32.5318149 15.3771953,32.8679645 C15.4231605,32.875335 15.4699263,32.8802121 15.5179296,32.8802121 L30.271847,32.8802121 C30.7689844,32.8802121 31.1757564,32.4703201 31.1757564,31.9694509 C31.1757564,31.4685818 30.7689116,31.0586898 30.2718106,31.0586898 L30.2717742,31.0586164 Z M24.2735893,13.115738 C26.09582,13.115738 27.5730023,14.6041543 27.5730023,16.440161 C27.5730023,18.2761678 26.0957836,19.7645841 24.2735893,19.7645841 C22.4513951,19.7645841 20.9741764,18.2761678 20.9741764,16.440161 C20.9741764,14.6041543 22.4513951,13.115738 24.2735893,13.115738 L24.2735893,13.115738 Z M16.0000728,5.09295788 C17.8223034,5.09295788 19.2994857,6.58137417 19.2994857,8.41738094 C19.2994857,10.2533877 17.822267,11.741804 16.0000728,11.741804 C14.1778786,11.741804 12.7006599,10.2533877 12.7006599,8.41738094 C12.7006599,6.5813375 14.1778786,5.09295788 16.0000728,5.09295788 L16.0000728,5.09295788 Z M7.87689844,19.7114499 C6.05466783,19.7114499 4.57748552,18.2230337 4.57748552,16.3870269 C4.57748552,14.5510201 6.05470422,13.0626038 7.87689844,13.0626038 C9.69912905,13.0626038 11.1763114,14.5510201 11.1763114,16.3870269 C11.1763114,18.2230703 9.69905627,19.7114499 7.87689844,19.7114499 Z M12.6450503,25.2190302 C12.6450503,23.3829868 14.1222691,21.8946072 15.9444633,21.8946072 C17.7666575,21.8946072 19.2438762,23.3830235 19.2438762,25.2190302 C19.2438762,27.055037 17.7666575,28.5434533 15.9444633,28.5434533 C14.1222691,28.5434533 12.6450503,27.055037 12.6450503,25.2190302 Z"/>
    <filter id="x" width="200%" height="200%" x="-50%" y="-50%" filterUnits="objectBoundingBox">
      <feOffset dy="2" in="SourceAlpha" result="shadowOffsetOuter1"/>
      <feGaussianBlur stdDeviation="2" in="shadowOffsetOuter1" result="shadowBlurOuter1"/>
      <feColorMatrix values="0 0 0 0 0.849914966 0 0 0 0 0.119033032 0 0 0 0 0.736802286 0 0 0 1 0" in="shadowBlurOuter1"/>
    </filter>
    <linearGradient id="A" x1="50%" x2="50%" y1="100%" y2="0%">
      <stop stop-color="#427CE3" offset="0%"/>
      <stop stop-color="#6EAAF0" offset="100%"/>
    </linearGradient>
    <linearGradient id="z" x1="50%" x2="50%" y1="0%" y2="100%">
      <stop stop-color="#508EE8" offset="0%"/>
      <stop stop-color="#437FEB" offset="100%"/>
    </linearGradient>
    <linearGradient id="D" x1="50%" x2="50%" y1="0%" y2="100%">
      <stop stop-color="#FFFFFF" offset="0%"/>
      <stop stop-color="#E0E0E0" offset="100%"/>
    </linearGradient>
    <circle id="C" cx="21.5" cy="22.5" r="6.5"/>
    <filter id="B" width="200%" height="200%" x="-50%" y="-50%" filterUnits="objectBoundingBox">
      <feOffset dy="1" in="SourceAlpha" result="shadowOffsetOuter1"/>
      <feGaussianBlur stdDeviation="1.5" in="shadowOffsetOuter1" result="shadowBlurOuter1"/>
      <feColorMatrix values="0 0 0 0 0.158694851 0 0 0 0 0.423780224 0 0 0 0 0.892777423 0 0 0 1 0" in="shadowBlurOuter1"/>
    </filter>
    <circle id="F" cx="39.5" cy="22.5" r="6.5"/>
    <filter id="E" width="200%" height="200%" x="-50%" y="-50%" filterUnits="objectBoundingBox">
      <feOffset dy="1" in="SourceAlpha" result="shadowOffsetOuter1"/>
      <feGaussianBlur stdDeviation="1.5" in="shadowOffsetOuter1" result="shadowBlurOuter1"/>
      <feColorMatrix values="0 0 0 0 0.158694851 0 0 0 0 0.423780224 0 0 0 0 0.892777423 0 0 0 1 0" in="shadowBlurOuter1"/>
    </filter>
    <circle id="a" cx="40" cy="40" r="7"/>
    <filter id="G" width="200%" height="200%" x="-50%" y="-50%" filterUnits="objectBoundingBox">
      <feOffset dy="1" in="SourceAlpha" result="shadowOffsetOuter1"/>
      <feGaussianBlur stdDeviation="1.5" in="shadowOffsetOuter1" result="shadowBlurOuter1"/>
      <feComposite in="shadowBlurOuter1" in2="SourceAlpha" operator="out" result="shadowBlurOuter1"/>
      <feColorMatrix values="0 0 0 0 0.158694851 0 0 0 0 0.423780224 0 0 0 0 0.892777423 0 0 0 1 0" in="shadowBlurOuter1"/>
    </filter>
    <mask id="H" width="14" height="14" x="0" y="0" fill="white">
      <use xlink:href="#a"/>
    </mask>
    <circle id="J" cx="21.5" cy="39.5" r="6.5"/>
    <filter id="I" width="200%" height="200%" x="-50%" y="-50%" filterUnits="objectBoundingBox">
      <feOffset dy="1" in="SourceAlpha" result="shadowOffsetOuter1"/>
      <feGaussianBlur stdDeviation="1.5" in="shadowOffsetOuter1" result="shadowBlurOuter1"/>
      <feColorMatrix values="0 0 0 0 0.158694851 0 0 0 0 0.423780224 0 0 0 0 0.892777423 0 0 0 1 0" in="shadowBlurOuter1"/>
    </filter>
  </defs>
  <g fill="none" fill-rule="evenodd" transform="translate(1 1)">
    <rect width="60" height="60" fill="url(#c)" stroke="url(#b)" stroke-width=".5" rx="22"/>
    <use fill="black" filter="url(#d)" xlink:href="#e"/>
    <use fill="#FFFFFF" xlink:href="#e"/>
    <text fill="#666666" font-family="PingFangSC-Regular, PingFang SC" font-size="15" letter-spacing="-.007">
      <tspan x="8.011" y="88">领京豆</tspan>
    </text>
    <g transform="translate(134)">
      <rect width="60" height="60" fill="url(#g)" stroke="url(#f)" stroke-width=".5" rx="22"/>
      <g transform="translate(18.333 13)">
        <use fill="black" filter="url(#h)" xlink:href="#i"/>
        <use fill="#FFFFFF" xlink:href="#i"/>
      </g>
      <text fill="#666666" font-family="PingFangSC-Regular, PingFang SC" font-size="15" letter-spacing="-.007">
        <tspan x="15.007" y="88">充值</tspan>
      </text>
    </g>
    <g transform="translate(268)">
      <rect width="60" height="60" fill="url(#k)" stroke="url(#j)" stroke-width=".5" rx="22"/>
      <g transform="translate(14 13)">
        <use fill="black" filter="url(#l)" xlink:href="#m"/>
        <use fill="#FFFFFF" xlink:href="#m"/>
      </g>
      <text fill="#666666" font-family="PingFangSC-Regular, PingFang SC" font-size="15" letter-spacing="-.007">
        <tspan x="8.011" y="88">全球购</tspan>
      </text>
    </g>
    <g transform="translate(402)">
      <rect width="60" height="60" fill="url(#o)" stroke="url(#n)" stroke-width=".5" rx="22"/>
      <g transform="translate(13 15)">
        <use fill="black" filter="url(#p)" xlink:href="#q"/>
        <use fill="#FFFFFF" xlink:href="#q"/>
      </g>
      <text fill="#666666" font-family="PingFangSC-Regular, PingFang SC" font-size="15" letter-spacing="-.007">
        <tspan x=".015" y="88">京东超市</tspan>
      </text>
    </g>
    <g transform="translate(536)">
      <rect width="60" height="60" fill="url(#s)" stroke="url(#r)" stroke-width=".5" rx="22"/>
      <g transform="translate(15.58 16.5)">
        <use fill="black" filter="url(#t)" xlink:href="#u"/>
        <use fill="#FFFFFF" xlink:href="#u"/>
      </g>
      <text fill="#666666" font-family="PingFangSC-Regular, PingFang SC" font-size="15" letter-spacing="-.007">
        <tspan x="15.007" y="88">领券</tspan>
      </text>
    </g>
    <g transform="translate(670)">
      <rect width="60" height="60" fill="url(#w)" stroke="url(#v)" stroke-width=".5" rx="22"/>
      <g transform="translate(14 14)">
        <use fill="black" filter="url(#x)" xlink:href="#y"/>
        <use fill="#FFFFFF" xlink:href="#y"/>
      </g>
      <text fill="#666666" font-family="PingFangSC-Regular, PingFang SC" font-size="15" letter-spacing="-.007">
        <tspan x="8.011" y="88">电影票</tspan>
      </text>
    </g>
    <g transform="translate(804)">
      <rect width="60" height="60" fill="url(#A)" stroke="url(#z)" stroke-width=".5" rx="22"/>
      <use fill="black" filter="url(#B)" xlink:href="#C"/>
      <use fill="url(#D)" xlink:href="#C"/>
      <use fill="black" filter="url(#E)" xlink:href="#F"/>
      <use fill="url(#D)" xlink:href="#F"/>
      <use fill="black" filter="url(#G)" xlink:href="#a"/>
      <use fill="#FFFFFF" fill-opacity=".3" stroke="url(#D)" stroke-width="4" mask="url(#H)" xlink:href="#a"/>
      <g>
        <use fill="black" filter="url(#I)" xlink:href="#J"/>
        <use fill="url(#D)" xlink:href="#J"/>
      </g>
      <text fill="#666666" font-family="PingFangSC-Regular, PingFang SC" font-size="15" letter-spacing="-.007">
        <tspan x="15.007" y="88">全部</tspan>
      </text>
    </g>
  </g>
</svg>
