<svg xmlns="http://www.w3.org/2000/svg" width="18" height="15" viewBox="0 0 18 15">
  <g fill="#FFFFFF" fill-rule="evenodd">
    <path d="M.75 0L17.25 0C17.664 0 18 .347586207 18 .775862069 18 1.20413793 17.664 1.55172414 17.25 1.55172414L.75 1.55172414C.336 1.55172414 0 1.20413793 0 .775862069 0 .347586207.336 0 .75 0L.75 0zM.75 7L17.25 7C17.664 7 18 7.34758621 18 7.77586207 18 8.20413793 17.664 8.55172414 17.25 8.55172414L.75 8.55172414C.336 8.55172414 0 8.20413793 0 7.77586207 0 7.34758621.336 7 .75 7L.75 7zM17.25 14.5517241L15.75 14.5517241C15.336 14.5517241 15 14.2041379 15 13.7758621 15 13.3475862 15.336 13 15.75 13L17.25 13C17.664 13 18 13.3475862 18 13.7758621 18 14.2041379 17.664 14.5517241 17.25 14.5517241L17.25 14.5517241zM12.25 14.5517241L.75 14.5517241C.336 14.5517241 0 14.2041379 0 13.7758621 0 13.3475862.336 13 .75 13L12.25 13C12.664 13 13 13.3475862 13 13.7758621 13 14.2041379 12.664 14.5517241 12.25 14.5517241L12.25 14.5517241z"/>
  </g>
</svg>
