<svg xmlns="http://www.w3.org/2000/svg" width="24" height="19" viewBox="0 0 24 19" xmlns:xlink="http://www.w3.org/1999/xlink">
  <defs>
    <path id="a" d="M3.94967831,20 L1.99862652,20 C1.44710032,20 1,19.5553691 1,18.9991283 L1,5.00087166 C1,4.4481055 1.44892021,4 2.00748397,4 L14.992516,4 C15.5489341,4 16,4.44463086 16,5.00087166 L16,18.9991283 C16,19.5518945 15.544748,20 15.0033282,20 L7.7544807,20.0097656"/>
    <mask id="b" width="15" height="16.01" x="0" y="0" fill="white">
      <use xlink:href="#a"/>
    </mask>
  </defs>
  <g fill="none" fill-rule="evenodd" stroke="#666666" transform="translate(-1 -4)">
    <path stroke-width="1.5" d="M18,10 L20.3482713,10.0048254 C22.0060454,10.0048254 23.3499368,11.3438455 23.3499368,13.0064908 L23.3499368,18.1723173 C23.3499368,18.7229618 22.8969005,19.1693474 22.3529066,19.1693474 L20.9514017,19.1678539" stroke-linecap="round"/>
    <use stroke-width="3" mask="url(#b)" xlink:href="#a"/>
    <ellipse cx="6" cy="20" stroke-width="1.5" rx="2" ry="2"/>
    <ellipse cx="19" cy="20" stroke-width="1.5" rx="2" ry="2"/>
  </g>
</svg>
