<svg xmlns="http://www.w3.org/2000/svg" width="24" height="19" viewBox="0 0 24 19" xmlns:xlink="http://www.w3.org/1999/xlink">
  <defs>
    <path id="a" d="M2.94967831,16 L0.998626518,16 C0.447100321,16 0,15.5553691 0,14.9991283 L0,1.00087166 C0,0.448105505 0.448920205,0 1.00748397,0 L13.992516,0 C14.5489341,0 15,0.444630861 15,1.00087166 L15,14.9991283 C15,15.5518945 14.544748,16 14.0033282,16 L6.7544807,16.0097656"/>
    <mask id="b" width="15" height="16.01" x="0" y="0" fill="white">
      <use xlink:href="#a"/>
    </mask>
  </defs>
  <g fill="none" fill-rule="evenodd" stroke="#FFFFFF">
    <path stroke-width="1.5" d="M17,6 L19.3482713,6.00482537 C21.0060454,6.00482537 22.3499368,7.3438455 22.3499368,9.00649084 L22.3499368,14.1723173 C22.3499368,14.7229618 21.8969005,15.1693474 21.3529066,15.1693474 L19.9514017,15.1678539" stroke-linecap="round"/>
    <use stroke-width="3" mask="url(#b)" xlink:href="#a"/>
    <ellipse cx="5" cy="16" stroke-width="1.5" rx="2" ry="2"/>
    <ellipse cx="18" cy="16" stroke-width="1.5" rx="2" ry="2"/>
  </g>
</svg>
