<svg xmlns="http://www.w3.org/2000/svg" width="21" height="22" viewBox="0 0 21 22">
  <g fill="none" fill-rule="evenodd" transform="translate(1 1)">
    <path stroke="#FFFFFF" stroke-width="1.5" d="M5.8182373,3.00625875 L18.133909,3.00625875 C19.1962017,2.93387804 18.8555919,3.49924545 18.6952749,4.1865772 L17.262207,10.3249512 C17.1100851,11.0835238 16.7812558,11.5052696 16.1881339,11.5052696 L7.56616211,12.1517334" stroke-linecap="round"/>
    <path fill="#FFFFFF" d="M6.58027165 20.5062811C7.40869878 20.5062811 8.08027165 19.8347082 8.08027165 19.0062811 8.08027165 18.1778539 7.40869878 17.5062811 6.58027165 17.5062811 5.75184453 17.5062811 5.08027165 18.1778539 5.08027165 19.0062811 5.08027165 19.8347082 5.75184453 20.5062811 6.58027165 20.5062811zM14.5393781 20.5678045C15.3678052 20.5678045 16.0393781 19.8962316 16.0393781 19.0678045 16.0393781 18.2393774 15.3678052 17.5678045 14.5393781 17.5678045 13.710951 17.5678045 13.0393781 18.2393774 13.0393781 19.0678045 13.0393781 19.8962316 13.710951 20.5678045 14.5393781 20.5678045z"/>
    <path stroke="#FFFFFF" stroke-width="1.5" d="M0.682617188,0.0600585937 L1.53568959,0.433760995 C1.78910272,0.544772787 2.04089775,0.862899899 2.09274074,1.11799857 L4.74791884,14.1830694 C4.85740827,14.7218231 5.39310111,15.1582416 5.94067425,15.1578401 L17.098877,15.1496582" stroke-linecap="round" stroke-linejoin="round"/>
  </g>
</svg>
