<svg xmlns="http://www.w3.org/2000/svg" width="11" height="90" viewBox="0 0 11 90">
  <g fill="#FFFFFF" fill-rule="evenodd">
    <polygon points="2.008 .004 2.008 10 9.33 10 9.33 9.006 3.156 9.006 3.156 5.338 8.756 5.338 8.756 4.344 3.156 4.344 3.156 .998 9.092 .998 9.092 .004"/>
    <polygon points="1.008 20.004 1.008 30 2.156 30 2.156 21.782 2.198 21.782 7.882 30 9.058 30 9.058 20.004 7.91 20.004 7.91 28.138 7.868 28.138 2.212 20.004"/>
    <path d="M6.346 40.004L6.346 46.766C6.346 47.592 6.192 48.194 5.898 48.572 5.59 48.964 5.1 49.174 4.428 49.174 3.21 49.174 2.608 48.488 2.608 47.144L2.608 46.808 1.46 46.808 1.46 47.158C1.46 48.138 1.712 48.894 2.244 49.426 2.748 49.93 3.462 50.196 4.4 50.196 5.506 50.196 6.318 49.888 6.822 49.272 7.27 48.712 7.494 47.9 7.494 46.808L7.494 40.004 6.346 40.004zM5.376 59.808C3.864 59.808 2.688 60.312 1.82 61.32.994 62.272.588 63.504.588 65.016.588 66.514.994 67.746 1.82 68.698 2.688 69.692 3.864 70.196 5.362 70.196 6.86 70.196 8.05 69.692 8.918 68.698 9.73 67.746 10.15 66.528 10.15 65.016 10.15 63.49 9.73 62.258 8.918 61.306 8.05 60.298 6.86 59.808 5.376 59.808zM5.376 60.83C6.524 60.83 7.42 61.208 8.064 61.978 8.68 62.734 9.002 63.742 9.002 65.016 9.002 66.276 8.68 67.27 8.064 68.026 7.42 68.782 6.51 69.174 5.362 69.174 4.214 69.174 3.304 68.782 2.66 67.998 2.044 67.242 1.736 66.248 1.736 65.016 1.736 63.77 2.044 62.776 2.66 62.02 3.318 61.222 4.228 60.83 5.376 60.83z"/>
    <polygon points=".07 80.004 4.06 85.94 4.06 90 5.208 90 5.208 85.94 9.198 80.004 7.812 80.004 4.634 84.876 1.456 80.004"/>
  </g>
</svg>
