<svg xmlns="http://www.w3.org/2000/svg" width="26" height="18" viewBox="0 0 26 18">
  <path fill="#FFFFFF" fill-rule="evenodd" d="M21.8629138,13.5769316 C20.6836728,14.649298 18.9015613,15.1931714 16.5676305,15.1931714 L15.012456,15.1931714 L15.012456,2.12767214 L16.5676305,2.12767214 C18.9015613,2.12767214 20.6836728,2.66934836 21.8629138,3.73861282 C23.0246182,4.7915921 23.6384003,6.49287677 23.6384003,8.66048638 C23.6384003,10.8216336 23.0246182,12.5221428 21.8629138,13.5769316 M23.5008352,2.17523521 C21.8445978,0.732445511 19.3998614,0 16.2348242,0 L12.6724199,0 L12.6724199,17.3088235 L16.2348242,17.3088235 C19.3998614,17.3088235 21.8451174,16.5780582 23.5008352,15.135527 C25.136808,13.710832 26,11.47149 26,8.66048638 C26,5.84224492 25.136808,3.59915478 23.5008352,2.17523521 Z M4.99612135,10.4884077 C4.99612135,11.6827838 4.91311463,12.5314228 4.749959,13.0133867 C4.59018081,13.4926363 4.31115352,13.8914941 3.92067119,14.1966474 C3.4690055,14.539541 2.92043369,14.7950633 2.29158308,14.9540377 C1.68897246,15.105128 0.939703644,15.1835812 0.0622225664,15.1914653 L0,15.1924993 L0,17.3164233 L0.0622225664,17.3164233 C0.123535826,17.3181035 0.170300177,17.3164233 0.191084332,17.3164233 C2.61295809,17.3164233 4.50574517,16.7946511 5.66446186,15.8088806 C6.84136468,14.8057908 7.43786995,13.2713646 7.43786995,11.2500632 L7.43786995,0.00010339799 L4.99612135,0.00010339799 L4.99612135,10.4884077 Z"/>
</svg>
