<svg xmlns="http://www.w3.org/2000/svg" width="22" height="22" viewBox="0 0 22 22">
  <g fill="none" fill-rule="evenodd">
    <path fill="#FFFFFF" d="M20.25,19.8888889 C20.25,20.0885642 20.0885642,20.25 19.8888889,20.25 L14.8888889,20.25 C14.4746753,20.25 14.1388889,20.5857864 14.1388889,21 C14.1388889,21.4142136 14.4746753,21.75 14.8888889,21.75 L19.8888889,21.75 C20.9169913,21.75 21.75,20.9169913 21.75,19.8888889 L21.75,14.8888889 C21.75,14.4746753 21.4142136,14.1388889 21,14.1388889 C20.5857864,14.1388889 20.25,14.4746753 20.25,14.8888889 L20.25,19.8888889 Z M19.8888889,1.75 C20.0885642,1.75 20.25,1.91143578 20.25,2.11111111 L20.25,7.11111111 C20.25,7.52532467 20.5857864,7.86111111 21,7.86111111 C21.4142136,7.86111111 21.75,7.52532467 21.75,7.11111111 L21.75,2.11111111 C21.75,1.08300866 20.9169913,0.25 19.8888889,0.25 L14.8888889,0.25 C14.4746753,0.25 14.1388889,0.585786438 14.1388889,1 C14.1388889,1.41421356 14.4746753,1.75 14.8888889,1.75 L19.8888889,1.75 Z M1.75,2.11111111 C1.75,1.91143578 1.91143578,1.75 2.11111111,1.75 L7.11111111,1.75 C7.52532467,1.75 7.86111111,1.41421356 7.86111111,1 C7.86111111,0.585786438 7.52532467,0.25 7.11111111,0.25 L2.11111111,0.25 C1.08300866,0.25 0.25,1.08300866 0.25,2.11111111 L0.25,7.11111111 C0.25,7.52532467 0.585786438,7.86111111 1,7.86111111 C1.41421356,7.86111111 1.75,7.52532467 1.75,7.11111111 L1.75,2.11111111 Z M2.11111111,20.25 C1.91143578,20.25 1.75,20.0885642 1.75,19.8888889 L1.75,14.8888889 C1.75,14.4746753 1.41421356,14.1388889 1,14.1388889 C0.585786438,14.1388889 0.25,14.4746753 0.25,14.8888889 L0.25,19.8888889 C0.25,20.9169913 1.08300866,21.75 2.11111111,21.75 L7.11111111,21.75 C7.52532467,21.75 7.86111111,21.4142136 7.86111111,21 C7.86111111,20.5857864 7.52532467,20.25 7.11111111,20.25 L2.11111111,20.25 Z"/>
    <path stroke="#FFFFFF" stroke-width="1.5" d="M3,11 L19.1139064,11" stroke-linecap="round"/>
  </g>
</svg>
