<svg xmlns="http://www.w3.org/2000/svg" width="1013" height="10" viewBox="0 0 1013 10">
  <g fill="#FFFFFF" fill-rule="evenodd" transform="translate(-6 -5)">
    <g transform="translate(961 5)">
      <path d="M34.4937128.5C33.668758.5 33 1.16802155 33 2.00530324L33 8.49469676C33 9.32605278 33.6733803 10 34.4937128 10L54.0062872 10C54.831242 10 55.5 9.33197845 55.5 8.49469676L55.5 2.00530324C55.5 1.17394722 54.8266197.5 54.0062872.5L34.4937128.5zM56 3.5L56 7 56.75 7C57.1642136 7 57.5 6.66440529 57.5 6.25774002L57.5 4.24225998C57.5 3.83232111 57.1671014 3.5 56.75 3.5L56 3.5zM34.5081524 1C33.9513652 1 33.5 1.45699692 33.5 2.00844055L33.5 8.49155945C33.5 9.04850578 33.9490581 9.5 34.5081524 9.5L53.9918476 9.5C54.5486348 9.5 55 9.04300308 55 8.49155945L55 2.00844055C55 1.45149422 54.5509419 1 53.9918476 1L34.5081524 1zM34.5067444 1.5C34.2268772 1.5 34 1.71637201 34 1.99209595L34 8.50790405C34 8.77968114 34.2302246 9 34.5067444 9L53.9932556 9C54.2731228 9 54.5 8.78362799 54.5 8.50790405L54.5 1.99209595C54.5 1.72031886 54.2697754 1.5 53.9932556 1.5L34.5067444 1.5zM2.81835938 9.5L3.87304688 9.5 3.87304688 1.04492188 2.82421875 1.04492188.57421875 2.66210938.57421875 3.77539062 2.72460938 2.21679688 2.81835938 2.21679688 2.81835938 9.5zM9.234375 9.69921875C11.1328125 9.69921875 12.2226562 8.09375 12.2226562 5.28710938 12.2226562 2.48632812 11.1152344.845703125 9.234375.845703125 7.34179688.845703125 6.234375 2.48046875 6.234375 5.26953125 6.234375 8.08203125 7.33007812 9.69921875 9.234375 9.69921875zM9.234375 8.77929688C7.98632812 8.77929688 7.29492188 7.53125 7.29492188 5.26953125 7.29492188 3.03710938 7.99804688 1.77148438 9.234375 1.77148438 10.4707031 1.77148438 11.1621094 3.02539062 11.1621094 5.26953125 11.1621094 7.53710938 10.4824219 8.77929688 9.234375 8.77929688zM16.7929688 9.69921875C18.6914062 9.69921875 19.78125 8.09375 19.78125 5.28710938 19.78125 2.48632812 18.6738281.845703125 16.7929688.845703125 14.9003906.845703125 13.7929688 2.48046875 13.7929688 5.26953125 13.7929688 8.08203125 14.8886719 9.69921875 16.7929688 9.69921875zM16.7929688 8.77929688C15.5449219 8.77929688 14.8535156 7.53125 14.8535156 5.26953125 14.8535156 3.03710938 15.5566406 1.77148438 16.7929688 1.77148438 18.0292969 1.77148438 18.7207031 3.02539062 18.7207031 5.26953125 18.7207031 7.53710938 18.0410156 8.77929688 16.7929688 8.77929688zM27.7324219 8.89648438C27.2109375 8.89648438 26.8652344 8.38671875 26.8652344 7.60742188 26.8652344 6.828125 27.2050781 6.32421875 27.7324219 6.32421875 28.2597656 6.32421875 28.59375 6.81640625 28.59375 7.60742188 28.59375 8.38085938 28.2480469 8.89648438 27.7324219 8.89648438zM27.7324219 9.64648438C28.7871094 9.64648438 29.53125 8.80273438 29.53125 7.60742188 29.53125 6.41210938 28.7871094 5.57421875 27.7324219 5.57421875 26.6777344 5.57421875 25.9277344 6.41796875 25.9277344 7.60742188 25.9277344 8.80273438 26.6777344 9.64648438 27.7324219 9.64648438zM22.8398438 4.97070312C23.8945312 4.97070312 24.6386719 4.12695312 24.6386719 2.93164062 24.6386719 1.73632812 23.8945312.8984375 22.8398438.8984375 21.7851562.8984375 21.0351562 1.7421875 21.0351562 2.93164062 21.0351562 4.12695312 21.7851562 4.97070312 22.8398438 4.97070312zM22.7460938 9.5L25.6464844 5.53320312 28.9277344 1.04492188 27.8613281 1.04492188 24.8964844 5.09375 21.6679688 9.5 22.7460938 9.5zM22.8398438 4.22070312C22.3183594 4.22070312 21.9726562 3.7109375 21.9726562 2.93164062 21.9726562 2.15234375 22.3125 1.6484375 22.8398438 1.6484375 23.3671875 1.6484375 23.7011719 2.140625 23.7011719 2.93164062 23.7011719 3.70507812 23.3554688 4.22070312 22.8398438 4.22070312z"/>
    </g>
    <path d="M491.577148,14.7050781 C493.727539,14.7050781 495.004883,13.0234375 495.004883,10.1757812 C495.004883,9.10351562 494.799805,8.20117188 494.407227,7.50390625 C493.838867,6.41992188 492.860352,5.83398438 491.624023,5.83398438 C489.78418,5.83398438 488.483398,7.0703125 488.483398,8.8046875 C488.483398,10.4335938 489.655273,11.6171875 491.266602,11.6171875 C492.256836,11.6171875 493.05957,11.1542969 493.458008,10.3515625 L493.557617,10.3515625 C493.557617,12.2851562 492.825195,13.4394531 491.588867,13.4394531 C490.862305,13.4394531 490.299805,13.0410156 490.106445,12.4023438 L488.600586,12.4023438 C488.852539,13.7910156 490.030273,14.7050781 491.577148,14.7050781 Z M491.629883,10.4160156 C490.657227,10.4160156 489.96582,9.72460938 489.96582,8.7578125 C489.96582,7.81445312 490.692383,7.09375 491.635742,7.09375 C492.579102,7.09375 493.305664,7.82617188 493.305664,8.78125 C493.305664,9.72460938 492.59668,10.4160156 491.629883,10.4160156 Z M497.717773,13.6035156 C498.274414,13.6035156 498.655273,13.2050781 498.655273,12.6777344 C498.655273,12.1445312 498.274414,11.7519531 497.717773,11.7519531 C497.166992,11.7519531 496.780273,12.1445312 496.780273,12.6777344 C496.780273,13.2050781 497.166992,13.6035156 497.717773,13.6035156 Z M497.717773,9.20898438 C498.274414,9.20898438 498.655273,8.81640625 498.655273,8.2890625 C498.655273,7.75585938 498.274414,7.36328125 497.717773,7.36328125 C497.166992,7.36328125 496.780273,7.75585938 496.780273,8.2890625 C496.780273,8.81640625 497.166992,9.20898438 497.717773,9.20898438 Z M504.49707,14.5 L505.944336,14.5 L505.944336,12.9238281 L507.086914,12.9238281 L507.086914,11.6464844 L505.944336,11.6464844 L505.944336,6.04492188 L503.811523,6.04492188 C502.317383,8.29492188 501.12793,10.1757812 500.366211,11.5761719 L500.366211,12.9238281 L504.49707,12.9238281 L504.49707,14.5 Z M501.766602,11.59375 C502.750977,9.859375 503.629883,8.47070312 504.438477,7.27539062 L504.520508,7.27539062 L504.520508,11.6816406 L501.766602,11.6816406 L501.766602,11.59375 Z M510.68457,14.5 L512.196289,14.5 L512.196289,6.04492188 L510.69043,6.04492188 L508.481445,7.59179688 L508.481445,9.04492188 L510.584961,7.56835938 L510.68457,7.56835938 L510.68457,14.5 Z M523.411133,14.5 L525.03418,14.5 L522.02832,6.04492188 L520.329102,6.04492188 L517.329102,14.5 L518.858398,14.5 L519.584961,12.3378906 L522.696289,12.3378906 L523.411133,14.5 Z M521.09668,7.65625 L521.196289,7.65625 L522.344727,11.1425781 L519.936523,11.1425781 L521.09668,7.65625 Z M527.893555,14.5 L527.893555,8.55273438 L527.975586,8.55273438 L530.313477,14.171875 L531.391602,14.171875 L533.729492,8.55273438 L533.811523,8.55273438 L533.811523,14.5 L535.217773,14.5 L535.217773,6.04492188 L533.448242,6.04492188 L530.905273,12.203125 L530.799805,12.203125 L528.256836,6.04492188 L526.487305,6.04492188 L526.487305,14.5 L527.893555,14.5 Z"/>
    <g transform="translate(6 5)">
      <path d="M47.1444208 6.93850432C46.626374 6.34544555 45.8523616 5.96891192 44.987563 5.96891192 44.1390073 5.96891192 43.3778594 6.33143413 42.8601652 6.90531769L45.0225391 9 47.1444208 6.93850432zM49.3234964 4.82144245C48.2447794 3.69174563 46.7014387 2.98445596 44.987563 2.98445596 43.2882723 2.98445596 41.7566264 3.67975893 40.6792698 4.79269359L41.7692987 5.84859996C42.567205 5.0053708 43.713648 4.47668394 44.987563 4.47668394 46.2768836 4.47668394 47.4356305 5.01823504 48.2346215 5.87932931L49.3234964 4.82144245 49.3234964 4.82144245zM51.5 2.70687933C49.8629578 1.03943672 47.5505699 0 44.987563 0 42.4375103 0 40.1355496 1.02895605 38.5 2.68164431L39.5895579 3.73709441C40.9460798 2.35431655 42.8628921 1.49222798 44.987563 1.49222798 47.1260026 1.49222798 49.0538809 2.36552609 50.4118698 3.76404272L51.5 2.70687933zM3.25 8C4.76878306 8 6 6.76878306 6 5.25 6 3.73121694 4.76878306 2.5 3.25 2.5 1.73121694 2.5.5 3.73121694.5 5.25.5 6.76878306 1.73121694 8 3.25 8zM10.25 8C11.7687831 8 13 6.76878306 13 5.25 13 3.73121694 11.7687831 2.5 10.25 2.5 8.73121694 2.5 7.5 3.73121694 7.5 5.25 7.5 6.76878306 8.73121694 8 10.25 8zM17.25 8C18.7687831 8 20 6.76878306 20 5.25 20 3.73121694 18.7687831 2.5 17.25 2.5 15.7312169 2.5 14.5 3.73121694 14.5 5.25 14.5 6.76878306 15.7312169 8 17.25 8zM24.25 8C25.7687831 8 27 6.76878306 27 5.25 27 3.73121694 25.7687831 2.5 24.25 2.5 22.7312169 2.5 21.5 3.73121694 21.5 5.25 21.5 6.76878306 22.7312169 8 24.25 8zM31.25 8C32.7687831 8 34 6.76878306 34 5.25 34 3.73121694 32.7687831 2.5 31.25 2.5 29.7312169 2.5 28.5 3.73121694 28.5 5.25 28.5 6.76878306 29.7312169 8 31.25 8z"/>
    </g>
  </g>
</svg>
