<svg xmlns="http://www.w3.org/2000/svg" width="21" height="22" viewBox="0 0 21 22">
  <g fill="#FFFFFF" fill-rule="evenodd">
    <path d="M16.75 8.5C16.75 3.94365081 13.0563492.25 8.5.25 3.94365081.25.25 3.94365081.25 8.5.25 13.0563492 3.94365081 16.75 8.5 16.75 13.0563492 16.75 16.75 13.0563492 16.75 8.5zM1.75 8.5C1.75 4.77207794 4.77207794 1.75 8.5 1.75 12.2279221 1.75 15.25 4.77207794 15.25 8.5 15.25 12.2279221 12.2279221 15.25 8.5 15.25 4.77207794 15.25 1.75 12.2279221 1.75 8.5zM18.9696699 21.0303301C19.2625631 21.3232233 19.7374369 21.3232233 20.0303301 21.0303301 20.3232233 20.7374369 20.3232233 20.2625631 20.0303301 19.9696699L16.0303301 15.9696699C15.7374369 15.6767767 15.2625631 15.6767767 14.9696699 15.9696699 14.6767767 16.2625631 14.6767767 16.7374369 14.9696699 17.0303301L18.9696699 21.0303301z"/>
  </g>
</svg>
