<svg xmlns="http://www.w3.org/2000/svg" width="143" height="30" viewBox="0 0 143 30">
  <path fill="#313335" fill-rule="evenodd" d="M12.193,21.313 C13.3710059,21.850336 14.2648303,22.5994952 14.8745,23.5605 C15.4841697,24.5215048 15.789,25.6013273 15.789,26.8 C15.789,27.792005 15.6288349,28.7064958 15.3085,29.5435 C14.9881651,30.3805042 14.5335029,31.1038303 13.9445,31.7135 C13.3554971,32.3231697 12.6373376,32.7933317 11.79,33.124 C10.9426624,33.4546683 9.99200527,33.62 8.938,33.62 C7.88399473,33.62 6.93333757,33.4598349 6.086,33.1395 C5.23866243,32.8191651 4.52050295,32.3645029 3.9315,31.7755 C3.34249706,31.1864971 2.89300155,30.4683376 2.583,29.621 C2.27299845,28.7736624 2.118,27.8333385 2.118,26.8 C2.118,25.6839944 2.43316352,24.6196717 3.0635,23.607 C3.69383649,22.5943283 4.60832734,21.8400025 5.807,21.344 C4.93899566,20.8893311 4.26733571,20.2693373 3.792,19.484 C3.31666429,18.6986627 3.079,17.8410047 3.079,16.911 C3.079,16.0843292 3.22366522,15.3248368 3.513,14.6325 C3.80233478,13.9401632 4.21049737,13.3563357 4.7375,12.881 C5.26450264,12.4056643 5.89482967,12.033668 6.6285,11.765 C7.36217034,11.496332 8.16299566,11.362 9.031,11.362 C10.8496758,11.362 12.2653283,11.8631617 13.278,12.8655 C14.2906717,13.8678383 14.797,15.2473246 14.797,17.004 C14.797,17.810004 14.5645023,18.615996 14.0995,19.422 C13.6344977,20.228004 12.999004,20.8583311 12.193,21.313 Z M9,19.577 C9.6200031,19.577 10.131498,19.3445023 10.5345,18.8795 C10.937502,18.4144977 11.139,17.820337 11.139,17.097 C11.139,16.3943298 10.9323354,15.7898359 10.519,15.2835 C10.1056646,14.7771641 9.57866987,14.524 8.938,14.524 C8.3179969,14.524 7.8013354,14.7668309 7.388,15.2525 C6.9746646,15.7381691 6.768,16.3633295 6.768,17.128 C6.768,17.8720037 6.96433137,18.4661644 7.357,18.9105 C7.74966863,19.3548356 8.29732982,19.577 9,19.577 Z M8.938,30.241 C9.93000496,30.241 10.7101638,29.8896702 11.2785,29.187 C11.8468362,28.4843298 12.131,27.5750056 12.131,26.459 C12.131,26.0043311 12.0431675,25.5651688 11.8675,25.1415 C11.6918325,24.7178312 11.4541682,24.3458349 11.1545,24.0255 C10.8548318,23.7051651 10.5086686,23.4520009 10.116,23.266 C9.72333137,23.0799991 9.31000217,22.987 8.876,22.987 C8.42133106,22.987 8.00283525,23.0799991 7.6205,23.266 C7.23816476,23.4520009 6.9075014,23.7103317 6.6285,24.041 C6.34949861,24.3716683 6.13250078,24.7539978 5.9775,25.188 C5.82249923,25.6220022 5.745,26.0869975 5.745,26.583 C5.745,27.657672 6.02916383,28.5359966 6.5975,29.218 C7.16583618,29.9000034 7.94599504,30.241 8.938,30.241 Z M32.746,31.512 C32.746,32.7106727 32.3946702,33.31 31.692,33.31 L20.346,33.31 C20.0153317,33.31 19.7208346,33.0671691 19.4625,32.5815 C19.2041654,32.0958309 19.0956665,31.5223366 19.137,30.861 C19.1576668,30.5303317 19.2144995,30.1945017 19.3075,29.8535 C19.4005005,29.5124983 19.5606655,29.1870015 19.788,28.877 C19.9120006,28.6909991 20.2168309,28.3861688 20.7025,27.9625 C21.1881691,27.5388312 21.7513301,27.0428362 22.392,26.4745 C23.0326699,25.9061638 23.7094964,25.2655036 24.4225,24.5525 C25.1355036,23.8394964 25.7864971,23.0955039 26.3755,22.3205 C26.9645029,21.5454961 27.4553314,20.755004 27.848,19.949 C28.2406686,19.142996 28.437,18.337004 28.437,17.531 C28.437,16.7663295 28.2200022,16.1463357 27.786,15.671 C27.3519978,15.1956643 26.773337,14.958 26.05,14.958 C25.243996,14.958 24.639502,15.226664 24.2365,15.764 C23.833498,16.301336 23.632,17.065995 23.632,18.058 C23.632,18.7193366 23.4925014,19.1894986 23.2135,19.4685 C22.9344986,19.7475014 22.4436702,19.887 21.741,19.887 C20.8936624,19.887 20.3253348,19.7630012 20.036,19.515 C19.7466652,19.2669988 19.602,18.7813369 19.602,18.058 C19.602,15.991323 20.1599944,14.3586727 21.276,13.16 C22.3920056,11.9613273 24.1073218,11.362 26.422,11.362 C28.3646764,11.362 29.8629947,11.9096612 30.917,13.005 C31.9710053,14.1003388 32.498,15.546991 32.498,17.345 C32.498,18.0683369 32.3740012,18.7968297 32.126,19.5305 C31.8779988,20.2641703 31.552502,20.9874964 31.1495,21.7005 C30.746498,22.4135036 30.2866693,23.10583 29.77,23.7775 C29.2533308,24.44917 28.726336,25.0846637 28.189,25.684 C27.5483301,26.3866702 26.8715036,27.07383 26.1585,27.7455 C25.4454964,28.41717 24.6963373,29.0733301 23.911,29.714 L31.692,29.714 C32.3946702,29.714 32.746,30.3133273 32.746,31.512 Z M46.107,21.313 C47.2850059,21.850336 48.1788303,22.5994952 48.7885,23.5605 C49.3981697,24.5215048 49.703,25.6013273 49.703,26.8 C49.703,27.792005 49.5428349,28.7064958 49.2225,29.5435 C48.9021651,30.3805042 48.4475029,31.1038303 47.8585,31.7135 C47.2694971,32.3231697 46.5513376,32.7933317 45.704,33.124 C44.8566624,33.4546683 43.9060053,33.62 42.852,33.62 C41.7979947,33.62 40.8473376,33.4598349 40,33.1395 C39.1526624,32.8191651 38.4345029,32.3645029 37.8455,31.7755 C37.2564971,31.1864971 36.8070016,30.4683376 36.497,29.621 C36.1869985,28.7736624 36.032,27.8333385 36.032,26.8 C36.032,25.6839944 36.3471635,24.6196717 36.9775,23.607 C37.6078365,22.5943283 38.5223273,21.8400025 39.721,21.344 C38.8529957,20.8893311 38.1813357,20.2693373 37.706,19.484 C37.2306643,18.6986627 36.993,17.8410047 36.993,16.911 C36.993,16.0843292 37.1376652,15.3248368 37.427,14.6325 C37.7163348,13.9401632 38.1244974,13.3563357 38.6515,12.881 C39.1785026,12.4056643 39.8088297,12.033668 40.5425,11.765 C41.2761703,11.496332 42.0769957,11.362 42.945,11.362 C44.7636758,11.362 46.1793283,11.8631617 47.192,12.8655 C48.2046717,13.8678383 48.711,15.2473246 48.711,17.004 C48.711,17.810004 48.4785023,18.615996 48.0135,19.422 C47.5484977,20.228004 46.913004,20.8583311 46.107,21.313 Z M42.914,19.577 C43.5340031,19.577 44.045498,19.3445023 44.4485,18.8795 C44.851502,18.4144977 45.053,17.820337 45.053,17.097 C45.053,16.3943298 44.8463354,15.7898359 44.433,15.2835 C44.0196646,14.7771641 43.4926699,14.524 42.852,14.524 C42.2319969,14.524 41.7153354,14.7668309 41.302,15.2525 C40.8886646,15.7381691 40.682,16.3633295 40.682,17.128 C40.682,17.8720037 40.8783314,18.4661644 41.271,18.9105 C41.6636686,19.3548356 42.2113298,19.577 42.914,19.577 Z M42.852,30.241 C43.844005,30.241 44.6241638,29.8896702 45.1925,29.187 C45.7608362,28.4843298 46.045,27.5750056 46.045,26.459 C46.045,26.0043311 45.9571675,25.5651688 45.7815,25.1415 C45.6058325,24.7178312 45.3681682,24.3458349 45.0685,24.0255 C44.7688318,23.7051651 44.4226686,23.4520009 44.03,23.266 C43.6373314,23.0799991 43.2240022,22.987 42.79,22.987 C42.3353311,22.987 41.9168352,23.0799991 41.5345,23.266 C41.1521648,23.4520009 40.8215014,23.7103317 40.5425,24.041 C40.2634986,24.3716683 40.0465008,24.7539978 39.8915,25.188 C39.7364992,25.6220022 39.659,26.0869975 39.659,26.583 C39.659,27.657672 39.9431638,28.5359966 40.5115,29.218 C41.0798362,29.9000034 41.859995,30.241 42.852,30.241 Z M53.051,19.639 C52.5343308,18.915663 52.3069997,18.3576686 52.369,17.965 C52.4310003,17.5723314 52.6686646,17.2623345 53.082,17.035 C53.5573357,16.7249985 54.0068312,16.6009997 54.4305,16.663 C54.8541688,16.7250003 55.3553304,17.1486627 55.934,17.934 L58.91,22.057 L61.917,17.872 C62.3923357,17.2106634 62.831498,16.8283338 63.2345,16.725 C63.637502,16.6216661 64.0559978,16.6733323 64.49,16.88 C65.027336,17.148668 65.3476662,17.4586649 65.451,17.81 C65.5543339,18.1613351 65.3786689,18.6573301 64.924,19.298 L60.925,24.816 L65.141,30.582 C65.6163357,31.2433366 65.8436668,31.7858312 65.823,32.2095 C65.8023332,32.6331688 65.5336693,32.9896652 65.017,33.279 C64.5209975,33.5683348 64.0766686,33.6768337 63.684,33.6045 C63.2913314,33.5321663 62.8780022,33.1963363 62.444,32.597 L58.879,27.699 L55.407,32.504 C55.1796655,32.8346683 54.9730009,33.0929991 54.787,33.279 C54.6009991,33.4650009 54.4046677,33.5889997 54.198,33.651 C53.9913323,33.7130003 53.7691679,33.7130003 53.5315,33.651 C53.2938321,33.5889997 53.0096683,33.4753342 52.679,33.31 C52.1829975,33.0206652 51.9246668,32.7158349 51.904,32.3955 C51.8833332,32.0751651 52.0899978,31.6153363 52.524,31.016 L56.864,24.909 L53.051,19.639 Z M68.024,19.639 C67.5073308,18.915663 67.2799997,18.3576686 67.342,17.965 C67.4040003,17.5723314 67.6416646,17.2623345 68.055,17.035 C68.5303357,16.7249985 68.9798312,16.6009997 69.4035,16.663 C69.8271688,16.7250003 70.3283304,17.1486627 70.907,17.934 L73.883,22.057 L76.89,17.872 C77.3653357,17.2106634 77.804498,16.8283338 78.2075,16.725 C78.610502,16.6216661 79.0289978,16.6733323 79.463,16.88 C80.000336,17.148668 80.3206662,17.4586649 80.424,17.81 C80.5273339,18.1613351 80.3516689,18.6573301 79.897,19.298 L75.898,24.816 L80.114,30.582 C80.5893357,31.2433366 80.8166668,31.7858312 80.796,32.2095 C80.7753332,32.6331688 80.5066693,32.9896652 79.99,33.279 C79.4939975,33.5683348 79.0496686,33.6768337 78.657,33.6045 C78.2643314,33.5321663 77.8510022,33.1963363 77.417,32.597 L73.852,27.699 L70.38,32.504 C70.1526655,32.8346683 69.9460009,33.0929991 69.76,33.279 C69.5739991,33.4650009 69.3776677,33.5889997 69.171,33.651 C68.9643323,33.7130003 68.7421679,33.7130003 68.5045,33.651 C68.2668321,33.5889997 67.9826683,33.4753342 67.652,33.31 C67.1559975,33.0206652 66.8976668,32.7158349 66.877,32.3955 C66.8563332,32.0751651 67.0629978,31.6153363 67.497,31.016 L71.837,24.909 L68.024,19.639 Z M93.754,33.527 C93.0099963,33.527 92.503668,33.4340009 92.235,33.248 C91.966332,33.0619991 91.832,32.7520022 91.832,32.318 L91.832,29.156 L83.896,29.156 C83.2553301,29.156 82.8058346,28.9700019 82.5475,28.598 C82.2891654,28.2259981 82.16,27.7506696 82.16,27.172 C82.16,26.9239988 82.1651666,26.7070009 82.1755,26.521 C82.1858334,26.3349991 82.2116665,26.1593342 82.253,25.994 C82.2943335,25.8286658 82.3563329,25.6685008 82.439,25.5135 C82.5216671,25.3584992 82.6456658,25.1776677 82.811,24.971 L89.848,14.214 C90.2406686,13.5939969 90.5764986,13.0928352 90.8555,12.7105 C91.1345014,12.3281648 91.3979988,12.0285011 91.646,11.8115 C91.8940012,11.5944989 92.152332,11.4498337 92.421,11.3775 C92.689668,11.3051663 93.0099981,11.269 93.382,11.269 C94.2500043,11.269 94.8596649,11.4446649 95.211,11.796 C95.5623351,12.1473351 95.738,12.7156627 95.738,13.501 L95.738,25.622 L96.761,25.622 C97.3396696,25.622 97.629,26.2006609 97.629,27.358 C97.629,28.5566727 97.3396696,29.156 96.761,29.156 L95.738,29.156 L95.738,32.318 C95.738,32.7933357 95.603668,33.1136658 95.335,33.279 C95.066332,33.4443342 94.5393373,33.527 93.754,33.527 Z M91.832,25.622 L91.832,17.066 L86.469,25.622 L91.832,25.622 Z M105.503,19.081 C105.730334,18.9776661 105.916333,18.9156668 106.061,18.895 C106.205667,18.8743332 106.350333,18.864 106.495,18.864 C107.569672,18.864 108.530662,19.0448315 109.378,19.4065 C110.225338,19.7681685 110.943497,20.2744967 111.5325,20.9255 C112.121503,21.5765033 112.570998,22.3566621 112.881,23.266 C113.191002,24.1753379 113.346,25.167328 113.346,26.242 C113.346,27.1513379 113.191002,28.0451623 112.881,28.9235 C112.570998,29.8018377 112.121503,30.5871632 111.5325,31.2795 C110.943497,31.9718368 110.220171,32.5349978 109.3625,32.969 C108.504829,33.4030022 107.538672,33.62 106.464,33.62 C105.368661,33.62 104.402504,33.418502 103.5655,33.0155 C102.728496,32.612498 102.025836,32.0700034 101.4575,31.388 C100.889164,30.7059966 100.455168,29.9206711 100.1555,29.032 C99.8558318,28.1433289 99.706,27.2133382 99.706,26.242 C99.706,25.2086615 99.8196655,24.1495054 100.047,23.0645 C100.274334,21.9794946 100.594665,20.9100053 101.008,19.856 C101.421335,18.8019947 101.922497,17.7945048 102.5115,16.8335 C103.100503,15.8724952 103.766996,14.989004 104.511,14.183 C105.441005,13.190995 106.215997,12.4728356 106.836,12.0285 C107.456003,11.5841644 107.931332,11.362 108.262,11.362 C108.572002,11.362 108.856165,11.4343326 109.1145,11.579 C109.372835,11.7236674 109.594999,11.9096655 109.781,12.137 C110.049668,12.4676683 110.189167,12.8241648 110.1995,13.2065 C110.209833,13.5888352 110.029002,13.9246652 109.657,14.214 C108.830329,14.8133363 108.086337,15.4694964 107.425,16.1825 C106.763663,16.8955036 106.123003,17.8616606 105.503,19.081 Z M106.464,30.148 C106.960002,30.148 107.399165,30.0343345 107.7815,29.807 C108.163835,29.5796655 108.489332,29.2851685 108.758,28.9235 C109.026668,28.5618315 109.233333,28.1485023 109.378,27.6835 C109.522667,27.2184977 109.595,26.7380025 109.595,26.242 C109.595,24.981327 109.326336,24.01517 108.789,23.3435 C108.251664,22.67183 107.487005,22.336 106.495,22.336 C105.502995,22.336 104.748669,22.67183 104.232,23.3435 C103.715331,24.01517 103.457,24.981327 103.457,26.242 C103.457,26.7380025 103.524166,27.2184977 103.6585,27.6835 C103.792834,28.1485023 103.989165,28.5618315 104.2475,28.9235 C104.505835,29.2851685 104.820998,29.5796655 105.193,29.807 C105.565002,30.0343345 105.988664,30.148 106.464,30.148 Z M132.287,11.455 C132.287,12.0750031 132.261167,12.7828294 132.2095,13.5785 C132.157833,14.3741706 132.080334,15.1543295 131.977,15.919 C132.927671,20.2176882 134.374324,23.896318 136.317,26.955 C138.259676,30.013682 140.636319,32.5349901 143.447,34.519 C143.901669,34.8496683 144.252999,35.1441654 144.501,35.4025 C144.749001,35.6608346 144.904,35.9088321 144.966,36.1465 C145.028,36.3841679 145.007334,36.6269988 144.904,36.875 C144.800666,37.1230012 144.635334,37.4019985 144.408,37.712 C143.973998,38.2906696 143.529669,38.5645002 143.075,38.5335 C142.620331,38.5024998 141.969338,38.1873363 141.122,37.588 C138.455987,35.7073239 136.270509,33.5631787 134.5655,31.1555 C132.860491,28.7478213 131.470672,26.0870146 130.396,23.173 C129.341995,26.1490149 127.83851,28.8924874 125.8855,31.4035 C123.93249,33.9145126 121.499015,36.0999907 118.585,37.96 C117.799663,38.4353357 117.164169,38.6471669 116.6785,38.5955 C116.192831,38.5438331 115.774335,38.2183363 115.423,37.619 C115.071665,36.9576634 114.994166,36.4048356 115.1905,35.9605 C115.386834,35.5161644 115.856996,35.0873354 116.601,34.674 C118.337009,33.6613283 119.959326,32.3438414 121.468,30.7215 C122.976674,29.0991586 124.273495,27.2753435 125.3585,25.25 C126.443505,23.2246565 127.264997,21.0495116 127.823,18.7245 C128.381003,16.3994884 128.577334,14.0176789 128.412,11.579 C128.370666,10.772996 128.520498,10.1530022 128.8615,9.719 C129.202502,9.28499783 129.734663,9.09899969 130.458,9.161 C131.181337,9.20233354 131.666999,9.38833168 131.915,9.719 C132.163001,10.0496683 132.287,10.6283292 132.287,11.455 Z" transform="translate(-2 -9)"/>
</svg>
