<svg xmlns="http://www.w3.org/2000/svg" width="40" height="40" viewBox="0 0 40 40" xmlns:xlink="http://www.w3.org/1999/xlink">
  <defs>
    <rect id="a" width="40" height="40"/>
  </defs>
  <g fill="none" fill-rule="evenodd">
    <mask id="b" fill="white">
      <use xlink:href="#a"/>
    </mask>
    <use fill="#D8D8D8" opacity=".5" xlink:href="#a"/>
    <g fill="#E33235" stroke="#DC3033" stroke-width="2" transform="translate(-20 -20)" mask="url(#b)">
      <circle cx="20" cy="20" r="20"/>
      <circle cx="20" cy="20" r="15"/>
      <circle cx="20" cy="20" r="9"/>
      <circle cx="20" cy="20" r="3"/>
    </g>
    <g fill="#E33235" stroke="#DC3033" stroke-width="2" transform="translate(20 -20)" mask="url(#b)">
      <circle cx="20" cy="20" r="20"/>
      <circle cx="20" cy="20" r="15"/>
      <circle cx="20" cy="20" r="9"/>
      <circle cx="20" cy="20" r="3"/>
    </g>
    <g fill="#E33235" stroke="#DC3033" stroke-width="2" transform="translate(0 -11)" mask="url(#b)">
      <circle cx="20" cy="20" r="20"/>
      <circle cx="20" cy="20" r="15"/>
      <circle cx="20" cy="20" r="9"/>
      <circle cx="20" cy="20" r="3"/>
    </g>
    <g fill="#E33235" stroke="#DC3033" stroke-width="2" transform="translate(-20)" mask="url(#b)">
      <circle cx="20" cy="20" r="20"/>
      <circle cx="20" cy="20" r="15"/>
      <circle cx="20" cy="20" r="9"/>
      <circle cx="20" cy="20" r="3"/>
    </g>
    <g fill="#E33235" stroke="#DC3033" stroke-width="2" transform="translate(20)" mask="url(#b)">
      <circle cx="20" cy="20" r="20"/>
      <circle cx="20" cy="20" r="15"/>
      <circle cx="20" cy="20" r="9"/>
      <circle cx="20" cy="20" r="3"/>
    </g>
    <g fill="#E33235" stroke="#DC3033" stroke-width="2" transform="translate(0 9)" mask="url(#b)">
      <circle cx="20" cy="20" r="20"/>
      <circle cx="20" cy="20" r="15"/>
      <circle cx="20" cy="20" r="9"/>
      <circle cx="20" cy="20" r="3"/>
    </g>
    <g fill="#E33235" stroke="#DC3033" stroke-width="2" transform="translate(-20 20)" mask="url(#b)">
      <circle cx="20" cy="20" r="20"/>
      <circle cx="20" cy="20" r="15"/>
      <circle cx="20" cy="20" r="9"/>
      <circle cx="20" cy="20" r="3"/>
    </g>
    <g fill="#E33235" stroke="#DC3033" stroke-width="2" transform="translate(20 20)" mask="url(#b)">
      <circle cx="20" cy="20" r="20"/>
      <circle cx="20" cy="20" r="15"/>
      <circle cx="20" cy="20" r="9"/>
      <circle cx="20" cy="20" r="3"/>
    </g>
    <g fill="#E33235" stroke="#DC3033" stroke-width="2" transform="translate(0 29)" mask="url(#b)">
      <circle cx="20" cy="20" r="20"/>
      <circle cx="20" cy="20" r="15"/>
    </g>
  </g>
</svg>
