<svg xmlns="http://www.w3.org/2000/svg" width="17" height="19" viewBox="0 0 17 19">
  <path fill="#999999" d="M78.7066872,47.6938314 L78.648578,47.7105014 C78.7915271,47.6725933 78.8397369,47.6432953 78.8185136,47.6707325 C78.6406067,47.9007274 78.5,48.3714753 78.5,49.1937809 C78.5,51.318025 80.8703793,53.5 84.1413094,53.5 C89.2712217,53.5 92.8207409,50.2824006 92.4767904,43.5301143 C92.3077287,40.2111666 90.3826521,38.0946832 87.7772432,37.5959998 C85.5881357,37.1769978 83.9844767,38.0764088 83.9844767,39.5436592 C83.9844767,42.3319955 83.0185178,44.488901 81.407511,46.0196513 C80.4276138,46.9507323 79.4376165,47.4681092 78.7066872,47.6938314 Z M78.2640884,46.260616 C78.2640884,46.260616 82.4844767,44.9572955 82.4844767,39.5436592 C82.4844767,34.130023 93.520359,34.5314716 93.9748482,43.4538057 C94.4293374,52.3761398 88.6310725,55 84.1413094,55 C79.6515463,55 77,51.7917269 77,49.1937809 C77,46.5958348 78.2640884,46.260616 78.2640884,46.260616 Z M83.21923,47.4493754 C83.3245979,47.3979711 83.5005223,47.3041715 83.7239771,47.1715248 C84.0946448,46.9514901 84.4653846,46.7000444 84.813567,46.4197083 C86.1516643,45.3423506 86.8284031,44.1305659 86.3568924,42.8296259 C86.2627974,42.5700094 85.9760575,42.4358277 85.716441,42.5299227 C85.4568245,42.6240177 85.3226428,42.9107576 85.4167378,43.1703741 C85.7011817,43.9551802 85.2282868,44.8019572 84.186433,45.6407969 C83.8783654,45.888835 83.5459802,46.1142676 83.2135229,46.3116199 C83.0151027,46.4294055 82.8629021,46.5105561 82.78077,46.5506246 C82.5325868,46.671702 82.4295473,46.9710468 82.5506246,47.21923 C82.671702,47.4674132 82.9710468,47.5704527 83.21923,47.4493754 Z" transform="translate(-77 -36)"/>
</svg>
