<svg xmlns="http://www.w3.org/2000/svg" width="24" height="20" viewBox="0 0 24 20" xmlns:xlink="http://www.w3.org/1999/xlink">
  <defs>
    <path id="a" d="M24,12 L24,18.1947576 C24,18.7499376 23.5525308,19.2 22.9993054,19.2 L1.00069463,19.2 C0.448026248,19.2 0,18.744328 0,18.1947576 L0,11.6789247 C0.353007524,11.8831267 0.762855152,12 1.2,12 C2.5254834,12 3.6,10.9254834 3.6,9.6 C3.6,8.2745166 2.5254834,7.2 1.2,7.2 C0.762855152,7.2 0.353007524,7.31687329 -6.68200395e-07,7.52107766 L0,1.00524244 C0,0.450062372 0.44746922,0 1.00069463,0 L22.9993054,0 C23.5519738,0 24,0.455671978 24,1.00524244 L24,7.2 C22.6745166,7.2 21.6,8.2745166 21.6,9.6 C21.6,10.9254834 22.6745166,12 24,12 Z"/>
    <mask id="c" width="24" height="19.2" x="0" y="0" fill="white">
      <use xlink:href="#a"/>
    </mask>
    <polygon id="b" points="8.832 5.082 11.172 9.294 9.588 9.294 9.588 10.038 11.592 10.038 11.604 10.05 11.604 11.082 9.588 11.082 9.588 11.826 11.604 11.826 11.604 13.65 12.996 13.65 12.996 11.826 15.024 11.826 15.024 11.082 12.996 11.082 12.996 10.05 13.008 10.038 15.024 10.038 15.024 9.294 13.428 9.294 15.768 5.082 14.184 5.082 12.3 8.766 10.416 5.082"/>
    <mask id="d" width="6.936" height="8.568" x="0" y="0" fill="white">
      <use xlink:href="#b"/>
    </mask>
  </defs>
  <g fill="none" fill-rule="evenodd" stroke="#979797" stroke-width="3">
    <use mask="url(#c)" xlink:href="#a"/>
    <use mask="url(#d)" xlink:href="#b"/>
  </g>
</svg>
