<svg xmlns="http://www.w3.org/2000/svg" width="25" height="21" viewBox="0 0 25 21">
  <path fill="#979797" d="M266.57045,36.4797698 C266.57045,36.2021121 266.773925,35.9009183 267.044862,35.8107564 C267.044862,35.8107564 271.58638,33.8844706 279.645567,35.9770261 C287.704754,38.0695817 290.563245,36.1903926 290.563245,36.1903926 C290.804458,36.0725536 291,36.1965104 291,36.4797698 L291,55.0179226 C291,55.2955802 290.786516,55.5535862 290.50468,55.5917058 C290.50468,55.5917058 284.871439,56.5834948 277.553012,54.7169841 C270.234584,52.8504735 266.989703,55.2687825 266.989703,55.2687825 C266.758156,55.407894 266.57045,55.301182 266.57045,55.0179226 L266.57045,36.4797698 Z M268.07045,53.1313376 C270.579902,52.3122339 273.859704,52.2270169 277.923709,53.2635113 C282.165375,54.3453166 286.095461,54.5409994 289.306254,54.2303069 C289.373939,54.2237573 289.438479,54.2172382 289.5,54.2107705 L289.5,38.1538686 C287.095114,38.7117985 283.728514,38.5868955 279.268595,37.4288841 C274.974742,36.3139917 271.452699,36.2791557 268.762835,36.8712332 C268.48475,36.9324437 268.253666,36.9918937 268.07045,37.044599 L268.07045,53.1313376 Z M290.563245,36.1903926 L291,37.0844163 L291,36.8547533 L290.563245,36.1903926 Z M266.989703,55.2687825 L266.57045,54.5709465 L266.57045,54.7062291 L266.989703,55.2687825 Z M282.34,42.397 L282.34,49.309 L281.485,49.309 L281.485,48.67 L276.724,48.67 L276.724,49.327 L275.869,49.327 L275.869,42.397 L278.029,42.397 C278.209,41.947 278.353,41.47 278.443,40.984 L279.388,41.11 C279.298,41.569 279.163,42.001 278.992,42.397 L282.34,42.397 Z M276.724,47.842 L281.485,47.842 L281.485,45.844 L276.724,45.844 L276.724,47.842 Z M276.724,45.034 L281.485,45.034 L281.485,43.207 L276.724,43.207 L276.724,45.034 Z M269.2,45.2985046 C269.2,45.0231881 269.424246,44.8 269.704736,44.8 L273.095264,44.8 C273.374022,44.8 273.6,45.0332817 273.6,45.2985046 L273.6,45.4014954 C273.6,45.6768119 273.375754,45.9 273.095264,45.9 L269.704736,45.9 C269.425978,45.9 269.2,45.6667183 269.2,45.4014954 L269.2,45.2985046 Z M284.4,45.2985046 C284.4,45.0231881 284.624246,44.8 284.904736,44.8 L288.295264,44.8 C288.574022,44.8 288.8,45.0332817 288.8,45.2985046 L288.8,45.4014954 C288.8,45.6768119 288.575754,45.9 288.295264,45.9 L284.904736,45.9 C284.625978,45.9 284.4,45.6667183 284.4,45.4014954 L284.4,45.2985046 Z" transform="translate(-266 -35)"/>
</svg>
