<svg id="组_23" data-name="组 23" xmlns="http://www.w3.org/2000/svg" width="165" height="45" viewBox="0 0 165 45">
  <defs>
    <style>
      .cls-1 {
        fill: #fff;
      }

      .cls-2 {
        fill: none;
        stroke: #e64802;
        stroke-width: 1.5px;
      }

      .cls-2, .cls-3 {
        fill-rule: evenodd;
      }

      .cls-3 {
        fill: #e64802;
      }
    </style>
  </defs>
  <rect id="圆角矩形_26" data-name="圆角矩形 26" class="cls-1" width="165" height="45" rx="3" ry="3"/>
  <path id="形状_64" data-name="形状 64" class="cls-2" d="M3626.88,664.456l8.51,9-8.51,9" transform="translate(-3501.5 -651)"/>
  <path id="进入新版" class="cls-3" d="M3551.85,669.03c1.51,0.027,2.54.073,3.1,0.14v-1.24c-0.56.067-1.59,0.113-3.1,0.14v-2.6a0.989,0.989,0,0,1,.24-0.78,0.449,0.449,0,0,0,.28-0.27,0.543,0.543,0,0,0-.51-0.11,6.164,6.164,0,0,1-1.35-.2,16.269,16.269,0,0,1,.18,2.74v1.22h-3.2c0-2.053.09-3.18,0.28-3.38a0.644,0.644,0,0,0,.2-0.34q0-.12-0.3-0.12a6.129,6.129,0,0,1-1.6-.2,20.383,20.383,0,0,1,.26,4.04c-1.36-.027-2.33-0.073-2.9-0.14v1.24c0.57-.067,1.54-0.113,2.9-0.14q0.015,2.561-.06,4.04a36.429,36.429,0,0,1-3.76-.14v1.32a34.656,34.656,0,0,1,3.68-.14,7.037,7.037,0,0,1-.7,2.65,9,9,0,0,1-1.92,2.33,2.154,2.154,0,0,1,1.3.74,11.27,11.27,0,0,0,1.83-2.75,9.221,9.221,0,0,0,.69-2.97h3.3v1.92a28.65,28.65,0,0,1-.18,3.6h1.52a28.65,28.65,0,0,1-.18-3.6v-1.92a34.479,34.479,0,0,1,3.66.14v-1.32a34.479,34.479,0,0,1-3.66.14v-4.04Zm-4.34,0h3.18v4.04h-3.24q0.075-1.78.06-4.04h0Zm-8.18-4.06-0.92.86a18.665,18.665,0,0,1,2.94,3.36l1.06-.8a28.531,28.531,0,0,0-3.08-3.42h0Zm2.2,8.28a16.611,16.611,0,0,1,.14-2.38,10.884,10.884,0,0,1-1.88.14,14.376,14.376,0,0,1-2.06-.14v1.26a25.967,25.967,0,0,1,2.6-.08v6.58a13.371,13.371,0,0,0-2.84,2.1,2.717,2.717,0,0,1,1.02,1.12,13.61,13.61,0,0,1,1.4-1.53,1.429,1.429,0,0,1,.86-0.43,1.67,1.67,0,0,1,.73.18,8.638,8.638,0,0,1,1.19.8,3.532,3.532,0,0,0,1.46.59,24.918,24.918,0,0,0,3.42.28q2.475,0.09,7.82.15a2.013,2.013,0,0,1,.48-1.56c-2.67.2-4.86,0.3-6.59,0.3a33.988,33.988,0,0,1-4.01-.18,4.459,4.459,0,0,1-1.82-.48,19.6,19.6,0,0,0-1.92-1.28v-5.44Zm21.57,1.86a17.162,17.162,0,0,1-5.23,5.38,2.716,2.716,0,0,1,1.16,1.06q6.135-5.44,7.5-12,2.8,8.261,7.74,11.82a4.626,4.626,0,0,1,1-1.16,13.8,13.8,0,0,1-2.51-1.89,15.5,15.5,0,0,1-2.11-2.48,22.094,22.094,0,0,1-1.78-3.14,33.341,33.341,0,0,1-1.58-4.19l-1.18-3.74a14.213,14.213,0,0,1-1.41.21c-0.29.02-.43,0.1-0.43,0.25a0.489,0.489,0,0,0,.28.4,2.952,2.952,0,0,1,.83.85,5.407,5.407,0,0,1,.55,1.21A19.479,19.479,0,0,1,3563.1,675.11Zm18.17-11.02-0.6.82a9.116,9.116,0,0,1,2.4,1.66l0.74-.9a11.156,11.156,0,0,0-2.54-1.58h0Zm8.4,2.88q1.845-.38,3.3-0.82a10.722,10.722,0,0,1,1.72-.44l0.24,0.04c0.15,0,.22-0.047.22-0.14a0.553,0.553,0,0,0-.22-0.35,3.5,3.5,0,0,1-.56-0.95,10.378,10.378,0,0,1-6.08,1.74,56.025,56.025,0,0,1,.3,6.32,17.939,17.939,0,0,1-.81,5.97,8.126,8.126,0,0,1-2.67,3.69,3.281,3.281,0,0,1,1.52.48,11.693,11.693,0,0,0,2.33-3.93,23.16,23.16,0,0,0,.71-6.67h2.46v7.32q0,1.98-.12,3.18h1.4c-0.09-1.027-.14-2.087-0.14-3.18v-7.32a20.106,20.106,0,0,1,2.74.14v-1.2a30.148,30.148,0,0,1-3.56.14h-2.78v-4.02Zm-2-.42a41.439,41.439,0,0,1-4.62.18,47.487,47.487,0,0,1-4.82-.18v1.24a61.974,61.974,0,0,1,9.44,0v-1.24Zm-9.86,4.64v1.14c0.95-.093,2.5-0.14,4.66-0.14v2.36a33.9,33.9,0,0,1-4.06-.2v1.28a33.9,33.9,0,0,1,4.06-.2v4.88a0.562,0.562,0,0,1-.68.58,9.2,9.2,0,0,1-1.7-.2,1.583,1.583,0,0,1,.62,1.14,0.9,0.9,0,0,1-.04.28,9.231,9.231,0,0,0,2.24-.19,1.013,1.013,0,0,0,.68-1.13v-5.36c1.83,0.027,3.18.093,4.06,0.2v-1.28c-0.88.107-2.23,0.173-4.06,0.2v-2.36c1.93,0,3.37.047,4.3,0.14v-1.14c-1,.093-2.17.14-3.52,0.14a6.909,6.909,0,0,1,1.84-2.32,0.35,0.35,0,0,0,.2-0.29,0.474,0.474,0,0,0-.41-0.3,9.531,9.531,0,0,1-1.09-.45,18.343,18.343,0,0,1-1.54,3.36c-2.73,0-4.59-.047-5.56-0.14h0Zm2.36-2.86-0.76.66a8.97,8.97,0,0,1,2.1,2.2l0.76-.82a10.351,10.351,0,0,0-2.1-2.04h0Zm-2.4,11.58a1.807,1.807,0,0,1,1.02.66,19.235,19.235,0,0,0,1.01-1.66,8.59,8.59,0,0,1,.78-1.24,1.34,1.34,0,0,1,.45-0.4,0.4,0.4,0,0,0,.3-0.37,0.377,0.377,0,0,0-.38-0.33,1.691,1.691,0,0,1-.8-0.5,14.782,14.782,0,0,1-2.38,3.84h0Zm7.44-3.48-0.84.64a11.184,11.184,0,0,1,1.82,2.5l0.92-.72a10.957,10.957,0,0,0-1.9-2.42h0Zm17.66-5.08c1.05,0,1.9.033,2.54,0.1v-1.22a13.305,13.305,0,0,1-1.82.1v-4.38a0.766,0.766,0,0,1,.32-0.7,0.269,0.269,0,0,0,.16-0.22c0-.08-0.07-0.12-0.2-0.12a5.2,5.2,0,0,1-1.6-.2,9.738,9.738,0,0,1,.2,2.32v3.3h-2.22q0.015-4.74.27-4.92a0.471,0.471,0,0,0,.25-0.35c0-.113-0.08-0.17-0.24-0.17a5.614,5.614,0,0,1-1.58-.2,51.252,51.252,0,0,1,.22,6.22,48.61,48.61,0,0,1-.35,6.97,10.828,10.828,0,0,1-1.33,3.77,2.516,2.516,0,0,1,1.42.52,19.563,19.563,0,0,0,1.26-6.86h2.7v6.7h1.26c-0.05-.72-0.08-1.5-0.08-2.34v-4.12a10.674,10.674,0,0,1,.08-1.36,12.473,12.473,0,0,1-1.6.08h-2.32c0.03-1.133.04-2.107,0.04-2.92h2.62Zm7.66,6.88a11.939,11.939,0,0,1-4.24,3.04,2.979,2.979,0,0,1,1.3,1.06,17.894,17.894,0,0,0,3.68-3.1,14.265,14.265,0,0,0,3.24,2.94,3.61,3.61,0,0,1,1.22-1.28,9.5,9.5,0,0,1-3.74-2.68q1.635-2.441,2.42-8.44c-1.07.08-2.22,0.12-3.46,0.12h-3.5v-2.96a41.242,41.242,0,0,0,4.42-.41,16.82,16.82,0,0,1,2.19-.27,4.328,4.328,0,0,1,.74.04,1.663,1.663,0,0,0,.33.04,0.117,0.117,0,0,0,.14-0.12,0.491,0.491,0,0,0-.18-0.3,3.628,3.628,0,0,1-.78-1.22q-2.46,1.14-8.2,1.16a47.747,47.747,0,0,1,.22,5.43,27.743,27.743,0,0,1-.43,5.62,9.814,9.814,0,0,1-1.75,3.75,2.756,2.756,0,0,1,1.42.66,17.828,17.828,0,0,0,1.48-4.1,24.915,24.915,0,0,0,.4-5v-1.26h0.74q0.96,5.239,2.34,7.28h0Zm2.56-7.28a14.7,14.7,0,0,1-1.84,6.28,17.351,17.351,0,0,1-2.02-6.28h3.86Z" transform="translate(-3501.5 -651)"/>
</svg>
